0
SECTION
2
HEADER
9
$INSUNITS
70
4
9
$ACADVER
1
AC1014
9
$HANDSEED
5
FFFF
0
ENDSEC
0
SECTION
2
TABLES
0
TABLE
2
VPORT
5
8
100
AcDbSymbolTable
0
ENDTAB
0
TABLE
2
LTYPE
5
5
100
AcDbSymbolTable
0
LTYPE
5
14
100
AcDbSymbolTableRecord
100
AcDbLinetypeTableRecord
2
BYBLOCK
70
0
0
LTYPE
5
15
100
AcDbSymbolTableRecord
100
AcDbLinetypeTableRecord
2
BYLAYER
70
0
0
ENDTAB
0
TABLE
2
LAYER
5
2
100
AcDbSymbolTable
70
2
0
LAYER
5
50
100
AcDbSymbolTableRecord
100
AcDbLayerTableRecord
2
0
70
0
6
CONTINUOUS
0
ENDTAB
0
TABLE
2
STYLE
5
3
100
AcDbSymbolTable
70
1
0
STYLE
5
11
100
AcDbSymbolTableRecord
100
AcDbTextStyleTableRecord
2
STANDARD
70
0
0
ENDTAB
0
TABLE
2
VIEW
5
6
100
AcDbSymbolTable
70
0
0
ENDTAB
0
TABLE
2
UCS
5
7
100
AcDbSymbolTable
70
0
0
ENDTAB
0
TABLE
2
APPID
5
9
100
AcDbSymbolTable
70
2
0
APPID
5
12
100
AcDbSymbolTableRecord
100
AcDbRegAppTableRecord
2
ACAD
70
0
0
ENDTAB
0
TABLE
2
DIMSTYLE
5
A
100
AcDbSymbolTable
70
1
0
ENDTAB
0
TABLE
2
BLOCK_RECORD
5
1
100
AcDbSymbolTable
70
1
0
BLOCK_RECORD
5
1F
100
AcDbSymbolTableRecord
100
AcDbBlockTableRecord
2
*MODEL_SPACE
0
BLOCK_RECORD
5
1B
100
AcDbSymbolTableRecord
100
AcDbBlockTableRecord
2
*PAPER_SPACE
0
ENDTAB
0
ENDSEC
0
SECTION
2
BLOCKS
0
BLOCK
5
20
100
AcDbEntity
100
AcDbBlockBegin
2
*MODEL_SPACE
0
ENDBLK
5
21
100
AcDbEntity
100
AcDbBlockEnd
0
BLOCK
5
1C
100
AcDbEntity
100
AcDbBlockBegin
2
*PAPER_SPACE
0
ENDBLK
5
1D
100
AcDbEntity
100
AcDbBlockEnd
0
ENDSEC
0
SECTION
2
ENTITIES
0
LWPOLYLINE
5
100
100
AcDbEntity
8
0
100
AcDbPolyline
90
10
70
1
43
0.0
10
-27.856517305139064
20
17.276731912086262
10
-23.12190852533886
20
20.780508983550618
10
-23.739539873418408
20
21.615098306547683
10
-27.261626120982626
20
19.00863129239854
10
-27.029560759738608
20
25.874246953892591
10
-27.550076423655252
20
26.57761486595254
10
-32.121963332934463
20
23.194256271828671
10
-31.512104854876327
20
22.370162582915757
10
-28.168485058736948
20
24.844558593358002
10
-28.396456105888284
20
18.006342298689443
0
LINE
5
101
100
AcDbEntity
8
0
100
AcDbLine
10
-16.420750072789186
20
24.382578967457288
30
0
11
-17.512210154441632
21
23.820595945798498
31
0
0
LINE
5
102
100
AcDbEntity
8
0
100
AcDbLine
10
-17.512210154441632
20
23.820595945798498
30
0
11
-17.861953152521494
21
24.499854403460631
31
0
0
SPLINE
5
103
100
AcDbEntity
8
0
100
AcDbSpline
70
0
71
2
72
6
73
3
74
0
42
0.000000001
43
0.0000000001
44
0.0000000001
40
0
40
0
40
0
40
1
40
1
40
1
10
-17.861953152521494
20
24.499854403460631
30
0
10
-18.122958897263853
20
23.851328156601191
30
0
10
-18.517273881983954
20
23.361854262554964
30
0
0
SPLINE
5
104
100
AcDbEntity
8
0
100
AcDbSpline
70
0
71
2
72
6
73
3
74
0
42
0.000000001
43
0.0000000001
44
0.0000000001
40
0
40
0
40
0
40
1
40
1
40
1
10
-18.517273881983954
20
23.361854262554964
30
0
10
-18.911588866704058
20
22.872378108953487
30
0
10
-19.509566603316671
20
22.564484333451137
30
0
0
SPLINE
5
105
100
AcDbEntity
8
0
100
AcDbSpline
70
0
71
2
72
6
73
3
74
0
42
0.000000001
43
0.0000000001
44
0.0000000001
40
0
40
0
40
0
40
1
40
1
40
1
10
-19.509566603316671
20
22.564484333451137
30
0
10
-20.670693292091293
20
21.966630872376655
30
0
10
-21.816107033735413
20
22.507963818708209
30
0
0
SPLINE
5
106
100
AcDbEntity
8
0
100
AcDbSpline
70
0
71
2
72
6
73
3
74
0
42
0.000000001
43
0.0000000001
44
0.0000000001
40
0
40
0
40
0
40
1
40
1
40
1
10
-21.816107033735413
20
22.507963818708209
30
0
10
-22.955713718415858
20
23.052286156620667
30
0
10
-23.771783726675849
20
24.637224064202471
30
0
0
SPLINE
5
107
100
AcDbEntity
8
0
100
AcDbSpline
70
0
71
2
72
6
73
3
74
0
42
0.000000001
43
0.0000000001
44
0.0000000001
40
0
40
0
40
0
40
1
40
1
40
1
10
-23.771783726675849
20
24.637224064202471
30
0
10
-24.196259254723238
20
25.461622793072625
30
0
10
-24.295842373206902
20
26.225619091299613
30
0
0
SPLINE
5
108
100
AcDbEntity
8
0
100
AcDbSpline
70
0
71
2
72
6
73
3
74
0
42
0.000000001
43
0.0000000001
44
0.0000000001
40
0
40
0
40
0
40
1
40
1
40
1
10
-24.295842373206902
20
26.225619091299613
30
0
10
-24.389618434726895
20
26.992604781107516
30
0
10
-24.222194429753998
20
27.651703486929222
30
0
0
SPLINE
5
109
100
AcDbEntity
8
0
100
AcDbSpline
70
0
71
2
72
6
73
3
74
0
42
0.000000001
43
0.0000000001
44
0.0000000001
40
0
40
0
40
0
40
1
40
1
40
1
10
-24.222194429753998
20
27.651703486929222
30
0
10
-24.05459417947247
20
28.29620094679791
30
0
10
-23.651661251071644
20
28.797460680969635
30
0
0
SPLINE
5
110
100
AcDbEntity
8
0
100
AcDbSpline
70
0
71
2
72
6
73
3
74
0
42
0.000000001
43
0.0000000001
44
0.0000000001
40
0
40
0
40
0
40
1
40
1
40
1
10
-23.651661251071644
20
28.797460680969635
30
0
10
-23.242921265707146
20
29.301709806722268
30
0
10
-22.67977231354514
20
29.5916694922944
30
0
0
SPLINE
5
111
100
AcDbEntity
8
0
100
AcDbSpline
70
0
71
2
72
6
73
3
74
0
42
0.000000001
43
0.0000000001
44
0.0000000001
40
0
40
0
40
0
40
1
40
1
40
1
10
-22.67977231354514
20
29.5916694922944
30
0
10
-22.168877835835239
20
29.854724653638335
30
0
10
-21.717296683143413
20
29.947687275272365
30
0
0
SPLINE
5
112
100
AcDbEntity
8
0
100
AcDbSpline
70
0
71
2
72
6
73
3
74
0
42
0.000000001
43
0.0000000001
44
0.0000000001
40
0
40
0
40
0
40
1
40
1
40
1
10
-21.717296683143413
20
29.947687275272365
30
0
10
-21.268707181587729
20
30.046456953870067
30
0
10
-20.716702355863404
20
30.044231291959864
30
0
0
LINE
5
113
100
AcDbEntity
8
0
100
AcDbLine
10
-20.716702355863404
20
30.044231291959864
30
0
11
-22.163509132587894
21
32.854155438474784
31
0
0
LINE
5
114
100
AcDbEntity
8
0
100
AcDbLine
10
-22.163509132587894
20
32.854155438474784
30
0
11
-21.072049050935444
21
33.416138460133581
31
0
0
LINE
5
115
100
AcDbEntity
8
0
100
AcDbLine
10
-21.072049050935444
20
33.416138460133581
30
0
11
-16.420750072789186
21
24.382578967457288
31
0
0
LINE
5
116
100
AcDbEntity
8
0
100
AcDbLine
10
-18.33425894586345
20
25.417145707752407
30
0
11
-20.25037986479375
21
29.13855636115067
31
0
0
SPLINE
5
117
100
AcDbEntity
8
0
100
AcDbSpline
70
0
71
2
72
6
73
3
74
0
42
0.000000001
43
0.0000000001
44
0.0000000001
40
0
40
0
40
0
40
1
40
1
40
1
10
-20.250379864793743
20
29.13855636115067
30
0
10
-20.793242530021953
20
29.108761865772074
30
0
10
-21.180439915739889
20
29.00488107322424
30
0
0
SPLINE
5
118
100
AcDbEntity
8
0
100
AcDbSpline
70
0
71
2
72
6
73
3
74
0
42
0.000000001
43
0.0000000001
44
0.0000000001
40
0
40
0
40
0
40
1
40
1
40
1
10
-21.180439915739889
20
29.00488107322424
30
0
10
-21.567637301457829
20
28.900998021121168
30
0
10
-21.979838925448139
20
28.688760257097478
30
0
0
SPLINE
5
119
100
AcDbEntity
8
0
100
AcDbSpline
70
0
71
2
72
6
73
3
74
0
42
0.000000001
43
0.0000000001
44
0.0000000001
40
0
40
0
40
0
40
1
40
1
40
1
10
-21.979838925448139
20
28.688760257097478
30
0
10
-22.897127970184677
20
28.216456723310763
30
0
10
-23.079202931325852
20
27.314781205274219
30
0
0
SPLINE
5
120
100
AcDbEntity
8
0
100
AcDbSpline
70
0
71
2
72
6
73
3
74
0
42
0.000000001
43
0.0000000001
44
0.0000000001
40
0
40
0
40
0
40
1
40
1
40
1
10
-23.079202931325852
20
27.314781205274219
30
0
10
-23.261277892467021
20
26.413105687237671
30
0
10
-22.657447907785961
20
25.240369403646184
30
0
0
SPLINE
5
121
100
AcDbEntity
8
0
100
AcDbSpline
70
0
71
2
72
6
73
3
74
0
42
0.000000001
43
0.0000000001
44
0.0000000001
40
0
40
0
40
0
40
1
40
1
40
1
10
-22.657447907785961
20
25.240369403646184
30
0
10
-22.06258383829239
20
24.085047512279999
30
0
10
-21.356915698999359
20
23.684534567539913
30
0
0
SPLINE
5
122
100
AcDbEntity
8
0
100
AcDbSpline
70
0
71
2
72
6
73
3
74
0
42
0.000000001
43
0.0000000001
44
0.0000000001
40
0
40
0
40
0
40
1
40
1
40
1
10
-21.356915698999359
20
23.684534567539913
30
0
10
-20.654239210842469
20
23.289824160653019
30
0
10
-19.783393064483889
20
23.738217080902931
30
0
0
SPLINE
5
123
100
AcDbEntity
8
0
100
AcDbSpline
70
0
71
2
72
6
73
3
74
0
42
0.000000001
43
0.0000000001
44
0.0000000001
40
0
40
0
40
0
40
1
40
1
40
1
10
-19.783393064483889
20
23.738217080902931
30
0
10
-19.318941485151946
20
23.977359369154815
30
0
10
-18.947506756779763
20
24.425675464526609
30
0
0
SPLINE
5
124
100
AcDbEntity
8
0
100
AcDbSpline
70
0
71
2
72
6
73
3
74
0
42
0.000000001
43
0.0000000001
44
0.0000000001
40
0
40
0
40
0
40
1
40
1
40
1
10
-18.947506756779763
20
24.425675464526609
30
0
10
-18.579059160433253
20
24.879798616862068
30
0
10
-18.33425894586345
20
25.417145707752407
30
0
0
LINE
5
125
100
AcDbEntity
8
0
100
AcDbLine
10
-9.3878527583022819
20
30.466144484366467
30
0
11
-14.518326577716397
21
28.866058518463863
31
0
0
SPLINE
5
126
100
AcDbEntity
8
0
100
AcDbSpline
70
0
71
2
72
6
73
3
74
0
42
0.000000001
43
0.0000000001
44
0.0000000001
40
0
40
0
40
0
40
1
40
1
40
1
10
-14.518326577716394
20
28.866058518463863
30
0
10
-14.318071235123973
20
28.223969744479717
30
0
10
-13.975120460091892
20
27.804232503768063
30
0
0
SPLINE
5
127
100
AcDbEntity
8
0
100
AcDbSpline
70
0
71
2
72
6
73
3
74
0
42
0.000000001
43
0.0000000001
44
0.0000000001
40
0
40
0
40
0
40
1
40
1
40
1
10
-13.975120460091892
20
27.804232503768063
30
0
10
-13.634112902565168
20
27.390729375960206
30
0
10
-13.202216995113618
20
27.19025711606486
30
0
0
SPLINE
5
128
100
AcDbEntity
8
0
100
AcDbSpline
70
0
71
2
72
6
73
3
74
0
42
0.000000001
43
0.0000000001
44
0.0000000001
40
0
40
0
40
0
40
1
40
1
40
1
10
-13.202216995113618
20
27.19025711606486
30
0
10
-12.784732530975029
20
26.992130274507371
30
0
10
-12.295466516010766
20
26.980556832574322
30
0
0
SPLINE
5
129
100
AcDbEntity
8
0
100
AcDbSpline
70
0
71
2
72
6
73
3
74
0
42
0.000000001
43
0.0000000001
44
0.0000000001
40
0
40
0
40
0
40
1
40
1
40
1
10
-12.295466516010766
20
26.980556832574322
30
0
10
-11.799968647697936
20
26.970926608146627
30
0
10
-11.263853014412737
20
27.138129176706126
30
0
0
SPLINE
5
130
100
AcDbEntity
8
0
100
AcDbSpline
70
0
71
2
72
6
73
3
74
0
42
0.000000001
43
0.0000000001
44
0.0000000001
40
0
40
0
40
0
40
1
40
1
40
1
10
-11.263853014412737
20
27.138129176706126
30
0
10
-10.553191258041995
20
27.359768950078397
30
0
10
-9.9237876271683767
20
27.86387798340623
30
0
0
SPLINE
5
131
100
AcDbEntity
8
0
100
AcDbSpline
70
0
71
2
72
6
73
3
74
0
42
0.000000001
43
0.0000000001
44
0.0000000001
40
0
40
0
40
0
40
1
40
1
40
1
10
-9.9237876271683767
20
27.86387798340623
30
0
10
-9.2900908413410743
20
28.376164347143217
30
0
10
-9.070177368171235
20
28.745721385111974
30
0
0
LINE
5
132
100
AcDbEntity
8
0
100
AcDbLine
10
-9.070177368171235
20
28.745721385111974
30
0
11
-9.0078407582436775
21
28.765162598386468
31
0
0
LINE
5
133
100
AcDbEntity
8
0
100
AcDbLine
10
-9.0078407582436775
20
28.765162598386468
30
0
11
-8.6092778096746621
21
27.487219163321974
31
0
0
SPLINE
5
134
100
AcDbEntity
8
0
100
AcDbSpline
70
0
71
2
72
6
73
3
74
0
42
0.000000001
43
0.0000000001
44
0.0000000001
40
0
40
0
40
0
40
1
40
1
40
1
10
-8.6092778096746603
20
27.487219163321978
30
0
10
-9.0103127116749082
20
27.150098040805961
30
0
10
-9.4479524085434452
20
26.842601947025635
30
0
0
SPLINE
5
135
100
AcDbEntity
8
0
100
AcDbSpline
70
0
71
2
72
6
73
3
74
0
42
0.000000001
43
0.0000000001
44
0.0000000001
40
0
40
0
40
0
40
1
40
1
40
1
10
-9.4479524085434452
20
26.842601947025635
30
0
10
-9.8812989504582927
20
26.543285443209705
30
0
10
-10.368743763900099
20
26.329698724708457
30
0
0
SPLINE
5
136
100
AcDbEntity
8
0
100
AcDbSpline
70
0
71
2
72
6
73
3
74
0
42
0.000000001
43
0.0000000001
44
0.0000000001
40
0
40
0
40
0
40
1
40
1
40
1
10
-10.368743763900099
20
26.329698724708457
30
0
10
-10.342325044048239
20
26.201132291176918
30
0
10
-10.308133454174971
20
26.047631665585399
30
0
0
SPLINE
5
137
100
AcDbEntity
8
0
100
AcDbSpline
70
0
71
2
72
6
73
3
74
0
42
0.000000001
43
0.0000000001
44
0.0000000001
40
0
40
0
40
0
40
1
40
1
40
1
10
-10.308133454174971
20
26.047631665585399
30
0
10
-10.267705491842655
20
25.896074257499237
30
0
10
-10.232709500304376
20
25.783864744341251
30
0
0
SPLINE
5
138
100
AcDbEntity
8
0
100
AcDbSpline
70
0
71
2
72
6
73
3
74
0
42
0.000000001
43
0.0000000001
44
0.0000000001
40
0
40
0
40
0
40
1
40
1
40
1
10
-10.232709500304376
20
25.783864744341251
30
0
10
-10.07328432087677
20
25.272687822226505
30
0
10
-9.7418708348939198
20
25.109279046912924
30
0
0
SPLINE
5
139
100
AcDbEntity
8
0
100
AcDbSpline
70
0
71
2
72
6
73
3
74
0
42
0.000000001
43
0.0000000001
44
0.0000000001
40
0
40
0
40
0
40
1
40
1
40
1
10
-9.7418708348939198
20
25.109279046912924
30
0
10
-9.4042254955625015
20
24.947815748659931
30
0
10
-8.8431779297725654
20
25.122795706351326
30
0
0
SPLINE
5
140
100
AcDbEntity
8
0
100
AcDbSpline
70
0
71
2
72
6
73
3
74
0
42
0.000000001
43
0.0000000001
44
0.0000000001
40
0
40
0
40
0
40
1
40
1
40
1
10
-8.8431779297725654
20
25.122795706351326
30
0
10
-8.6187589034565981
20
25.192787689427881
30
0
10
-8.3966220279317927
20
25.357830123179102
30
0
0
SPLINE
5
141
100
AcDbEntity
8
0
100
AcDbSpline
70
0
71
2
72
6
73
3
74
0
42
0.000000001
43
0.0000000001
44
0.0000000001
40
0
40
0
40
0
40
1
40
1
40
1
10
-8.3966220279317927
20
25.357830123179102
30
0
10
-8.1663100815530676
20
25.518583921087114
30
0
10
-8.0758872000074344
20
25.601505079239992
30
0
0
LINE
5
142
100
AcDbEntity
8
0
100
AcDbLine
10
-8.0758872000074344
20
25.601505079239995
30
0
11
-8.0260188158874826
21
25.617059857503776
31
0
0
LINE
5
143
100
AcDbEntity
8
0
100
AcDbLine
10
-8.0260188158874826
20
25.617059857503776
30
0
11
-7.7168890636695124
21
24.625874318238061
31
0
0
SPLINE
5
144
100
AcDbEntity
8
0
100
AcDbSpline
70
0
71
2
72
6
73
3
74
0
42
0.000000001
43
0.0000000001
44
0.0000000001
40
0
40
0
40
0
40
1
40
1
40
1
10
-7.7168890636695142
20
24.625874318238061
30
0
10
-8.0138307749294846
20
24.437501976646399
30
0
10
-8.239054202910463
20
24.326218881136317
30
0
0
SPLINE
5
145
100
AcDbEntity
8
0
100
AcDbSpline
70
0
71
2
72
6
73
3
74
0
42
0.000000001
43
0.0000000001
44
0.0000000001
40
0
40
0
40
0
40
1
40
1
40
1
10
-8.239054202910463
20
24.326218881136317
30
0
10
-8.4580412584324005
20
24.216879003131581
30
0
10
-8.7198649621711954
20
24.135223195912424
30
0
0
SPLINE
5
146
100
AcDbEntity
8
0
100
AcDbSpline
70
0
71
2
72
6
73
3
74
0
42
0.000000001
43
0.0000000001
44
0.0000000001
40
0
40
0
40
0
40
1
40
1
40
1
10
-8.7198649621711954
20
24.135223195912424
30
0
10
-9.5863727624713224
20
23.864978129798683
30
0
10
-10.269843031098542
20
24.192193362147872
30
0
0
SPLINE
5
147
100
AcDbEntity
8
0
100
AcDbSpline
70
0
71
2
72
6
73
3
74
0
42
0.000000001
43
0.0000000001
44
0.0000000001
40
0
40
0
40
0
40
1
40
1
40
1
10
-10.269843031098542
20
24.192193362147872
30
0
10
-10.947081446377203
20
24.521356331112894
30
0
10
-11.225101642067603
20
25.412798323472991
30
0
0
SPLINE
5
148
100
AcDbEntity
8
0
100
AcDbSpline
70
0
71
2
72
6
73
3
74
0
42
0.000000001
43
0.0000000001
44
0.0000000001
40
0
40
0
40
0
40
1
40
1
40
1
10
-11.225101642067603
20
25.412798323472991
30
0
10
-11.271765976858958
20
25.562410254498559
30
0
10
-11.301664411778539
20
25.72409047005447
30
0
0
SPLINE
5
149
100
AcDbEntity
8
0
100
AcDbSpline
70
0
71
2
72
6
73
3
74
0
42
0.000000001
43
0.0000000001
44
0.0000000001
40
0
40
0
40
0
40
1
40
1
40
1
10
-11.301664411778539
20
25.72409047005447
30
0
10
-11.331567365808599
20
25.885770685610385
30
0
10
-11.341626905731665
20
26.005755328345025
30
0
0
SPLINE
5
150
100
AcDbEntity
8
0
100
AcDbSpline
70
0
71
2
72
6
73
3
74
0
42
0.000000001
43
0.0000000001
44
0.0000000001
40
0
40
0
40
0
40
1
40
1
40
1
10
-11.341626905731665
20
26.005755328345025
30
0
10
-12.922624148977029
20
25.635800608654247
30
0
10
-14.078815969110146
20
26.294402212323419
30
0
0
SPLINE
5
151
100
AcDbEntity
8
0
100
AcDbSpline
70
0
71
2
72
6
73
3
74
0
42
0.000000001
43
0.0000000001
44
0.0000000001
40
0
40
0
40
0
40
1
40
1
40
1
10
-14.078815969110146
20
26.294402212323419
30
0
10
-15.228775935894694
20
26.954947033497948
30
0
10
-15.734274595694377
20
28.575753120940202
30
0
0
SPLINE
5
152
100
AcDbEntity
8
0
100
AcDbSpline
70
0
71
2
72
6
73
3
74
0
42
0.000000001
43
0.0000000001
44
0.0000000001
40
0
40
0
40
0
40
1
40
1
40
1
10
-15.734274595694377
20
28.575753120940202
30
0
10
-16.266987338789974
20
30.283834529480465
30
0
10
-15.651159115790968
20
31.57717457394202
30
0
0
SPLINE
5
153
100
AcDbEntity
8
0
100
AcDbSpline
70
0
71
2
72
6
73
3
74
0
42
0.000000001
43
0.0000000001
44
0.0000000001
40
0
40
0
40
0
40
1
40
1
40
1
10
-15.651159115790968
20
31.57717457394202
30
0
10
-15.029094520332924
20
32.872460095464163
30
0
10
-13.508034239351527
20
33.346846939181049
30
0
0
SPLINE
5
154
100
AcDbEntity
8
0
100
AcDbSpline
70
0
71
2
72
6
73
3
74
0
42
0.000000001
43
0.0000000001
44
0.0000000001
40
0
40
0
40
0
40
1
40
1
40
1
10
-13.508034239351527
20
33.346846939181049
30
0
10
-12.099178952417645
20
33.786237791359639
30
0
10
-11.082013047016396
20
33.200561073466957
30
0
0
SPLINE
5
155
100
AcDbEntity
8
0
100
AcDbSpline
70
0
71
2
72
6
73
3
74
0
42
0.000000001
43
0.0000000001
44
0.0000000001
40
0
40
0
40
0
40
1
40
1
40
1
10
-11.082013047016396
20
33.200561073466957
30
0
10
-10.058610769156111
20
32.61682757307964
30
0
10
-9.586169402499829
20
31.10199688589157
30
0
0
LINE
5
156
100
AcDbEntity
8
0
100
AcDbLine
10
-9.586169402499829
20
31.10199688589157
30
0
11
-9.3878527583022819
21
30.466144484366467
31
0
0
SPLINE
5
157
100
AcDbEntity
8
0
100
AcDbSpline
70
0
71
2
72
6
73
3
74
0
42
0.000000001
43
0.0000000001
44
0.0000000001
40
0
40
0
40
0
40
1
40
1
40
1
10
-10.808615901344552
20
31.008031021731522
30
0
10
-11.102593076131239
20
31.928700361105278
30
0
10
-11.721381316493048
20
32.289770509597162
30
0
0
SPLINE
5
158
100
AcDbEntity
8
0
100
AcDbSpline
70
0
71
2
72
6
73
3
74
0
42
0.000000001
43
0.0000000001
44
0.0000000001
40
0
40
0
40
0
40
1
40
1
40
1
10
-11.721381316493048
20
32.289770509597162
30
0
10
-12.333933184395814
20
32.65278613514964
30
0
10
-13.269013967082536
20
32.361154378700817
30
0
0
SPLINE
5
159
100
AcDbEntity
8
0
100
AcDbSpline
70
0
71
2
72
6
73
3
74
0
42
0.000000001
43
0.0000000001
44
0.0000000001
40
0
40
0
40
0
40
1
40
1
40
1
10
-13.269013967082536
20
32.361154378700817
30
0
10
-14.210326603117821
20
32.067579404746631
30
0
10
-14.598341947832196
20
31.337785994169103
30
0
0
SPLINE
5
160
100
AcDbEntity
8
0
100
AcDbSpline
70
0
71
2
72
6
73
3
74
0
42
0.000000001
43
0.0000000001
44
0.0000000001
40
0
40
0
40
0
40
1
40
1
40
1
10
-14.598341947832196
20
31.337785994169103
30
0
10
-14.980120920087533
20
30.609935801096935
30
0
10
-14.798289990912146
20
29.763734623727764
30
0
0
LINE
5
161
100
AcDbEntity
8
0
100
AcDbLine
10
-14.798289990912146
20
29.763734623727764
30
0
11
-10.808615901344552
21
31.008031021731522
31
0
0
SPLINE
5
162
100
AcDbEntity
8
0
100
AcDbSpline
70
0
71
2
72
6
73
3
74
0
42
0.000000001
43
0.0000000001
44
0.0000000001
40
0
40
0
40
0
40
1
40
1
40
1
10
-0.6169552643583831
20
31.978580043001426
30
0
10
-0.49849582140991444
20
31.072084893640557
30
0
10
-0.66274289171708745
20
30.313043800052213
30
0
0
SPLINE
5
163
100
AcDbEntity
8
0
100
AcDbSpline
70
0
71
2
72
6
73
3
74
0
42
0.000000001
43
0.0000000001
44
0.0000000001
40
0
40
0
40
0
40
1
40
1
40
1
10
-0.66274289171708745
20
30.313043800052213
30
0
10
-0.82049600026799396
20
29.554847780123183
30
0
10
-1.1900146257976907
20
29.006060561058888
30
0
0
SPLINE
5
164
100
AcDbEntity
8
0
100
AcDbSpline
70
0
71
2
72
6
73
3
74
0
42
0.000000001
43
0.0000000001
44
0.0000000001
40
0
40
0
40
0
40
1
40
1
40
1
10
-1.1900146257976907
20
29.006060561058888
30
0
10
-1.5828880142754453
20
28.434463131859072
30
0
10
-2.0994178227508709
20
28.103542228918275
30
0
0
SPLINE
5
165
100
AcDbEntity
8
0
100
AcDbSpline
70
0
71
2
72
6
73
3
74
0
42
0.000000001
43
0.0000000001
44
0.0000000001
40
0
40
0
40
0
40
1
40
1
40
1
10
-2.0994178227508709
20
28.103542228918275
30
0
10
-2.616788185775123
20
27.779097211291834
30
0
10
-3.2772335865191504
20
27.692791239391262
30
0
0
SPLINE
5
166
100
AcDbEntity
8
0
100
AcDbSpline
70
0
71
2
72
6
73
3
74
0
42
0.000000001
43
0.0000000001
44
0.0000000001
40
0
40
0
40
0
40
1
40
1
40
1
10
-3.2772335865191504
20
27.692791239391262
30
0
10
-3.8923568282836474
20
27.612407561771537
30
0
10
-4.3715452268829402
20
27.701255533315742
30
0
0
SPLINE
5
167
100
AcDbEntity
8
0
100
AcDbSpline
70
0
71
2
72
6
73
3
74
0
42
0.000000001
43
0.0000000001
44
0.0000000001
40
0
40
0
40
0
40
1
40
1
40
1
10
-4.3715452268829402
20
27.701255533315742
30
0
10
-4.8498795136019712
20
27.783629879100836
30
0
10
-5.3288058037935571
20
27.971294979902758
30
0
0
LINE
5
168
100
AcDbEntity
8
0
100
AcDbLine
10
-5.3288058037935571
20
27.971294979902751
30
0
11
-5.3625093297352509
21
27.624444212528537
31
0
0
LINE
5
169
100
AcDbEntity
8
0
100
AcDbLine
10
-5.3625093297352509
20
27.624444212528537
30
0
11
-6.5021024570842627
21
27.475523705406037
31
0
0
LINE
5
170
100
AcDbEntity
8
0
100
AcDbLine
10
-6.5021024570842627
20
27.475523705406037
30
0
11
-7.8186955845081414
21
37.550564177408113
31
0
0
LINE
5
171
100
AcDbEntity
8
0
100
AcDbLine
10
-7.8186955845081414
20
37.550564177408113
30
0
11
-6.6014053907183188
21
37.709639125773712
31
0
0
LINE
5
172
100
AcDbEntity
8
0
100
AcDbLine
10
-6.6014053907183188
20
37.709639125773712
30
0
11
-6.1309479135616884
21
34.109559810032401
31
0
0
SPLINE
5
173
100
AcDbEntity
8
0
100
AcDbSpline
70
0
71
2
72
6
73
3
74
0
42
0.000000001
43
0.0000000001
44
0.0000000001
40
0
40
0
40
0
40
1
40
1
40
1
10
-6.1309479135616929
20
34.109559810032401
30
0
10
-5.674427373117874
20
34.597278029658099
30
0
10
-5.1328436161548208
20
34.93805737210571
30
0
0
SPLINE
5
174
100
AcDbEntity
8
0
100
AcDbSpline
70
0
71
2
72
6
73
3
74
0
42
0.000000001
43
0.0000000001
44
0.0000000001
40
0
40
0
40
0
40
1
40
1
40
1
10
-5.1328436161548208
20
34.93805737210571
30
0
10
-4.5921139710720293
20
35.285312599867666
30
0
10
-3.8733946407197806
20
35.379233272922946
30
0
0
SPLINE
5
175
100
AcDbEntity
8
0
100
AcDbSpline
70
0
71
2
72
6
73
3
74
0
42
0.000000001
43
0.0000000001
44
0.0000000001
40
0
40
0
40
0
40
1
40
1
40
1
10
-3.8733946407197806
20
35.379233272922946
30
0
10
-2.5913501128968974
20
35.546770255657783
30
0
10
-1.7245892424100351
20
34.65903393388929
30
0
0
SPLINE
5
176
100
AcDbEntity
8
0
100
AcDbSpline
70
0
71
2
72
6
73
3
74
0
42
0.000000001
43
0.0000000001
44
0.0000000001
40
0
40
0
40
0
40
1
40
1
40
1
10
-1.7245892424100351
20
34.65903393388929
30
0
10
-0.8513524866088229
20
33.772144945335342
30
0
10
-0.6169552643583831
20
31.978580043001426
30
0
0
SPLINE
5
177
100
AcDbEntity
8
0
100
AcDbSpline
70
0
71
2
72
6
73
3
74
0
42
0.000000001
43
0.0000000001
44
0.0000000001
40
0
40
0
40
0
40
1
40
1
40
1
10
-1.8688663635168368
20
31.782055226108234
30
0
10
-2.0380934935702921
20
33.077047005449344
30
0
10
-2.5525897023308097
20
33.688123383781189
30
0
0
SPLINE
5
178
100
AcDbEntity
8
0
100
AcDbSpline
70
0
71
2
72
6
73
3
74
0
42
0.000000001
43
0.0000000001
44
0.0000000001
40
0
40
0
40
0
40
1
40
1
40
1
10
-2.5525897023308097
20
33.688123383781189
30
0
10
-3.0679400229715892
20
34.30567338787214
30
0
10
-4.0197595908672135
20
34.181291650642827
30
0
0
SPLINE
5
179
100
AcDbEntity
8
0
100
AcDbSpline
70
0
71
2
72
6
73
3
74
0
42
0.000000001
43
0.0000000001
44
0.0000000001
40
0
40
0
40
0
40
1
40
1
40
1
10
-4.0197595908672135
20
34.181291650642827
30
0
10
-4.5507053617660809
20
34.1119074879255
30
0
10
-5.064144098674852
20
33.807735199901423
30
0
0
SPLINE
5
180
100
AcDbEntity
8
0
100
AcDbSpline
70
0
71
2
72
6
73
3
74
0
42
0.000000001
43
0.0000000001
44
0.0000000001
40
0
40
0
40
0
40
1
40
1
40
1
10
-5.064144098674852
20
33.807735199901423
30
0
10
-5.5784279092429223
20
33.510036537636466
30
0
10
-5.9972409918619185
20
33.086514541899845
30
0
0
LINE
5
181
100
AcDbEntity
8
0
100
AcDbLine
10
-5.9972409918619185
20
33.086514541899845
30
0
11
-5.455711464224593
21
28.942539944186208
31
0
0
SPLINE
5
182
100
AcDbEntity
8
0
100
AcDbSpline
70
0
71
2
72
6
73
3
74
0
42
0.000000001
43
0.0000000001
44
0.0000000001
40
0
40
0
40
0
40
1
40
1
40
1
10
-5.4557114642245885
20
28.942539944186208
30
0
10
-4.9072541402251613
20
28.777133722041537
30
0
10
-4.5263337989605645
20
28.734712831988617
30
0
0
SPLINE
5
183
100
AcDbEntity
8
0
100
AcDbSpline
70
0
71
2
72
6
73
3
74
0
42
0.000000001
43
0.0000000001
44
0.0000000001
40
0
40
0
40
0
40
1
40
1
40
1
10
-4.5263337989605645
20
28.734712831988617
30
0
10
-4.1389375723816091
20
28.693137015595003
30
0
10
-3.6662657310909719
20
28.754904217602387
30
0
0
SPLINE
5
184
100
AcDbEntity
8
0
100
AcDbSpline
70
0
71
2
72
6
73
3
74
0
42
0.000000001
43
0.0000000001
44
0.0000000001
40
0
40
0
40
0
40
1
40
1
40
1
10
-3.6662657310909719
20
28.754904217602387
30
0
10
-2.6561722335871174
20
28.88690291554164
30
0
10
-2.1726861609236625
20
29.621809699624531
30
0
0
SPLINE
5
185
100
AcDbEntity
8
0
100
AcDbSpline
70
0
71
2
72
6
73
3
74
0
42
0.000000001
43
0.0000000001
44
0.0000000001
40
0
40
0
40
0
40
1
40
1
40
1
10
-2.1726861609236625
20
29.621809699624531
30
0
10
-1.6835647574946844
20
30.364037442681084
30
0
10
-1.8688663635168368
20
31.782055226108234
30
0
0
LWPOLYLINE
5
186
100
AcDbEntity
8
0
100
AcDbPolyline
90
4
70
1
43
0.0
10
1.6921972119163922
20
36.771458233299377
10
3.0765544009513857
20
36.776433773935182
10
3.0718138540604176
20
38.049779014088742
10
1.6874566650254208
20
38.044803473452944
0
LWPOLYLINE
5
187
100
AcDbEntity
8
0
100
AcDbPolyline
90
4
70
1
43
0.0
10
1.8010625833209823
20
28.256685844782062
10
3.0286925018834765
20
28.261069381945305
10
3.0025810815440952
20
35.555049266052684
10
1.7749421247606456
20
35.550665728889449
0
LINE
5
188
100
AcDbEntity
8
0
100
AcDbLine
10
11.105111174076798
20
27.57956040726534
30
0
11
9.8926971004922706
21
27.725064466866804
31
0
0
LINE
5
189
100
AcDbEntity
8
0
100
AcDbLine
10
9.8926971004922706
20
27.725064466866804
30
0
11
9.9852936741776137
21
28.49659864137038
31
0
0
SPLINE
5
190
100
AcDbEntity
8
0
100
AcDbSpline
70
0
71
2
72
6
73
3
74
0
42
0.000000001
43
0.0000000001
44
0.0000000001
40
0
40
0
40
0
40
1
40
1
40
1
10
9.9852936741776155
20
28.49659864137038
30
0
10
9.8099793023108894
20
28.405832307428444
30
0
10
9.5070633269995763
20
28.238302103359324
30
0
0
SPLINE
5
191
100
AcDbEntity
8
0
100
AcDbSpline
70
0
71
2
72
6
73
3
74
0
42
0.000000001
43
0.0000000001
44
0.0000000001
40
0
40
0
40
0
40
1
40
1
40
1
10
9.5070633269995763
20
28.238302103359324
30
0
10
9.2114140813361889
20
28.076477276268129
30
0
10
8.9380711649900757
20
27.990896621599202
30
0
0
SPLINE
5
192
100
AcDbEntity
8
0
100
AcDbSpline
70
0
71
2
72
6
73
3
74
0
42
0.000000001
43
0.0000000001
44
0.0000000001
40
0
40
0
40
0
40
1
40
1
40
1
10
8.9380711649900757
20
27.990896621599202
30
0
10
8.6154473488860894
20
27.878345915600157
30
0
10
8.208284533078265
20
27.828558875468804
30
0
0
SPLINE
5
193
100
AcDbEntity
8
0
100
AcDbSpline
70
0
71
2
72
6
73
3
74
0
42
0.000000001
43
0.0000000001
44
0.0000000001
40
0
40
0
40
0
40
1
40
1
40
1
10
8.208284533078265
20
27.828558875468804
30
0
10
7.8003399111578187
20
27.772286911802141
30
0
10
7.2686981972454134
20
27.836087713524428
30
0
0
SPLINE
5
194
100
AcDbEntity
8
0
100
AcDbSpline
70
0
71
2
72
6
73
3
74
0
42
0.000000001
43
0.0000000001
44
0.0000000001
40
0
40
0
40
0
40
1
40
1
40
1
10
7.2686981972454134
20
27.836087713524428
30
0
10
6.289691660716743
20
27.953580066830696
30
0
10
5.6867293452473699
20
28.683628807150203
30
0
0
SPLINE
5
195
100
AcDbEntity
8
0
100
AcDbSpline
70
0
71
2
72
6
73
3
74
0
42
0.000000001
43
0.0000000001
44
0.0000000001
40
0
40
0
40
0
40
1
40
1
40
1
10
5.6867293452473699
20
28.683628807150203
30
0
10
5.0837760679989508
20
29.413677547469707
30
0
10
5.2043775693137828
20
30.418619259029136
30
0
0
SPLINE
5
196
100
AcDbEntity
8
0
100
AcDbSpline
70
0
71
2
72
6
73
3
74
0
42
0.000000001
43
0.0000000001
44
0.0000000001
40
0
40
0
40
0
40
1
40
1
40
1
10
5.2043775693137828
20
30.418619259029136
30
0
10
5.3031969581267369
20
31.242023783594224
30
0
10
5.7139931387585285
20
31.705718411921175
30
0
0
SPLINE
5
197
100
AcDbEntity
8
0
100
AcDbSpline
70
0
71
2
72
6
73
3
74
0
42
0.000000001
43
0.0000000001
44
0.0000000001
40
0
40
0
40
0
40
1
40
1
40
1
10
5.7139931387585285
20
31.705718411921175
30
0
10
6.1320515299277734
20
32.175118417226052
30
0
10
6.8219027825493228
20
32.388289377563368
30
0
0
SPLINE
5
198
100
AcDbEntity
8
0
100
AcDbSpline
70
0
71
2
72
6
73
3
74
0
42
0.000000001
43
0.0000000001
44
0.0000000001
40
0
40
0
40
0
40
1
40
1
40
1
10
6.8219027825493228
20
32.388289377563368
30
0
10
7.5182344395957035
20
32.600680791343294
30
0
10
8.457820775428555
20
32.593149693732428
30
0
0
SPLINE
5
199
100
AcDbEntity
8
0
100
AcDbSpline
70
0
71
2
72
6
73
3
74
0
42
0.000000001
43
0.0000000001
44
0.0000000001
40
0
40
0
40
0
40
1
40
1
40
1
10
8.457820775428555
20
32.593149693732428
30
0
10
9.397411630371888
20
32.585620855676801
30
0
10
10.466931430655748
20
32.50988056407278
30
0
0
LINE
5
200
100
AcDbEntity
8
0
100
AcDbLine
10
10.466931430655748
20
32.50988056407278
30
0
11
10.489499868380719
21
32.697902674602432
31
0
0
SPLINE
5
201
100
AcDbEntity
8
0
100
AcDbSpline
70
0
71
2
72
6
73
3
74
0
42
0.000000001
43
0.0000000001
44
0.0000000001
40
0
40
0
40
0
40
1
40
1
40
1
10
10.489499868380721
20
32.697902674602432
30
0
10
10.539318542285416
20
33.112845139097388
30
0
10
10.422861065278513
20
33.403048856635309
30
0
0
SPLINE
5
202
100
AcDbEntity
8
0
100
AcDbSpline
70
0
71
2
72
6
73
3
74
0
42
0.000000001
43
0.0000000001
44
0.0000000001
40
0
40
0
40
0
40
1
40
1
40
1
10
10.422861065278513
20
33.403048856635309
30
0
10
10.31291110735931
20
33.692473027615847
30
0
10
10.059271512695389
20
33.880757246553188
30
0
0
SPLINE
5
203
100
AcDbEntity
8
0
100
AcDbSpline
70
0
71
2
72
6
73
3
74
0
42
0.000000001
43
0.0000000001
44
0.0000000001
40
0
40
0
40
0
40
1
40
1
40
1
10
10.059271512695389
20
33.880757246553188
30
0
10
9.8178244780999435
20
34.061001967950951
30
0
10
9.4609774383493495
20
34.156441062126682
30
0
0
SPLINE
5
204
100
AcDbEntity
8
0
100
AcDbSpline
70
0
71
2
72
6
73
3
74
0
42
0.000000001
43
0.0000000001
44
0.0000000001
40
0
40
0
40
0
40
1
40
1
40
1
10
9.4609774383493495
20
34.156441062126682
30
0
10
9.1041303985987465
20
34.251882415857658
30
0
10
8.7086359260440016
20
34.299346633203541
30
0
0
SPLINE
5
205
100
AcDbEntity
8
0
100
AcDbSpline
70
0
71
2
72
6
73
3
74
0
42
0.000000001
43
0.0000000001
44
0.0000000001
40
0
40
0
40
0
40
1
40
1
40
1
10
8.7086359260440016
20
34.299346633203541
30
0
10
8.2288555239721539
20
34.356926879353466
30
0
10
7.6232947199781798
20
34.298042869830766
30
0
0
SPLINE
5
206
100
AcDbEntity
8
0
100
AcDbSpline
70
0
71
2
72
6
73
3
74
0
42
0.000000001
43
0.0000000001
44
0.0000000001
40
0
40
0
40
0
40
1
40
1
40
1
10
7.6232947199781798
20
34.298042869830766
30
0
10
7.0185157220968275
20
34.245664119840526
30
0
10
6.3608269787441163
20
34.081249842445686
30
0
0
LINE
5
207
100
AcDbEntity
8
0
100
AcDbLine
10
6.3608269787441163
20
34.081249842445686
30
0
11
6.2959913007224628
21
34.089034010243296
31
0
0
LINE
5
208
100
AcDbEntity
8
0
100
AcDbLine
10
6.2959913007224628
20
34.089034010243296
30
0
11
6.4446067678877359
21
35.327380999303344
31
0
0
SPLINE
5
209
100
AcDbEntity
8
0
100
AcDbSpline
70
0
71
2
72
6
73
3
74
0
42
0.000000001
43
0.0000000001
44
0.0000000001
40
0
40
0
40
0
40
1
40
1
40
1
10
6.4446067678877306
20
35.327380999303337
30
0
10
6.8128690807046688
20
35.381840799668502
30
0
10
7.5011567211009744
20
35.417620856874635
30
0
0
SPLINE
5
210
100
AcDbEntity
8
0
100
AcDbSpline
70
0
71
2
72
6
73
3
74
0
42
0.000000001
43
0.0000000001
44
0.0000000001
40
0
40
0
40
0
40
1
40
1
40
1
10
7.5011567211009744
20
35.417620856874635
30
0
10
8.1894488806077614
20
35.453403173636012
30
0
10
8.8442815461386459
20
35.374813582875888
30
0
0
SPLINE
5
211
100
AcDbEntity
8
0
100
AcDbSpline
70
0
71
2
72
6
73
3
74
0
42
0.000000001
43
0.0000000001
44
0.0000000001
40
0
40
0
40
0
40
1
40
1
40
1
10
8.8442815461386459
20
35.374813582875888
30
0
10
9.609330797106912
20
35.282998815303152
30
0
10
10.157833312211126
20
35.085635703416372
30
0
0
SPLINE
5
212
100
AcDbEntity
8
0
100
AcDbSpline
70
0
71
2
72
6
73
3
74
0
42
0.000000001
43
0.0000000001
44
0.0000000001
40
0
40
0
40
0
40
1
40
1
40
1
10
10.157833312211126
20
35.085635703416372
30
0
10
10.713593518742304
20
34.893977968507521
30
0
10
11.091969600808032
20
34.539456011097627
30
0
0
SPLINE
5
213
100
AcDbEntity
8
0
100
AcDbSpline
70
0
71
2
72
6
73
3
74
0
42
0.000000001
43
0.0000000001
44
0.0000000001
40
0
40
0
40
0
40
1
40
1
40
1
10
11.091969600808032
20
34.539456011097627
30
0
10
11.464633527230115
20
34.192196264225188
30
0
10
11.621790113197985
20
33.693223199955121
30
0
0
SPLINE
5
214
100
AcDbEntity
8
0
100
AcDbSpline
70
0
71
2
72
6
73
3
74
0
42
0.000000001
43
0.0000000001
44
0.0000000001
40
0
40
0
40
0
40
1
40
1
40
1
10
11.621790113197985
20
33.693223199955121
30
0
10
11.778946699165846
20
33.194252395240284
30
0
10
11.694909320725015
20
32.494034303183184
30
0
0
LINE
5
215
100
AcDbEntity
8
0
100
AcDbLine
10
11.694909320725017
20
32.494034303183184
30
0
11
11.105111174076798
21
27.57956040726534
31
0
0
LINE
5
216
100
AcDbEntity
8
0
100
AcDbLine
10
10.106667943384107
20
29.508023016909874
30
0
11
10.34865727123686
21
31.524389104008797
31
0
0
SPLINE
5
217
100
AcDbEntity
8
0
100
AcDbSpline
70
0
71
2
72
6
73
3
74
0
42
0.000000001
43
0.0000000001
44
0.0000000001
40
0
40
0
40
0
40
1
40
1
40
1
10
10.348657271236865
20
31.524389104008801
30
0
10
9.7871849090620344
20
31.558885733839304
30
0
10
9.0208341542762316
20
31.585089795943482
30
0
0
SPLINE
5
218
100
AcDbEntity
8
0
100
AcDbSpline
70
0
71
2
72
6
73
3
74
0
42
0.000000001
43
0.0000000001
44
0.0000000001
40
0
40
0
40
0
40
1
40
1
40
1
10
9.0208341542762316
20
31.585089795943482
30
0
10
8.2609728421362139
20
31.610512051935032
30
0
10
7.8053109326831382
20
31.540237624453624
30
0
0
SPLINE
5
219
100
AcDbEntity
8
0
100
AcDbSpline
70
0
71
2
72
6
73
3
74
0
42
0.000000001
43
0.0000000001
44
0.0000000001
40
0
40
0
40
0
40
1
40
1
40
1
10
7.8053109326831382
20
31.540237624453624
30
0
10
7.2622539457043978
20
31.45414179119026
30
0
10
6.8999478204969034
20
31.175355606273918
30
0
0
SPLINE
5
220
100
AcDbEntity
8
0
100
AcDbSpline
70
0
71
2
72
6
73
3
74
0
42
0.000000001
43
0.0000000001
44
0.0000000001
40
0
40
0
40
0
40
1
40
1
40
1
10
6.8999478204969034
20
31.175355606273918
30
0
10
6.5384280205125034
20
30.903052085337642
30
0
10
6.47228631956283
20
30.351955600819309
30
0
0
SPLINE
5
221
100
AcDbEntity
8
0
100
AcDbSpline
70
0
71
2
72
6
73
3
74
0
42
0.000000001
43
0.0000000001
44
0.0000000001
40
0
40
0
40
0
40
1
40
1
40
1
10
6.47228631956283
20
30.351955600819309
30
0
10
6.3975944615896019
20
29.729540774299252
30
0
10
6.7355064284391997
20
29.366719470497312
30
0
0
SPLINE
5
222
100
AcDbEntity
8
0
100
AcDbSpline
70
0
71
2
72
6
73
3
74
0
42
0.000000001
43
0.0000000001
44
0.0000000001
40
0
40
0
40
0
40
1
40
1
40
1
10
6.7355064284391997
20
29.366719470497312
30
0
10
7.0742002014014105
20
29.010383090230679
30
0
10
7.8457388950154527
20
28.917788776100572
30
0
0
SPLINE
5
223
100
AcDbEntity
8
0
100
AcDbSpline
70
0
71
2
72
6
73
3
74
0
42
0.000000001
43
0.0000000001
44
0.0000000001
40
0
40
0
40
0
40
1
40
1
40
1
10
7.8457388950154527
20
28.917788776100572
30
0
10
8.4876062325862023
20
28.840758278455205
30
0
10
9.048816486353326
20
29.023328082193668
30
0
0
SPLINE
5
224
100
AcDbEntity
8
0
100
AcDbSpline
70
0
71
2
72
6
73
3
74
0
42
0.000000001
43
0.0000000001
44
0.0000000001
40
0
40
0
40
0
40
1
40
1
40
1
10
9.048816486353326
20
29.023328082193668
30
0
10
9.6108040271225992
20
29.212380549912208
30
0
10
10.106667943384107
20
29.508023016909874
30
0
0
LWPOLYLINE
5
225
100
AcDbEntity
8
0
100
AcDbPolyline
90
12
70
1
43
0.0
10
15.86424064732828
20
31.423156510200819
10
17.239894029583482
20
32.056460133416572
10
17.490695622867488
20
33.063984516613935
10
16.110306212831802
20
32.411671255174291
10
17.14350140309698
20
36.562164669751823
10
15.952218690105557
20
36.858715477955485
10
14.702919636803129
20
31.840103200192583
10
13.389006341892449
20
31.238537289860776
10
13.138204748608439
20
30.231012906663423
10
14.456854071299608
20
30.851588455219108
10
13.497799407529392
20
26.998915718889439
10
14.689082120520816
20
26.70236491068578
0
LINE
5
226
100
AcDbEntity
8
0
100
AcDbLine
10
24.086671779051791
20
27.160336085592892
30
0
11
19.072818124621765
21
29.095114152129824
31
0
0
SPLINE
5
227
100
AcDbEntity
8
0
100
AcDbSpline
70
0
71
2
72
6
73
3
74
0
42
0.000000001
43
0.0000000001
44
0.0000000001
40
0
40
0
40
0
40
1
40
1
40
1
10
19.072818124621769
20
29.09511415212982
30
0
10
18.830684185233729
20
28.467622104988219
30
0
10
18.838520322801831
20
27.925647444968853
30
0
0
SPLINE
5
228
100
AcDbEntity
8
0
100
AcDbSpline
70
0
71
2
72
6
73
3
74
0
42
0.000000001
43
0.0000000001
44
0.0000000001
40
0
40
0
40
0
40
1
40
1
40
1
10
18.838520322801831
20
27.925647444968853
30
0
10
18.848706397818269
20
27.389766805428483
30
0
10
19.062496476291003
20
26.964301592186516
30
0
0
SPLINE
5
229
100
AcDbEntity
8
0
100
AcDbSpline
70
0
71
2
72
6
73
3
74
0
42
0.000000001
43
0.0000000001
44
0.0000000001
40
0
40
0
40
0
40
1
40
1
40
1
10
19.062496476291003
20
26.964301592186516
30
0
10
19.266443932143602
20
26.549632533875446
30
0
10
19.64256045897055
20
26.236507887995309
30
0
0
SPLINE
5
230
100
AcDbEntity
8
0
100
AcDbSpline
70
0
71
2
72
6
73
3
74
0
42
0.000000001
43
0.0000000001
44
0.0000000001
40
0
40
0
40
0
40
1
40
1
40
1
10
19.64256045897055
20
26.236507887995309
30
0
10
20.024777784942202
20
25.921033304666842
30
0
10
20.548705377269407
20
25.718857340121449
30
0
0
SPLINE
5
231
100
AcDbEntity
8
0
100
AcDbSpline
70
0
71
2
72
6
73
3
74
0
42
0.000000001
43
0.0000000001
44
0.0000000001
40
0
40
0
40
0
40
1
40
1
40
1
10
20.548705377269407
20
25.718857340121449
30
0
10
21.243211313682842
20
25.450856012359818
30
0
10
22.049592349078935
20
25.454652065160978
30
0
0
SPLINE
5
232
100
AcDbEntity
8
0
100
AcDbSpline
70
0
71
2
72
6
73
3
74
0
42
0.000000001
43
0.0000000001
44
0.0000000001
40
0
40
0
40
0
40
1
40
1
40
1
10
22.049592349078935
20
25.454652065160978
30
0
10
22.864424121068083
20
25.462185422327082
30
0
10
23.266380921605752
20
25.615051112896499
30
0
0
LINE
5
233
100
AcDbEntity
8
0
100
AcDbLine
10
23.266380921605755
20
25.615051112896499
30
0
11
23.32729853084335
21
25.591542700192193
31
0
0
LINE
5
234
100
AcDbEntity
8
0
100
AcDbLine
10
23.32729853084335
20
25.591542700192193
30
0
11
22.845362513073702
21
24.342650366832746
31
0
0
SPLINE
5
235
100
AcDbEntity
8
0
100
AcDbSpline
70
0
71
2
72
6
73
3
74
0
42
0.000000001
43
0.0000000001
44
0.0000000001
40
0
40
0
40
0
40
1
40
1
40
1
10
22.845362513073706
20
24.34265036683275
30
0
10
22.172575421615448
20
24.322298552797026
30
0
10
21.505979511511455
20
24.390546159229242
30
0
0
SPLINE
5
236
100
AcDbEntity
8
0
100
AcDbSpline
70
0
71
2
72
6
73
3
74
0
42
0.000000001
43
0.0000000001
44
0.0000000001
40
0
40
0
40
0
40
1
40
1
40
1
10
21.505979511511455
20
24.390546159229242
30
0
10
20.839383601407462
20
24.458793765661454
30
0
10
20.175336469612823
20
24.715040887070934
30
0
0
SPLINE
5
237
100
AcDbEntity
8
0
100
AcDbSpline
70
0
71
2
72
6
73
3
74
0
42
0.000000001
43
0.0000000001
44
0.0000000001
40
0
40
0
40
0
40
1
40
1
40
1
10
20.175336469612823
20
24.715040887070934
30
0
10
18.481718474156015
20
25.36858786567095
30
0
10
17.883975731288231
20
26.649150125257187
30
0
0
SPLINE
5
238
100
AcDbEntity
8
0
100
AcDbSpline
70
0
71
2
72
6
73
3
74
0
42
0.000000001
43
0.0000000001
44
0.0000000001
40
0
40
0
40
0
40
1
40
1
40
1
10
17.883975731288231
20
26.649150125257187
30
0
10
17.288582925868788
20
27.935804145767182
30
0
10
17.939768669244273
20
29.623332639855473
30
0
0
SPLINE
5
239
100
AcDbEntity
8
0
100
AcDbSpline
70
0
71
2
72
6
73
3
74
0
42
0.000000001
43
0.0000000001
44
0.0000000001
40
0
40
0
40
0
40
1
40
1
40
1
10
17.939768669244273
20
29.623332639855473
30
0
10
18.583904600274757
20
31.292585851172483
30
0
10
19.870133824399865
20
31.923141855217875
30
0
0
SPLINE
5
240
100
AcDbEntity
8
0
100
AcDbSpline
70
0
71
2
72
6
73
3
74
0
42
0.000000001
43
0.0000000001
44
0.0000000001
40
0
40
0
40
0
40
1
40
1
40
1
10
19.870133824399865
20
31.923141855217875
30
0
10
21.162454809448725
20
32.55134792181493
30
0
10
22.648934857055778
20
31.977730450231647
30
0
0
SPLINE
5
241
100
AcDbEntity
8
0
100
AcDbSpline
70
0
71
2
72
6
73
3
74
0
42
0.000000001
43
0.0000000001
44
0.0000000001
40
0
40
0
40
0
40
1
40
1
40
1
10
22.648934857055778
20
31.977730450231647
30
0
10
24.025763208035144
20
31.446429929160292
30
0
10
24.458684953565104
20
30.355457911439423
30
0
0
SPLINE
5
242
100
AcDbEntity
8
0
100
AcDbSpline
70
0
71
2
72
6
73
3
74
0
42
0.000000001
43
0.0000000001
44
0.0000000001
40
0
40
0
40
0
40
1
40
1
40
1
10
24.458684953565104
20
30.355457911439423
30
0
10
24.897707498239782
20
29.262133696714979
30
0
10
24.326437704549583
20
27.781738631365972
30
0
0
LINE
5
243
100
AcDbEntity
8
0
100
AcDbLine
10
24.326437704549583
20
27.781738631365968
30
0
11
24.086671779051791
21
27.160336085592892
31
0
0
SPLINE
5
244
100
AcDbEntity
8
0
100
AcDbSpline
70
0
71
2
72
6
73
3
74
0
42
0.000000001
43
0.0000000001
44
0.0000000001
40
0
40
0
40
0
40
1
40
1
40
1
10
23.310333790110569
20
28.467818686293992
30
0
10
23.652168344854687
20
29.371810248450288
30
0
10
23.39177719913728
20
30.03923993443739
30
0
0
SPLINE
5
245
100
AcDbEntity
8
0
100
AcDbSpline
70
0
71
2
72
6
73
3
74
0
42
0.000000001
43
0.0000000001
44
0.0000000001
40
0
40
0
40
0
40
1
40
1
40
1
10
23.39177719913728
20
30.03923993443739
30
0
10
23.137468776122674
20
30.704319682976156
30
0
10
22.223641370011951
20
31.056952652206423
30
0
0
SPLINE
5
246
100
AcDbEntity
8
0
100
AcDbSpline
70
0
71
2
72
6
73
3
74
0
42
0.000000001
43
0.0000000001
44
0.0000000001
40
0
40
0
40
0
40
1
40
1
40
1
10
22.223641370011951
20
31.056952652206423
30
0
10
21.303722202977468
20
31.411935558885023
30
0
10
20.546201790064835
20
31.081315176790987
30
0
0
SPLINE
5
247
100
AcDbEntity
8
0
100
AcDbSpline
70
0
71
2
72
6
73
3
74
0
42
0.000000001
43
0.0000000001
44
0.0000000001
40
0
40
0
40
0
40
1
40
1
40
1
10
20.546201790064835
20
31.081315176790987
30
0
10
19.794773138075954
20
30.748342597693377
30
0
10
19.411344690496311
20
29.972386473587505
30
0
0
LINE
5
248
100
AcDbEntity
8
0
100
AcDbLine
10
19.411344690496314
20
29.972386473587505
30
0
11
23.310333790110569
21
28.467818686293992
31
0
0
LINE
5
249
100
AcDbEntity
8
0
100
AcDbLine
10
33.439341479435768
20
17.268452901691358
30
0
11
32.419830155696665
21
17.952347966703474
31
0
0
LINE
5
250
100
AcDbEntity
8
0
100
AcDbLine
10
32.419830155696665
20
17.952347966703474
30
0
11
34.73344299401279
21
21.401312747185418
31
0
0
SPLINE
5
251
100
AcDbEntity
8
0
100
AcDbSpline
70
0
71
2
72
6
73
3
74
0
42
0.000000001
43
0.0000000001
44
0.0000000001
40
0
40
0
40
0
40
1
40
1
40
1
10
34.733442994012776
20
21.401312747185418
30
0
10
34.9953615990716
20
21.791761632891962
30
0
10
35.201125737336199
20
22.180561043274199
30
0
0
SPLINE
5
252
100
AcDbEntity
8
0
100
AcDbSpline
70
0
71
2
72
6
73
3
74
0
42
0.000000001
43
0.0000000001
44
0.0000000001
40
0
40
0
40
0
40
1
40
1
40
1
10
35.201125737336199
20
22.180561043274199
30
0
10
35.412312808173851
20
22.565722569721991
30
0
10
35.443946581516812
20
22.859030916157998
30
0
0
SPLINE
5
253
100
AcDbEntity
8
0
100
AcDbSpline
70
0
71
2
72
6
73
3
74
0
42
0.000000001
43
0.0000000001
44
0.0000000001
40
0
40
0
40
0
40
1
40
1
40
1
10
35.443946581516812
20
22.859030916157998
30
0
10
35.475634584185514
20
23.175883828182123
30
0
10
35.322490968321731
20
23.451610575305153
30
0
0
SPLINE
5
254
100
AcDbEntity
8
0
100
AcDbSpline
70
0
71
2
72
6
73
3
74
0
42
0.000000001
43
0.0000000001
44
0.0000000001
40
0
40
0
40
0
40
1
40
1
40
1
10
35.322490968321731
20
23.451610575305153
30
0
10
35.169338314236981
20
23.727337322428184
30
0
10
34.73008077581747
20
24.021994623341744
30
0
0
SPLINE
5
255
100
AcDbEntity
8
0
100
AcDbSpline
70
0
71
2
72
6
73
3
74
0
42
0.000000001
43
0.0000000001
44
0.0000000001
40
0
40
0
40
0
40
1
40
1
40
1
10
34.73008077581747
20
24.021994623341744
30
0
10
34.301669102544139
20
24.309376156386424
30
0
10
33.727751110114085
20
24.379842646063125
30
0
0
SPLINE
5
256
100
AcDbEntity
8
0
100
AcDbSpline
70
0
71
2
72
6
73
3
74
0
42
0.000000001
43
0.0000000001
44
0.0000000001
40
0
40
0
40
0
40
1
40
1
40
1
10
33.727751110114085
20
24.379842646063125
30
0
10
33.157466482507999
20
24.455732068312908
30
0
10
32.507157446565159
20
24.412319233510157
30
0
0
SPLINE
5
257
100
AcDbEntity
8
0
100
AcDbSpline
70
0
71
2
72
6
73
3
74
0
42
0.000000001
43
0.0000000001
44
0.0000000001
40
0
40
0
40
0
40
1
40
1
40
1
10
32.507157446565159
20
24.412319233510157
30
0
10
32.439759432902733
20
24.276678132525987
30
0
10
32.337835415191677
20
24.101293714446854
30
0
0
SPLINE
5
258
100
AcDbEntity
8
0
100
AcDbSpline
70
0
71
2
72
6
73
3
74
0
42
0.000000001
43
0.0000000001
44
0.0000000001
40
0
40
0
40
0
40
1
40
1
40
1
10
32.337835415191677
20
24.101293714446854
30
0
10
32.239553800525549
20
23.931332228940796
30
0
10
32.130417282492317
20
23.768644251748388
30
0
0
LINE
5
259
100
AcDbEntity
8
0
100
AcDbLine
10
32.130417282492324
20
23.768644251748384
30
0
11
29.52942517068675
21
19.891270057548333
31
0
0
LINE
5
260
100
AcDbEntity
8
0
100
AcDbLine
10
29.52942517068675
20
19.891270057548333
30
0
11
28.509922885168603
21
20.575167382115687
31
0
0
LINE
5
261
100
AcDbEntity
8
0
100
AcDbLine
10
28.509922885168603
20
20.575167382115687
30
0
11
30.823526685263776
21
24.024132162597635
31
0
0
SPLINE
5
262
100
AcDbEntity
8
0
100
AcDbSpline
70
0
71
2
72
6
73
3
74
0
42
0.000000001
43
0.0000000001
44
0.0000000001
40
0
40
0
40
0
40
1
40
1
40
1
10
30.823526685263776
20
24.024132162597635
30
0
10
31.092721058191479
20
24.425426913450341
30
0
10
31.294851831632098
20
24.808803391259495
30
0
0
SPLINE
5
263
100
AcDbEntity
8
0
100
AcDbSpline
70
0
71
2
72
6
73
3
74
0
42
0.000000001
43
0.0000000001
44
0.0000000001
40
0
40
0
40
0
40
1
40
1
40
1
10
31.294851831632098
20
24.808803391259495
30
0
10
31.506038902469751
20
25.193964917707284
30
0
10
31.537672675812729
20
25.487273264143294
30
0
0
SPLINE
5
264
100
AcDbEntity
8
0
100
AcDbSpline
70
0
71
2
72
6
73
3
74
0
42
0.000000001
43
0.0000000001
44
0.0000000001
40
0
40
0
40
0
40
1
40
1
40
1
10
31.537672675812729
20
25.487273264143294
30
0
10
31.569360678481431
20
25.804126176167422
30
0
10
31.412574659572723
20
26.07442999071737
30
0
0
SPLINE
5
265
100
AcDbEntity
8
0
100
AcDbSpline
70
0
71
2
72
6
73
3
74
0
42
0.000000001
43
0.0000000001
44
0.0000000001
40
0
40
0
40
0
40
1
40
1
40
1
10
31.412574659572723
20
26.07442999071737
30
0
10
31.259412967267011
20
26.3501567378404
30
0
10
30.820164467068469
20
26.64481403875396
30
0
0
SPLINE
5
266
100
AcDbEntity
8
0
100
AcDbSpline
70
0
71
2
72
6
73
3
74
0
42
0.000000001
43
0.0000000001
44
0.0000000001
40
0
40
0
40
0
40
1
40
1
40
1
10
30.820164467068469
20
26.64481403875396
30
0
10
30.402598658941287
20
26.924919803929757
30
0
10
29.841379366953191
20
27.002594274818176
30
0
0
SPLINE
5
267
100
AcDbEntity
8
0
100
AcDbSpline
70
0
71
2
72
6
73
3
74
0
42
0.000000001
43
0.0000000001
44
0.0000000001
40
0
40
0
40
0
40
1
40
1
40
1
10
29.841379366953191
20
27.002594274818176
30
0
10
29.28558300753819
20
27.076630861772159
30
0
10
28.653386566389436
20
27.036783605136208
30
0
0
LINE
5
268
100
AcDbEntity
8
0
100
AcDbLine
10
28.653386566389436
20
27.036783605136208
30
0
11
25.619508861937721
21
22.514082694294832
31
0
0
LINE
5
269
100
AcDbEntity
8
0
100
AcDbLine
10
25.619508861937721
20
22.514082694294832
30
0
11
24.599997538198629
21
23.197980018862189
31
0
0
LINE
5
270
100
AcDbEntity
8
0
100
AcDbLine
10
24.599997538198629
20
23.197980018862189
30
0
11
28.663364762323909
21
29.255361809664343
31
0
0
LINE
5
271
100
AcDbEntity
8
0
100
AcDbLine
10
28.663364762323909
20
29.255361809664343
30
0
11
29.682867047842056
21
28.571464485096989
31
0
0
LINE
5
272
100
AcDbEntity
8
0
100
AcDbLine
10
29.682867047842056
20
28.571464485096989
30
0
11
29.231787516413231
21
27.899025365145505
31
0
0
SPLINE
5
273
100
AcDbEntity
8
0
100
AcDbSpline
70
0
71
2
72
6
73
3
74
0
42
0.000000001
43
0.0000000001
44
0.0000000001
40
0
40
0
40
0
40
1
40
1
40
1
10
29.231787516413235
20
27.899025365145505
30
0
10
29.974557552727088
20
27.974774694970481
30
0
10
30.595501408786703
20
27.880628066391328
30
0
0
SPLINE
5
274
100
AcDbEntity
8
0
100
AcDbSpline
70
0
71
2
72
6
73
3
74
0
42
0.000000001
43
0.0000000001
44
0.0000000001
40
0
40
0
40
0
40
1
40
1
40
1
10
30.595501408786703
20
27.880628066391328
30
0
10
31.221868197419393
20
27.782845813432978
30
0
10
31.75872948393339
20
27.422708861254712
30
0
0
SPLINE
5
275
100
AcDbEntity
8
0
100
AcDbSpline
70
0
71
2
72
6
73
3
74
0
42
0.000000001
43
0.0000000001
44
0.0000000001
40
0
40
0
40
0
40
1
40
1
40
1
10
31.75872948393339
20
27.422708861254712
30
0
10
32.376943797264545
20
27.008005909615061
30
0
10
32.630737041684711
20
26.460323613062528
30
0
0
SPLINE
5
276
100
AcDbEntity
8
0
100
AcDbSpline
70
0
71
2
72
6
73
3
74
0
42
0.000000001
43
0.0000000001
44
0.0000000001
40
0
40
0
40
0
40
1
40
1
40
1
10
32.630737041684711
20
26.460323613062528
30
0
10
32.889962256898912
20
25.909005692130794
30
0
10
32.792241011931992
20
25.306185728641466
30
0
0
SPLINE
5
277
100
AcDbEntity
8
0
100
AcDbSpline
70
0
71
2
72
6
73
3
74
0
42
0.000000001
43
0.0000000001
44
0.0000000001
40
0
40
0
40
0
40
1
40
1
40
1
10
32.792241011931992
20
25.306185728641466
30
0
10
33.759683144748571
20
25.412079784907057
30
0
10
34.422220893643711
20
25.297893160915134
30
0
0
SPLINE
5
278
100
AcDbEntity
8
0
100
AcDbSpline
70
0
71
2
72
6
73
3
74
0
42
0.000000001
43
0.0000000001
44
0.0000000001
40
0
40
0
40
0
40
1
40
1
40
1
10
34.422220893643711
20
25.297893160915134
30
0
10
35.088392007362813
20
25.189129469496294
30
0
10
35.668645792682398
20
24.799889445842496
30
0
0
SPLINE
5
279
100
AcDbEntity
8
0
100
AcDbSpline
70
0
71
2
72
6
73
3
74
0
42
0.000000001
43
0.0000000001
44
0.0000000001
40
0
40
0
40
0
40
1
40
1
40
1
10
35.668645792682398
20
24.799889445842496
30
0
10
36.666456347908237
20
24.130543657012904
30
0
10
36.730817519329747
20
23.206695123418175
30
0
0
SPLINE
5
280
100
AcDbEntity
8
0
100
AcDbSpline
70
0
71
2
72
6
73
3
74
0
42
0.000000001
43
0.0000000001
44
0.0000000001
40
0
40
0
40
0
40
1
40
1
40
1
10
36.730817519329747
20
23.206695123418175
30
0
10
36.804244026369247
20
22.284631638462088
30
0
10
36.076694354143832
20
21.200051902511738
30
0
0
LINE
5
281
100
AcDbEntity
8
0
100
AcDbLine
10
36.076694354143832
20
21.200051902511738
30
0
11
33.439341479435768
21
17.268452901691358
31
0
0
ENDSEC
0
SECTION
2
OBJECTS
0
DICTIONARY
5
C
100
AcDbDictionary
3
ACAD_GROUP
350
D
3
ACAD_MLINESTYLE
350
17
0
DICTIONARY
5
D
100
AcDbDictionary
0
DICTIONARY
5
1A
330
C
100
AcDbDictionary
0
DICTIONARY
5
17
100
AcDbDictionary
0
ENDSEC
0
EOF
