  0
SECTION
  2
HEADER
  9
$ACADVER
  1
AC1014
  9
$HANDSEED
  5
FFFF
  9
$MEASUREMENT
 70
     1
  0
ENDSEC
  0
SECTION
  2
TABLES
  0
TABLE
  2
VPORT
  5
8
330
0
100
AcDbSymbolTable
 70
     4
  0
VPORT
  5
2E
330
8
100
AcDbSymbolTableRecord
100
AcDbViewportTableRecord
  2
*ACTIVE
 70
     0
 10
0.0
 20
0.0
 11
1.0
 21
1.0
 12
210.0
 22
148.5
 13
0.0
 23
0.0
 14
10.0
 24
10.0
 15
10.0
 25
10.0
 16
0.0
 26
0.0
 36
1.0
 17
0.0
 27
0.0
 37
0.0
 40
341.0
 41
1.24
 42
50.0
 43
0.0
 44
0.0
 50
0.0
 51
0.0
 71
     0
 72
   100
 73
     1
 74
     3
 75
     0
 76
     0
 77
     0
 78
     0
  0
ENDTAB
  0
TABLE
  2
LTYPE
  5
5
330
0
100
AcDbSymbolTable
 70
     1
  0
LTYPE
  5
14
330
5
100
AcDbSymbolTableRecord
100
AcDbLinetypeTableRecord
  2
BYBLOCK
 70
     0
  3

 72
    65
 73
     0
 40
0.0
  0
LTYPE
  5
15
330
5
100
AcDbSymbolTableRecord
100
AcDbLinetypeTableRecord
  2
BYLAYER
 70
     0
  3

 72
    65
 73
     0
 40
0.0
  0
LTYPE
  5
16
330
5
100
AcDbSymbolTableRecord
100
AcDbLinetypeTableRecord
  2
CONTINUOUS
 70
     0
  3
Solid line
 72
    65
 73
     0
 40
0.0
  0
ENDTAB
  0
TABLE
  2
LAYER
  5
2
100
AcDbSymbolTable
 70
2
  0
LAYER
  5
50
100
AcDbSymbolTableRecord
100
AcDbLayerTableRecord
  2
0
 70
0
  6
CONTINUOUS
  0
LAYER
  5
51
100
AcDbSymbolTableRecord
100
AcDbLayerTableRecord
  2
Layer_1
 70
0
  6
CONTINUOUS
  0
ENDTAB
  0
TABLE
  2
STYLE
  5
3
330
0
100
AcDbSymbolTable
 70
     1
  0
STYLE
  5
11
330
3
100
AcDbSymbolTableRecord
100
AcDbTextStyleTableRecord
  2
STANDARD
 70
     0
 40
0.0
 41
1.0
 50
0.0
 71
     0
 42
2.5
  3
txt
  4

  0
ENDTAB
  0
TABLE
  2
VIEW
  5
6
330
0
100
AcDbSymbolTable
 70
     0
  0
ENDTAB
  0
TABLE
  2
UCS
  5
7
330
0
100
AcDbSymbolTable
 70
     0
  0
ENDTAB
  0
TABLE
  2
APPID
  5
9
330
0
100
AcDbSymbolTable
 70
     2
  0
APPID
  5
12
330
9
100
AcDbSymbolTableRecord
100
AcDbRegAppTableRecord
  2
ACAD
 70
     0
  0
ENDTAB
  0
TABLE
  2
DIMSTYLE
  5
A
330
0
100
AcDbSymbolTable
 70
     1
  0
DIMSTYLE
105
27
330
A
100
AcDbSymbolTableRecord
100
AcDbDimStyleTableRecord
  2
ISO-25
 70
     0
  3

  4

  5

  6

  7

 40
1.0
 41
2.5
 42
0.625
 43
3.75
 44
1.25
 45
0.0
 46
0.0
 47
0.0
 48
0.0
140
2.5
141
2.5
142
0.0
143
0.03937007874016
144
1.0
145
0.0
146
1.0
147
0.625
 71
     0
 72
     0
 73
     0
 74
     0
 75
     0
 76
     0
 77
     1
 78
     8
170
     0
171
     3
172
     1
173
     0
174
     0
175
     0
176
     0
177
     0
178
     0
270
     2
271
     2
272
     2
273
     2
274
     3
340
11
275
     0
280
     0
281
     0
282
     0
283
     0
284
     8
285
     0
286
     0
287
     3
288
     0
  0
ENDTAB
  0
TABLE
  2
BLOCK_RECORD
  5
1
330
0
100
AcDbSymbolTable
 70
     1
  0
BLOCK_RECORD
  5
1F
330
1
100
AcDbSymbolTableRecord
100
AcDbBlockTableRecord
  2
*MODEL_SPACE
  0
BLOCK_RECORD
  5
1B
330
1
100
AcDbSymbolTableRecord
100
AcDbBlockTableRecord
  2
*PAPER_SPACE
  0
ENDTAB
  0
ENDSEC
  0
SECTION
  2
BLOCKS
  0
BLOCK
  5
20
330
1F
100
AcDbEntity
  8
0
100
AcDbBlockBegin
  2
*MODEL_SPACE
 70
     0
 10
0.0
 20
0.0
 30
0.0
  3
*MODEL_SPACE
  1

  0
ENDBLK
  5
21
330
1F
100
AcDbEntity
  8
0
100
AcDbBlockEnd
  0
BLOCK
  5
1C
330
1B
100
AcDbEntity
 67
     1
  8
0
100
AcDbBlockBegin
  2
*PAPER_SPACE
  1

  0
ENDBLK
  5
1D
330
1B
100
AcDbEntity
 67
     1
  8
0
100
AcDbBlockEnd
  0
ENDSEC
  0
SECTION
  2
ENTITIES
  0
SPLINE
  5
100
100
AcDbEntity
  8
Layer_1
 62
7
100
AcDbSpline
 70
8
 71
3
 72
8
 73
4
 74
0
 40
0
 40
0
 40
0
 40
0
 40
1
 40
1
 40
1
 40
1
 10
336.392460
 20
675.476135
 30
0.0
 10
336.392460
 20
731.175810
 30
0.0
 10
306.677037
 20
782.644432
 30
0.0
 10
258.439703
 20
810.494270
 30
0.0
  0
SPLINE
  5
101
100
AcDbEntity
  8
Layer_1
 62
7
100
AcDbSpline
 70
8
 71
3
 72
8
 73
4
 74
0
 40
0
 40
0
 40
0
 40
0
 40
1
 40
1
 40
1
 40
1
 10
258.439703
 20
810.494270
 30
0.0
 10
210.202370
 20
838.344107
 30
0.0
 10
150.771524
 20
838.344107
 30
0.0
 10
102.534190
 20
810.494270
 30
0.0
  0
SPLINE
  5
102
100
AcDbEntity
  8
Layer_1
 62
7
100
AcDbSpline
 70
8
 71
3
 72
8
 73
4
 74
0
 40
0
 40
0
 40
0
 40
0
 40
1
 40
1
 40
1
 40
1
 10
102.534190
 20
810.494270
 30
0.0
 10
54.296857
 20
782.644432
 30
0.0
 10
24.581434
 20
731.175810
 30
0.0
 10
24.581434
 20
675.476135
 30
0.0
  0
SPLINE
  5
103
100
AcDbEntity
  8
Layer_1
 62
7
100
AcDbSpline
 70
8
 71
3
 72
8
 73
4
 74
0
 40
0
 40
0
 40
0
 40
0
 40
1
 40
1
 40
1
 40
1
 10
24.581434
 20
675.476135
 30
0.0
 10
24.581434
 20
619.776460
 30
0.0
 10
54.296857
 20
568.307837
 30
0.0
 10
102.534190
 20
540.458000
 30
0.0
  0
SPLINE
  5
104
100
AcDbEntity
  8
Layer_1
 62
7
100
AcDbSpline
 70
8
 71
3
 72
8
 73
4
 74
0
 40
0
 40
0
 40
0
 40
0
 40
1
 40
1
 40
1
 40
1
 10
102.534190
 20
540.458000
 30
0.0
 10
150.771524
 20
512.608162
 30
0.0
 10
210.202370
 20
512.608162
 30
0.0
 10
258.439703
 20
540.458000
 30
0.0
  0
SPLINE
  5
105
100
AcDbEntity
  8
Layer_1
 62
7
100
AcDbSpline
 70
8
 71
3
 72
8
 73
4
 74
0
 40
0
 40
0
 40
0
 40
0
 40
1
 40
1
 40
1
 40
1
 10
258.439703
 20
540.458000
 30
0.0
 10
306.677037
 20
568.307837
 30
0.0
 10
336.392460
 20
619.776460
 30
0.0
 10
336.392460
 20
675.476135
 30
0.0
  0
SPLINE
  5
106
100
AcDbEntity
  8
Layer_1
 62
7
100
AcDbSpline
 70
8
 71
3
 72
8
 73
4
 74
0
 40
0
 40
0
 40
0
 40
0
 40
1
 40
1
 40
1
 40
1
 10
223.006631
 20
675.476135
 30
0.0
 10
223.006631
 20
690.666955
 30
0.0
 10
214.902425
 20
704.703851
 30
0.0
 10
201.746789
 20
712.299262
 30
0.0
  0
SPLINE
  5
107
100
AcDbEntity
  8
Layer_1
 62
7
100
AcDbSpline
 70
8
 71
3
 72
8
 73
4
 74
0
 40
0
 40
0
 40
0
 40
0
 40
1
 40
1
 40
1
 40
1
 10
201.746789
 20
712.299262
 30
0.0
 10
188.591153
 20
719.894672
 30
0.0
 10
172.382741
 20
719.894672
 30
0.0
 10
159.227105
 20
712.299262
 30
0.0
  0
SPLINE
  5
108
100
AcDbEntity
  8
Layer_1
 62
7
100
AcDbSpline
 70
8
 71
3
 72
8
 73
4
 74
0
 40
0
 40
0
 40
0
 40
0
 40
1
 40
1
 40
1
 40
1
 10
159.227105
 20
712.299262
 30
0.0
 10
146.071469
 20
704.703851
 30
0.0
 10
137.967263
 20
690.666955
 30
0.0
 10
137.967263
 20
675.476135
 30
0.0
  0
SPLINE
  5
109
100
AcDbEntity
  8
Layer_1
 62
7
100
AcDbSpline
 70
8
 71
3
 72
8
 73
4
 74
0
 40
0
 40
0
 40
0
 40
0
 40
1
 40
1
 40
1
 40
1
 10
137.967263
 20
675.476135
 30
0.0
 10
137.967263
 20
660.285315
 30
0.0
 10
146.071469
 20
646.248418
 30
0.0
 10
159.227105
 20
638.653008
 30
0.0
  0
SPLINE
  5
10a
100
AcDbEntity
  8
Layer_1
 62
7
100
AcDbSpline
 70
8
 71
3
 72
8
 73
4
 74
0
 40
0
 40
0
 40
0
 40
0
 40
1
 40
1
 40
1
 40
1
 10
159.227105
 20
638.653008
 30
0.0
 10
172.382741
 20
631.057598
 30
0.0
 10
188.591153
 20
631.057598
 30
0.0
 10
201.746789
 20
638.653008
 30
0.0
  0
SPLINE
  5
10b
100
AcDbEntity
  8
Layer_1
 62
7
100
AcDbSpline
 70
8
 71
3
 72
8
 73
4
 74
0
 40
0
 40
0
 40
0
 40
0
 40
1
 40
1
 40
1
 40
1
 10
201.746789
 20
638.653008
 30
0.0
 10
214.902425
 20
646.248418
 30
0.0
 10
223.006631
 20
660.285315
 30
0.0
 10
223.006631
 20
675.476135
 30
0.0
  0
LWPOLYLINE
  5
10c
100
AcDbEntity
  8
Layer_1
 62
7
100
AcDbPolyline
 90
1
 70
1
 10
336.392460
 20
675.476135
 30
0.0
  0
LWPOLYLINE
  5
10d
100
AcDbEntity
  8
Layer_1
 62
7
100
AcDbPolyline
 90
1
 70
1
 10
223.006631
 20
675.476135
 30
0.0
  0
LWPOLYLINE
  5
10e
100
AcDbEntity
  8
Layer_1
 62
7
100
AcDbPolyline
 90
10
 70
1
 10
94.625903
 20
722.166280
 30
0.0
 10
108.046845
 20
732.098230
 30
0.0
 10
106.296079
 20
734.464030
 30
0.0
 10
96.312210
 20
727.075630
 30
0.0
 10
96.970035
 20
746.537155
 30
0.0
 10
95.494560
 20
748.530955
 30
0.0
 10
82.534875
 20
738.940330
 30
0.0
 10
84.263610
 20
736.604380
 30
0.0
 10
93.741585
 20
743.618380
 30
0.0
 10
93.095370
 20
724.234480
 30
0.0
  0
SPLINE
  5
10f
100
AcDbEntity
  8
Layer_1
 62
7
100
AcDbSpline
 70
8
 71
3
 72
8
 73
4
 74
0
 40
0
 40
0
 40
0
 40
0
 40
1
 40
1
 40
1
 40
1
 10
122.956954
 20
742.641280
 30
0.0
 10
122.463715
 20
741.415730
 30
0.0
 10
121.844514
 20
740.340455
 30
0.0
 10
121.099352
 20
739.415455
 30
0.0
  0
SPLINE
  5
110
100
AcDbEntity
  8
Layer_1
 62
7
100
AcDbSpline
 70
8
 71
3
 72
8
 73
4
 74
0
 40
0
 40
0
 40
0
 40
0
 40
1
 40
1
 40
1
 40
1
 10
121.099352
 20
739.415455
 30
0.0
 10
120.354190
 20
738.490455
 30
0.0
 10
119.416591
 20
737.737030
 30
0.0
 10
118.286554
 20
737.155180
 30
0.0
  0
SPLINE
  5
111
100
AcDbEntity
  8
Layer_1
 62
7
100
AcDbSpline
 70
8
 71
3
 72
8
 73
4
 74
0
 40
0
 40
0
 40
0
 40
0
 40
1
 40
1
 40
1
 40
1
 10
118.286554
 20
737.155180
 30
0.0
 10
116.092299
 20
736.025380
 30
0.0
 10
113.912890
 20
735.971980
 30
0.0
 10
111.748329
 20
736.994980
 30
0.0
  0
SPLINE
  5
112
100
AcDbEntity
  8
Layer_1
 62
7
100
AcDbSpline
 70
8
 71
3
 72
8
 73
4
 74
0
 40
0
 40
0
 40
0
 40
0
 40
1
 40
1
 40
1
 40
1
 10
111.748329
 20
736.994980
 30
0.0
 10
109.594742
 20
738.023630
 30
0.0
 10
107.746858
 20
740.035530
 30
0.0
 10
106.204679
 20
743.030680
 30
0.0
  0
SPLINE
  5
113
100
AcDbEntity
  8
Layer_1
 62
7
100
AcDbSpline
 70
8
 71
3
 72
8
 73
4
 74
0
 40
0
 40
0
 40
0
 40
0
 40
1
 40
1
 40
1
 40
1
 10
106.204679
 20
743.030680
 30
0.0
 10
105.402520
 20
744.588580
 30
0.0
 10
104.907347
 20
746.089430
 30
0.0
 10
104.719158
 20
747.533230
 30
0.0
  0
SPLINE
  5
114
100
AcDbEntity
  8
Layer_1
 62
7
100
AcDbSpline
 70
8
 71
3
 72
8
 73
4
 74
0
 40
0
 40
0
 40
0
 40
0
 40
1
 40
1
 40
1
 40
1
 10
104.719158
 20
747.533230
 30
0.0
 10
104.541944
 20
748.982630
 30
0.0
 10
104.611532
 20
750.330105
 30
0.0
 10
104.927924
 20
751.575655
 30
0.0
  0
SPLINE
  5
115
100
AcDbEntity
  8
Layer_1
 62
7
100
AcDbSpline
 70
8
 71
3
 72
8
 73
4
 74
0
 40
0
 40
0
 40
0
 40
0
 40
1
 40
1
 40
1
 40
1
 10
104.927924
 20
751.575655
 30
0.0
 10
105.244649
 20
752.793605
 30
0.0
 10
105.783735
 20
753.876205
 30
0.0
 10
106.545183
 20
754.823455
 30
0.0
  0
SPLINE
  5
116
100
AcDbEntity
  8
Layer_1
 62
7
100
AcDbSpline
 70
8
 71
3
 72
8
 73
4
 74
0
 40
0
 40
0
 40
0
 40
0
 40
1
 40
1
 40
1
 40
1
 10
106.545183
 20
754.823455
 30
0.0
 10
107.317606
 20
755.776355
 30
0.0
 10
108.235926
 20
756.526780
 30
0.0
 10
109.300145
 20
757.074730
 30
0.0
  0
SPLINE
  5
117
100
AcDbEntity
  8
Layer_1
 62
7
100
AcDbSpline
 70
8
 71
3
 72
8
 73
4
 74
0
 40
0
 40
0
 40
0
 40
0
 40
1
 40
1
 40
1
 40
1
 10
109.300145
 20
757.074730
 30
0.0
 10
110.265614
 20
757.571880
 30
0.0
 10
111.175040
 20
757.908280
 30
0.0
 10
112.028422
 20
758.083930
 30
0.0
  0
SPLINE
  5
118
100
AcDbEntity
  8
Layer_1
 62
7
100
AcDbSpline
 70
8
 71
3
 72
8
 73
4
 74
0
 40
0
 40
0
 40
0
 40
0
 40
1
 40
1
 40
1
 40
1
 10
112.028422
 20
758.083930
 30
0.0
 10
112.876150
 20
758.270580
 30
0.0
 10
113.821593
 20
758.361805
 30
0.0
 10
114.864752
 20
758.357605
 30
0.0
  0
LWPOLYLINE
  5
119
100
AcDbEntity
  8
Layer_1
 62
7
100
AcDbPolyline
 90
3
 70
0
 10
127.042255
 20
742.308805
 30
0.0
 10
123.948352
 20
740.715805
 30
0.0
 10
122.956954
 20
742.641280
 30
0.0
  0
LWPOLYLINE
  5
11a
100
AcDbEntity
  8
Layer_1
 62
7
100
AcDbPolyline
 90
4
 70
0
 10
114.864752
 20
758.357605
 30
0.0
 10
110.763567
 20
766.322755
 30
0.0
 10
113.857470
 20
767.915777
 30
0.0
 10
127.042255
 20
742.308805
 30
0.0
  0
SPLINE
  5
11b
100
AcDbEntity
  8
Layer_1
 62
7
100
AcDbSpline
 70
8
 71
3
 72
8
 73
4
 74
0
 40
0
 40
0
 40
0
 40
0
 40
1
 40
1
 40
1
 40
1
 10
116.186611
 20
755.790355
 30
0.0
 10
115.160729
 20
755.734055
 30
0.0
 10
114.281932
 20
755.607755
 30
0.0
 10
113.550220
 20
755.411455
 30
0.0
  0
SPLINE
  5
11c
100
AcDbEntity
  8
Layer_1
 62
7
100
AcDbSpline
 70
8
 71
3
 72
8
 73
4
 74
0
 40
0
 40
0
 40
0
 40
0
 40
1
 40
1
 40
1
 40
1
 10
113.550220
 20
755.411455
 30
0.0
 10
112.818509
 20
755.215105
 30
0.0
 10
112.063171
 20
754.916405
 30
0.0
 10
111.284207
 20
754.515355
 30
0.0
  0
SPLINE
  5
11d
100
AcDbEntity
  8
Layer_1
 62
7
100
AcDbSpline
 70
8
 71
3
 72
8
 73
4
 74
0
 40
0
 40
0
 40
0
 40
0
 40
1
 40
1
 40
1
 40
1
 10
111.284207
 20
754.515355
 30
0.0
 10
109.550748
 20
753.622805
 30
0.0
 10
108.511979
 20
752.324555
 30
0.0
 10
108.167900
 20
750.620605
 30
0.0
  0
SPLINE
  5
11e
100
AcDbEntity
  8
Layer_1
 62
7
100
AcDbSpline
 70
8
 71
3
 72
8
 73
4
 74
0
 40
0
 40
0
 40
0
 40
0
 40
1
 40
1
 40
1
 40
1
 10
108.167900
 20
750.620605
 30
0.0
 10
107.823821
 20
748.916655
 30
0.0
 10
108.222330
 20
746.956580
 30
0.0
 10
109.363426
 20
744.740380
 30
0.0
  0
SPLINE
  5
11f
100
AcDbEntity
  8
Layer_1
 62
7
100
AcDbSpline
 70
8
 71
3
 72
8
 73
4
 74
0
 40
0
 40
0
 40
0
 40
0
 40
1
 40
1
 40
1
 40
1
 10
109.363426
 20
744.740380
 30
0.0
 10
110.487578
 20
742.557080
 30
0.0
 10
111.716428
 20
741.087005
 30
0.0
 10
113.049974
 20
740.330155
 30
0.0
  0
SPLINE
  5
120
100
AcDbEntity
  8
Layer_1
 62
7
100
AcDbSpline
 70
8
 71
3
 72
8
 73
4
 74
0
 40
0
 40
0
 40
0
 40
0
 40
1
 40
1
 40
1
 40
1
 10
113.049974
 20
740.330155
 30
0.0
 10
114.377867
 20
739.584205
 30
0.0
 10
115.864660
 20
739.634930
 30
0.0
 10
117.510353
 20
740.482330
 30
0.0
  0
SPLINE
  5
121
100
AcDbEntity
  8
Layer_1
 62
7
100
AcDbSpline
 70
8
 71
3
 72
8
 73
4
 74
0
 40
0
 40
0
 40
0
 40
0
 40
1
 40
1
 40
1
 40
1
 10
117.510353
 20
740.482330
 30
0.0
 10
118.388057
 20
740.934230
 30
0.0
 10
119.177870
 20
741.583780
 30
0.0
 10
119.879794
 20
742.430980
 30
0.0
  0
SPLINE
  5
122
100
AcDbEntity
  8
Layer_1
 62
7
100
AcDbSpline
 70
8
 71
3
 72
8
 73
4
 74
0
 40
0
 40
0
 40
0
 40
0
 40
1
 40
1
 40
1
 40
1
 10
119.879794
 20
742.430980
 30
0.0
 10
120.576073
 20
743.289180
 30
0.0
 10
121.155520
 20
744.226005
 30
0.0
 10
121.618135
 20
745.241455
 30
0.0
  0
LWPOLYLINE
  5
123
100
AcDbEntity
  8
Layer_1
 62
7
100
AcDbPolyline
 90
2
 70
0
 10
121.618135
 20
745.241455
 30
0.0
 10
116.186611
 20
755.790355
 30
0.0
  0
SPLINE
  5
124
100
AcDbEntity
  8
Layer_1
 62
7
100
AcDbSpline
 70
8
 71
3
 72
8
 73
4
 74
0
 40
0
 40
0
 40
0
 40
0
 40
1
 40
1
 40
1
 40
1
 10
132.434951
 20
755.017930
 30
0.0
 10
132.813386
 20
753.804530
 30
0.0
 10
133.326651
 20
752.801230
 30
0.0
 10
133.974747
 20
752.008030
 30
0.0
  0
SPLINE
  5
125
100
AcDbEntity
  8
Layer_1
 62
7
100
AcDbSpline
 70
8
 71
3
 72
8
 73
4
 74
0
 40
0
 40
0
 40
0
 40
0
 40
1
 40
1
 40
1
 40
1
 10
133.974747
 20
752.008030
 30
0.0
 10
134.619171
 20
751.226580
 30
0.0
 10
135.349474
 20
750.646430
 30
0.0
 10
136.165655
 20
750.267580
 30
0.0
  0
SPLINE
  5
126
100
AcDbEntity
  8
Layer_1
 62
7
100
AcDbSpline
 70
8
 71
3
 72
8
 73
4
 74
0
 40
0
 40
0
 40
0
 40
0
 40
1
 40
1
 40
1
 40
1
 10
136.165655
 20
750.267580
 30
0.0
 10
136.954602
 20
749.893180
 30
0.0
 10
137.811374
 20
749.695055
 30
0.0
 10
138.735971
 20
749.673205
 30
0.0
  0
SPLINE
  5
127
100
AcDbEntity
  8
Layer_1
 62
7
100
AcDbSpline
 70
8
 71
3
 72
8
 73
4
 74
0
 40
0
 40
0
 40
0
 40
0
 40
1
 40
1
 40
1
 40
1
 10
138.735971
 20
749.673205
 30
0.0
 10
139.672345
 20
749.655205
 30
0.0
 10
140.647098
 20
749.804080
 30
0.0
 10
141.660230
 20
750.119830
 30
0.0
  0
SPLINE
  5
128
100
AcDbEntity
  8
Layer_1
 62
7
100
AcDbSpline
 70
8
 71
3
 72
8
 73
4
 74
0
 40
0
 40
0
 40
0
 40
0
 40
1
 40
1
 40
1
 40
1
 10
141.660230
 20
750.119830
 30
0.0
 10
143.003213
 20
750.538680
 30
0.0
 10
144.269416
 20
751.224430
 30
0.0
 10
145.458840
 20
752.177080
 30
0.0
  0
SPLINE
  5
129
100
AcDbEntity
  8
Layer_1
 62
7
100
AcDbSpline
 70
8
 71
3
 72
8
 73
4
 74
0
 40
0
 40
0
 40
0
 40
0
 40
1
 40
1
 40
1
 40
1
 10
145.458840
 20
752.177080
 30
0.0
 10
146.656378
 20
753.145180
 30
0.0
 10
147.462939
 20
753.978430
 30
0.0
 10
147.878523
 20
754.676830
 30
0.0
  0
LWPOLYLINE
  5
12a
100
AcDbEntity
  8
Layer_1
 62
7
100
AcDbPolyline
 90
2
 70
0
 10
146.978026
 20
759.553555
 30
0.0
 10
132.434951
 20
755.017930
 30
0.0
  0
LWPOLYLINE
  5
12b
100
AcDbEntity
  8
Layer_1
 62
7
100
AcDbPolyline
 90
2
 70
0
 10
147.878523
 20
754.676830
 30
0.0
 10
148.055226
 20
754.731580
 30
0.0
  0
SPLINE
  5
12c
100
AcDbEntity
  8
Layer_1
 62
7
100
AcDbSpline
 70
8
 71
3
 72
8
 73
4
 74
0
 40
0
 40
0
 40
0
 40
0
 40
1
 40
1
 40
1
 40
1
 10
149.185010
 20
751.109380
 30
0.0
 10
148.427149
 20
750.472330
 30
0.0
 10
147.634700
 20
749.863255
 30
0.0
 10
146.807664
 20
749.282155
 30
0.0
  0
SPLINE
  5
12d
100
AcDbEntity
  8
Layer_1
 62
7
100
AcDbSpline
 70
8
 71
3
 72
8
 73
4
 74
0
 40
0
 40
0
 40
0
 40
0
 40
1
 40
1
 40
1
 40
1
 10
146.807664
 20
749.282155
 30
0.0
 10
145.988742
 20
748.716505
 30
0.0
 10
145.118703
 20
748.231855
 30
0.0
 10
144.197547
 20
747.828205
 30
0.0
  0
SPLINE
  5
12e
100
AcDbEntity
  8
Layer_1
 62
7
100
AcDbSpline
 70
8
 71
3
 72
8
 73
4
 74
0
 40
0
 40
0
 40
0
 40
0
 40
1
 40
1
 40
1
 40
1
 10
144.197547
 20
747.828205
 30
0.0
 10
144.247472
 20
747.585255
 30
0.0
 10
144.304742
 20
747.318755
 30
0.0
 10
144.369357
 20
747.028705
 30
0.0
  0
SPLINE
  5
12f
100
AcDbEntity
  8
Layer_1
 62
7
100
AcDbSpline
 70
8
 71
3
 72
8
 73
4
 74
0
 40
0
 40
0
 40
0
 40
0
 40
1
 40
1
 40
1
 40
1
 10
144.369357
 20
747.028705
 30
0.0
 10
144.445756
 20
746.742255
 30
0.0
 10
144.517022
 20
746.493005
 30
0.0
 10
144.583156
 20
746.280955
 30
0.0
  0
SPLINE
  5
130
100
AcDbEntity
  8
Layer_1
 62
7
100
AcDbSpline
 70
8
 71
3
 72
8
 73
4
 74
0
 40
0
 40
0
 40
0
 40
0
 40
1
 40
1
 40
1
 40
1
 10
144.583156
 20
746.280955
 30
0.0
 10
144.884432
 20
745.314955
 30
0.0
 10
145.348217
 20
744.677555
 30
0.0
 10
145.974510
 20
744.368755
 30
0.0
  0
SPLINE
  5
131
100
AcDbEntity
  8
Layer_1
 62
7
100
AcDbSpline
 70
8
 71
3
 72
8
 73
4
 74
0
 40
0
 40
0
 40
0
 40
0
 40
1
 40
1
 40
1
 40
1
 10
145.974510
 20
744.368755
 30
0.0
 10
146.612580
 20
744.063655
 30
0.0
 10
147.461739
 20
744.076405
 30
0.0
 10
148.521986
 20
744.407005
 30
0.0
  0
SPLINE
  5
132
100
AcDbEntity
  8
Layer_1
 62
7
100
AcDbSpline
 70
8
 71
3
 72
8
 73
4
 74
0
 40
0
 40
0
 40
0
 40
0
 40
1
 40
1
 40
1
 40
1
 10
148.521986
 20
744.407080
 30
0.0
 10
148.946085
 20
744.539330
 30
0.0
 10
149.368028
 20
744.761405
 30
0.0
 10
149.787814
 20
745.073305
 30
0.0
  0
SPLINE
  5
133
100
AcDbEntity
  8
Layer_1
 62
7
100
AcDbSpline
 70
8
 71
3
 72
8
 73
4
 74
0
 40
0
 40
0
 40
0
 40
0
 40
1
 40
1
 40
1
 40
1
 10
149.787814
 20
745.073305
 30
0.0
 10
150.223049
 20
745.377105
 30
0.0
 10
150.526106
 20
745.607355
 30
0.0
 10
150.696984
 20
745.764055
 30
0.0
  0
LWPOLYLINE
  5
134
100
AcDbEntity
  8
Layer_1
 62
7
100
AcDbPolyline
 90
2
 70
0
 10
148.055226
 20
754.731880
 30
0.0
 10
149.185010
 20
751.109380
 30
0.0
  0
LWPOLYLINE
  5
135
100
AcDbEntity
  8
Layer_1
 62
7
100
AcDbPolyline
 90
2
 70
0
 10
150.696984
 20
745.764055
 30
0.0
 10
150.838343
 20
745.808305
 30
0.0
  0
SPLINE
  5
136
100
AcDbEntity
  8
Layer_1
 62
7
100
AcDbSpline
 70
8
 71
3
 72
8
 73
4
 74
0
 40
0
 40
0
 40
0
 40
0
 40
1
 40
1
 40
1
 40
1
 10
151.714616
 20
742.998505
 30
0.0
 10
151.153466
 20
742.642505
 30
0.0
 10
150.660082
 20
742.359355
 30
0.0
 10
150.234463
 20
742.149055
 30
0.0
  0
SPLINE
  5
137
100
AcDbEntity
  8
Layer_1
 62
7
100
AcDbSpline
 70
8
 71
3
 72
8
 73
4
 74
0
 40
0
 40
0
 40
0
 40
0
 40
1
 40
1
 40
1
 40
1
 10
150.234463
 20
742.149055
 30
0.0
 10
149.820629
 20
741.942455
 30
0.0
 10
149.366320
 20
741.762005
 30
0.0
 10
148.871535
 20
741.607705
 30
0.0
  0
SPLINE
  5
138
100
AcDbEntity
  8
Layer_1
 62
7
100
AcDbSpline
 70
8
 71
3
 72
8
 73
4
 74
0
 40
0
 40
0
 40
0
 40
0
 40
1
 40
1
 40
1
 40
1
 10
148.871535
 20
741.607705
 30
0.0
 10
147.234040
 20
741.097005
 30
0.0
 10
145.769493
 20
741.150830
 30
0.0
 10
144.477896
 20
741.769180
 30
0.0
  0
SPLINE
  5
139
100
AcDbEntity
  8
Layer_1
 62
7
100
AcDbSpline
 70
8
 71
3
 72
8
 73
4
 74
0
 40
0
 40
0
 40
0
 40
0
 40
1
 40
1
 40
1
 40
1
 10
144.477896
 20
741.769180
 30
0.0
 10
143.198075
 20
742.391230
 30
0.0
 10
142.295469
 20
743.544555
 30
0.0
 10
141.770076
 20
745.229155
 30
0.0
  0
SPLINE
  5
13a
100
AcDbEntity
  8
Layer_1
 62
7
100
AcDbSpline
 70
8
 71
3
 72
8
 73
4
 74
0
 40
0
 40
0
 40
0
 40
0
 40
1
 40
1
 40
1
 40
1
 10
141.770076
 20
745.229155
 30
0.0
 10
141.681892
 20
745.511855
 30
0.0
 10
141.609549
 20
745.805980
 30
0.0
 10
141.553048
 20
746.111530
 30
0.0
  0
SPLINE
  5
13b
100
AcDbEntity
  8
Layer_1
 62
7
100
AcDbSpline
 70
8
 71
3
 72
8
 73
4
 74
0
 40
0
 40
0
 40
0
 40
0
 40
1
 40
1
 40
1
 40
1
 10
141.553048
 20
746.111530
 30
0.0
 10
141.496539
 20
746.417080
 30
0.0
 10
141.458779
 20
746.683230
 30
0.0
 10
141.439769
 20
746.909980
 30
0.0
  0
SPLINE
  5
13c
100
AcDbEntity
  8
Layer_1
 62
7
100
AcDbSpline
 70
8
 71
3
 72
8
 73
4
 74
0
 40
0
 40
0
 40
0
 40
0
 40
1
 40
1
 40
1
 40
1
 10
141.439769
 20
746.909980
 30
0.0
 10
138.452057
 20
746.210830
 30
0.0
 10
135.865737
 20
746.483555
 30
0.0
 10
133.680807
 20
747.728155
 30
0.0
  0
SPLINE
  5
13d
100
AcDbEntity
  8
Layer_1
 62
7
100
AcDbSpline
 70
8
 71
3
 72
8
 73
4
 74
0
 40
0
 40
0
 40
0
 40
0
 40
1
 40
1
 40
1
 40
1
 10
133.680807
 20
747.728155
 30
0.0
 10
131.507655
 20
748.976455
 30
0.0
 10
129.943442
 20
751.132080
 30
0.0
 10
128.988169
 20
754.195030
 30
0.0
  0
SPLINE
  5
13e
100
AcDbEntity
  8
Layer_1
 62
7
100
AcDbSpline
 70
8
 71
3
 72
8
 73
4
 74
0
 40
0
 40
0
 40
0
 40
0
 40
1
 40
1
 40
1
 40
1
 10
128.988169
 20
754.195030
 30
0.0
 10
127.981468
 20
757.422880
 30
0.0
 10
128.060002
 20
760.258855
 30
0.0
 10
129.223772
 20
762.702955
 30
0.0
  0
SPLINE
  5
13f
100
AcDbEntity
  8
Layer_1
 62
7
100
AcDbSpline
 70
8
 71
3
 72
8
 73
4
 74
0
 40
0
 40
0
 40
0
 40
0
 40
1
 40
1
 40
1
 40
1
 10
129.223772
 20
762.702955
 30
0.0
 10
130.399327
 20
765.150745
 30
0.0
 10
132.424327
 20
766.822880
 30
0.0
 10
135.298771
 20
767.719360
 30
0.0
  0
SPLINE
  5
140
100
AcDbEntity
  8
Layer_1
 62
7
100
AcDbSpline
 70
8
 71
3
 72
8
 73
4
 74
0
 40
0
 40
0
 40
0
 40
0
 40
1
 40
1
 40
1
 40
1
 10
135.298771
 20
767.719360
 30
0.0
 10
137.961175
 20
768.549705
 30
0.0
 10
140.253479
 20
768.411482
 30
0.0
 10
142.175682
 20
767.304692
 30
0.0
  0
SPLINE
  5
141
100
AcDbEntity
  8
Layer_1
 62
7
100
AcDbSpline
 70
8
 71
3
 72
8
 73
4
 74
0
 40
0
 40
0
 40
0
 40
0
 40
1
 40
1
 40
1
 40
1
 10
142.175682
 20
767.304692
 30
0.0
 10
144.109670
 20
766.201572
 30
0.0
 10
145.523066
 20
764.218685
 30
0.0
 10
146.415869
 20
761.356030
 30
0.0
  0
LWPOLYLINE
  5
142
100
AcDbEntity
  8
Layer_1
 62
7
100
AcDbPolyline
 90
2
 70
0
 10
150.838343
 20
745.808155
 30
0.0
 10
151.714616
 20
742.998505
 30
0.0
  0
SPLINE
  5
143
100
AcDbEntity
  8
Layer_1
 62
7
100
AcDbSpline
 70
8
 71
3
 72
8
 73
4
 74
0
 40
0
 40
0
 40
0
 40
0
 40
1
 40
1
 40
1
 40
1
 10
142.950666
 20
761.089630
 30
0.0
 10
142.395118
 20
762.829480
 30
0.0
 10
141.532663
 20
764.040580
 30
0.0
 10
140.363299
 20
764.722930
 30
0.0
  0
SPLINE
  5
144
100
AcDbEntity
  8
Layer_1
 62
7
100
AcDbSpline
 70
8
 71
3
 72
8
 73
4
 74
0
 40
0
 40
0
 40
0
 40
0
 40
1
 40
1
 40
1
 40
1
 10
140.363299
 20
764.722930
 30
0.0
 10
139.205721
 20
765.408940
 30
0.0
 10
137.743391
 20
765.476390
 30
0.0
 10
135.976309
 20
764.925280
 30
0.0
  0
SPLINE
  5
145
100
AcDbEntity
  8
Layer_1
 62
7
100
AcDbSpline
 70
8
 71
3
 72
8
 73
4
 74
0
 40
0
 40
0
 40
0
 40
0
 40
1
 40
1
 40
1
 40
1
 10
135.976309
 20
764.925280
 30
0.0
 10
134.197451
 20
764.370480
 30
0.0
 10
132.941393
 20
763.403505
 30
0.0
 10
132.208135
 20
762.024355
 30
0.0
  0
SPLINE
  5
146
100
AcDbEntity
  8
Layer_1
 62
7
100
AcDbSpline
 70
8
 71
3
 72
8
 73
4
 74
0
 40
0
 40
0
 40
0
 40
0
 40
1
 40
1
 40
1
 40
1
 10
132.208135
 20
762.024355
 30
0.0
 10
131.486663
 20
760.648905
 30
0.0
 10
131.297736
 20
759.161630
 30
0.0
 10
131.641354
 20
757.562530
 30
0.0
  0
LWPOLYLINE
  5
147
100
AcDbEntity
  8
Layer_1
 62
7
100
AcDbPolyline
 90
2
 70
0
 10
146.415869
 20
761.356030
 30
0.0
 10
146.978026
 20
759.553555
 30
0.0
  0
SPLINE
  5
148
100
AcDbEntity
  8
Layer_1
 62
7
100
AcDbSpline
 70
8
 71
3
 72
8
 73
4
 74
0
 40
0
 40
0
 40
0
 40
0
 40
1
 40
1
 40
1
 40
1
 10
171.840413
 20
763.840780
 30
0.0
 10
172.064273
 20
762.127730
 30
0.0
 10
172.021009
 20
760.554005
 30
0.0
 10
171.710621
 20
759.119605
 30
0.0
  0
SPLINE
  5
149
100
AcDbEntity
  8
Layer_1
 62
7
100
AcDbSpline
 70
8
 71
3
 72
8
 73
4
 74
0
 40
0
 40
0
 40
0
 40
0
 40
1
 40
1
 40
1
 40
1
 10
171.710621
 20
759.119605
 30
0.0
 10
171.412505
 20
757.686805
 30
0.0
 10
170.914295
 20
756.451855
 30
0.0
 10
170.215992
 20
755.414755
 30
0.0
  0
SPLINE
  5
14a
100
AcDbEntity
  8
Layer_1
 62
7
100
AcDbSpline
 70
8
 71
3
 72
8
 73
4
 74
0
 40
0
 40
0
 40
0
 40
0
 40
1
 40
1
 40
1
 40
1
 10
170.215992
 20
755.414755
 30
0.0
 10
169.473554
 20
754.334605
 30
0.0
 10
168.614275
 20
753.481830
 30
0.0
 10
167.638156
 20
752.856430
 30
0.0
  0
SPLINE
  5
14b
100
AcDbEntity
  8
Layer_1
 62
7
100
AcDbSpline
 70
8
 71
3
 72
8
 73
4
 74
0
 40
0
 40
0
 40
0
 40
0
 40
1
 40
1
 40
1
 40
1
 10
167.638156
 20
752.856430
 30
0.0
 10
166.660448
 20
752.243330
 30
0.0
 10
165.547552
 20
751.855230
 30
0.0
 10
164.299466
 20
751.692130
 30
0.0
  0
SPLINE
  5
14c
100
AcDbEntity
  8
Layer_1
 62
7
100
AcDbSpline
 70
8
 71
3
 72
8
 73
4
 74
0
 40
0
 40
0
 40
0
 40
0
 40
1
 40
1
 40
1
 40
1
 10
164.299466
 20
751.692130
 30
0.0
 10
163.137028
 20
751.540230
 30
0.0
 10
162.103033
 20
751.548230
 30
0.0
 10
161.197480
 20
751.716130
 30
0.0
  0
SPLINE
  5
14d
100
AcDbEntity
  8
Layer_1
 62
7
100
AcDbSpline
 70
8
 71
3
 72
8
 73
4
 74
0
 40
0
 40
0
 40
0
 40
0
 40
1
 40
1
 40
1
 40
1
 10
161.197480
 20
751.716130
 30
0.0
 10
160.293541
 20
751.871780
 30
0.0
 10
159.389043
 20
752.126930
 30
0.0
 10
158.483986
 20
752.481580
 30
0.0
  0
LWPOLYLINE
  5
14e
100
AcDbEntity
  8
Layer_1
 62
7
100
AcDbPolyline
 90
2
 70
0
 10
131.641354
 20
757.562530
 30
0.0
 10
142.950666
 20
761.089630
 30
0.0
  0
SPLINE
  5
14f
100
AcDbEntity
  8
Layer_1
 62
7
100
AcDbSpline
 70
8
 71
3
 72
8
 73
4
 74
0
 40
0
 40
0
 40
0
 40
0
 40
1
 40
1
 40
1
 40
1
 10
156.210197
 20
769.881385
 30
0.0
 10
157.072913
 20
770.803055
 30
0.0
 10
158.016003
 20
771.585887
 30
0.0
 10
159.039469
 20
772.229882
 30
0.0
  0
SPLINE
  5
150
100
AcDbEntity
  8
Layer_1
 62
7
100
AcDbSpline
 70
8
 71
3
 72
8
 73
4
 74
0
 40
0
 40
0
 40
0
 40
0
 40
1
 40
1
 40
1
 40
1
 10
159.039469
 20
772.229882
 30
0.0
 10
160.061320
 20
772.886112
 30
0.0
 10
161.251351
 20
773.302970
 30
0.0
 10
162.609560
 20
773.480455
 30
0.0
  0
SPLINE
  5
151
100
AcDbEntity
  8
Layer_1
 62
7
100
AcDbSpline
 70
8
 71
3
 72
8
 73
4
 74
0
 40
0
 40
0
 40
0
 40
0
 40
1
 40
1
 40
1
 40
1
 10
162.609560
 20
773.480455
 30
0.0
 10
165.032322
 20
773.797060
 30
0.0
 10
167.062689
 20
773.116557
 30
0.0
 10
168.700662
 20
771.438947
 30
0.0
  0
SPLINE
  5
152
100
AcDbEntity
  8
Layer_1
 62
7
100
AcDbSpline
 70
8
 71
3
 72
8
 73
4
 74
0
 40
0
 40
0
 40
0
 40
0
 40
1
 40
1
 40
1
 40
1
 10
168.700662
 20
771.438947
 30
0.0
 10
170.350874
 20
769.762937
 30
0.0
 10
171.397457
 20
767.230215
 30
0.0
 10
171.840413
 20
763.840780
 30
0.0
  0
SPLINE
  5
153
100
AcDbEntity
  8
Layer_1
 62
7
100
AcDbSpline
 70
8
 71
3
 72
8
 73
4
 74
0
 40
0
 40
0
 40
0
 40
0
 40
1
 40
1
 40
1
 40
1
 10
168.291688
 20
763.283755
 30
0.0
 10
167.971888
 20
765.730970
 30
0.0
 10
167.325851
 20
767.531972
 30
0.0
 10
166.353575
 20
768.686762
 30
0.0
  0
SPLINE
  5
154
100
AcDbEntity
  8
Layer_1
 62
7
100
AcDbSpline
 70
8
 71
3
 72
8
 73
4
 74
0
 40
0
 40
0
 40
0
 40
0
 40
1
 40
1
 40
1
 40
1
 10
166.353575
 20
768.686762
 30
0.0
 10
165.379684
 20
769.853782
 30
0.0
 10
163.993382
 20
770.319767
 30
0.0
 10
162.194668
 20
770.084717
 30
0.0
  0
SPLINE
  5
155
100
AcDbEntity
  8
Layer_1
 62
7
100
AcDbSpline
 70
8
 71
3
 72
8
 73
4
 74
0
 40
0
 40
0
 40
0
 40
0
 40
1
 40
1
 40
1
 40
1
 10
162.194668
 20
770.084717
 30
0.0
 10
161.191306
 20
769.953597
 30
0.0
 10
160.204486
 20
769.600630
 30
0.0
 10
159.234208
 20
769.025815
 30
0.0
  0
SPLINE
  5
156
100
AcDbEntity
  8
Layer_1
 62
7
100
AcDbSpline
 70
8
 71
3
 72
8
 73
4
 74
0
 40
0
 40
0
 40
0
 40
0
 40
1
 40
1
 40
1
 40
1
 10
159.234208
 20
769.025815
 30
0.0
 10
158.262333
 20
768.463235
 30
0.0
 10
157.380666
 20
767.781767
 30
0.0
 10
156.589208
 20
766.981412
 30
0.0
  0
LWPOLYLINE
  5
157
100
AcDbEntity
  8
Layer_1
 62
7
100
AcDbPolyline
 90
6
 70
0
 10
158.483986
 20
752.481580
 30
0.0
 10
158.388448
 20
751.498405
 30
0.0
 10
155.158106
 20
751.076230
 30
0.0
 10
151.426031
 20
779.635412
 30
0.0
 10
154.876616
 20
780.086335
 30
0.0
 10
156.210197
 20
769.881385
 30
0.0
  0
SPLINE
  5
158
100
AcDbEntity
  8
Layer_1
 62
7
100
AcDbSpline
 70
8
 71
3
 72
8
 73
4
 74
0
 40
0
 40
0
 40
0
 40
0
 40
1
 40
1
 40
1
 40
1
 10
158.124253
 20
755.234680
 30
0.0
 10
159.160708
 20
754.922130
 30
0.0
 10
160.038860
 20
754.725780
 30
0.0
 10
160.758710
 20
754.645630
 30
0.0
  0
SPLINE
  5
159
100
AcDbEntity
  8
Layer_1
 62
7
100
AcDbSpline
 70
8
 71
3
 72
8
 73
4
 74
0
 40
0
 40
0
 40
0
 40
0
 40
1
 40
1
 40
1
 40
1
 10
160.758710
 20
754.645630
 30
0.0
 10
161.490797
 20
754.567030
 30
0.0
 10
162.303459
 20
754.586030
 30
0.0
 10
163.196698
 20
754.702630
 30
0.0
  0
SPLINE
  5
15a
100
AcDbEntity
  8
Layer_1
 62
7
100
AcDbSpline
 70
8
 71
3
 72
8
 73
4
 74
0
 40
0
 40
0
 40
0
 40
0
 40
1
 40
1
 40
1
 40
1
 10
163.196698
 20
754.702855
 30
0.0
 10
165.105536
 20
754.952305
 30
0.0
 10
166.516792
 20
755.771430
 30
0.0
 10
167.430467
 20
757.160230
 30
0.0
  0
SPLINE
  5
15b
100
AcDbEntity
  8
Layer_1
 62
7
100
AcDbSpline
 70
8
 71
3
 72
8
 73
4
 74
0
 40
0
 40
0
 40
0
 40
0
 40
1
 40
1
 40
1
 40
1
 10
167.430467
 20
757.160230
 30
0.0
 10
168.354791
 20
758.562830
 30
0.0
 10
168.641864
 20
760.604005
 30
0.0
 10
168.291688
 20
763.283755
 30
0.0
  0
LWPOLYLINE
  5
15c
100
AcDbEntity
  8
Layer_1
 62
7
100
AcDbPolyline
 90
2
 70
0
 10
156.589208
 20
766.981412
 30
0.0
 10
158.124253
 20
755.234680
 30
0.0
  0
LWPOLYLINE
  5
15d
100
AcDbEntity
  8
Layer_1
 62
7
100
AcDbPolyline
 90
4
 70
1
 10
178.386041
 20
777.426925
 30
0.0
 10
182.310203
 20
777.441025
 30
0.0
 10
182.296763
 20
781.050505
 30
0.0
 10
178.372601
 20
781.036405
 30
0.0
  0
LWPOLYLINE
  5
15e
100
AcDbEntity
  8
Layer_1
 62
7
100
AcDbPolyline
 90
4
 70
1
 10
178.694636
 20
753.290530
 30
0.0
 10
182.174532
 20
753.303280
 30
0.0
 10
182.100514
 20
773.979130
 30
0.0
 10
178.620593
 20
773.966680
 30
0.0
  0
SPLINE
  5
15f
100
AcDbEntity
  8
Layer_1
 62
7
100
AcDbSpline
 70
8
 71
3
 72
8
 73
4
 74
0
 40
0
 40
0
 40
0
 40
0
 40
1
 40
1
 40
1
 40
1
 10
201.894031
 20
753.970630
 30
0.0
 10
201.562728
 20
753.799080
 30
0.0
 10
201.110857
 20
753.555030
 30
0.0
 10
200.538417
 20
753.238480
 30
0.0
  0
SPLINE
  5
160
100
AcDbEntity
  8
Layer_1
 62
7
100
AcDbSpline
 70
8
 71
3
 72
8
 73
4
 74
0
 40
0
 40
0
 40
0
 40
0
 40
1
 40
1
 40
1
 40
1
 10
200.538417
 20
753.238480
 30
0.0
 10
199.979710
 20
752.932630
 30
0.0
 10
199.442079
 20
752.698855
 30
0.0
 10
198.925526
 20
752.537155
 30
0.0
  0
SPLINE
  5
161
100
AcDbEntity
  8
Layer_1
 62
7
100
AcDbSpline
 70
8
 71
3
 72
8
 73
4
 74
0
 40
0
 40
0
 40
0
 40
0
 40
1
 40
1
 40
1
 40
1
 10
198.925526
 20
752.537155
 30
0.0
 10
198.315843
 20
752.324455
 30
0.0
 10
197.626281
 20
752.171055
 30
0.0
 10
196.856840
 20
752.076955
 30
0.0
  0
SPLINE
  5
162
100
AcDbEntity
  8
Layer_1
 62
7
100
AcDbSpline
 70
8
 71
3
 72
8
 73
4
 74
0
 40
0
 40
0
 40
0
 40
0
 40
1
 40
1
 40
1
 40
1
 10
196.856840
 20
752.076955
 30
0.0
 10
196.085921
 20
751.970605
 30
0.0
 10
195.198123
 20
751.977855
 30
0.0
 10
194.193445
 20
752.098705
 30
0.0
  0
SPLINE
  5
163
100
AcDbEntity
  8
Layer_1
 62
7
100
AcDbSpline
 70
8
 71
3
 72
8
 73
4
 74
0
 40
0
 40
0
 40
0
 40
0
 40
1
 40
1
 40
1
 40
1
 10
194.193445
 20
752.098330
 30
0.0
 10
192.343354
 20
752.320330
 30
0.0
 10
190.848581
 20
753.121155
 30
0.0
 10
189.709124
 20
754.500805
 30
0.0
  0
SPLINE
  5
164
100
AcDbEntity
  8
Layer_1
 62
7
100
AcDbSpline
 70
8
 71
3
 72
8
 73
4
 74
0
 40
0
 40
0
 40
0
 40
0
 40
1
 40
1
 40
1
 40
1
 10
189.709124
 20
754.500805
 30
0.0
 10
188.569685
 20
755.880405
 30
0.0
 10
188.113920
 20
757.519755
 30
0.0
 10
188.341828
 20
759.418855
 30
0.0
  0
SPLINE
  5
165
100
AcDbEntity
  8
Layer_1
 62
7
100
AcDbSpline
 70
8
 71
3
 72
8
 73
4
 74
0
 40
0
 40
0
 40
0
 40
0
 40
1
 40
1
 40
1
 40
1
 10
188.341828
 20
759.418855
 30
0.0
 10
188.528573
 20
760.974905
 30
0.0
 10
189.010100
 20
762.191080
 30
0.0
 10
189.786408
 20
763.067380
 30
0.0
  0
SPLINE
  5
166
100
AcDbEntity
  8
Layer_1
 62
7
100
AcDbSpline
 70
8
 71
3
 72
8
 73
4
 74
0
 40
0
 40
0
 40
0
 40
0
 40
1
 40
1
 40
1
 40
1
 10
189.786408
 20
763.067380
 30
0.0
 10
190.576439
 20
763.954430
 30
0.0
 10
191.623283
 20
764.599355
 30
0.0
 10
192.926939
 20
765.002155
 30
0.0
  0
SPLINE
  5
167
100
AcDbEntity
  8
Layer_1
 62
7
100
AcDbSpline
 70
8
 71
3
 72
8
 73
4
 74
0
 40
0
 40
0
 40
0
 40
0
 40
1
 40
1
 40
1
 40
1
 10
192.926939
 20
765.002155
 30
0.0
 10
194.242841
 20
765.403550
 30
0.0
 10
195.788590
 20
765.597130
 30
0.0
 10
197.564187
 20
765.582895
 30
0.0
  0
SPLINE
  5
168
100
AcDbEntity
  8
Layer_1
 62
7
100
AcDbSpline
 70
8
 71
3
 72
8
 73
4
 74
0
 40
0
 40
0
 40
0
 40
0
 40
1
 40
1
 40
1
 40
1
 10
197.564187
 20
765.582895
 30
0.0
 10
199.339791
 20
765.568645
 30
0.0
 10
201.238163
 20
765.489965
 30
0.0
 10
203.259303
 20
765.346855
 30
0.0
  0
LWPOLYLINE
  5
169
100
AcDbEntity
  8
Layer_1
 62
7
100
AcDbPolyline
 90
3
 70
0
 10
205.068317
 20
751.371130
 30
0.0
 10
201.631552
 20
751.783630
 30
0.0
 10
201.894031
 20
753.970630
 30
0.0
  0
SPLINE
  5
16a
100
AcDbEntity
  8
Layer_1
 62
7
100
AcDbSpline
 70
8
 71
3
 72
8
 73
4
 74
0
 40
0
 40
0
 40
0
 40
0
 40
1
 40
1
 40
1
 40
1
 10
203.323277
 20
765.879835
 30
0.0
 10
203.417422
 20
766.663980
 30
0.0
 10
203.354457
 20
767.330260
 30
0.0
 10
203.134380
 20
767.878675
 30
0.0
  0
SPLINE
  5
16b
100
AcDbEntity
  8
Layer_1
 62
7
100
AcDbSpline
 70
8
 71
3
 72
8
 73
4
 74
0
 40
0
 40
0
 40
0
 40
0
 40
1
 40
1
 40
1
 40
1
 10
203.134380
 20
767.878675
 30
0.0
 10
202.926600
 20
768.425620
 30
0.0
 10
202.583051
 20
768.876997
 30
0.0
 10
202.103732
 20
769.232807
 30
0.0
  0
SPLINE
  5
16c
100
AcDbEntity
  8
Layer_1
 62
7
100
AcDbSpline
 70
8
 71
3
 72
8
 73
4
 74
0
 40
0
 40
0
 40
0
 40
0
 40
1
 40
1
 40
1
 40
1
 10
202.103732
 20
769.232807
 30
0.0
 10
201.647454
 20
769.573427
 30
0.0
 10
201.082137
 20
769.833915
 30
0.0
 10
200.407780
 20
770.014270
 30
0.0
  0
SPLINE
  5
16d
100
AcDbEntity
  8
Layer_1
 62
7
100
AcDbSpline
 70
8
 71
3
 72
8
 73
4
 74
0
 40
0
 40
0
 40
0
 40
0
 40
1
 40
1
 40
1
 40
1
 10
200.407780
 20
770.014270
 30
0.0
 10
199.733424
 20
770.194635
 30
0.0
 10
199.022550
 20
770.329665
 30
0.0
 10
198.275158
 20
770.419360
 30
0.0
  0
SPLINE
  5
16e
100
AcDbEntity
  8
Layer_1
 62
7
100
AcDbSpline
 70
8
 71
3
 72
8
 73
4
 74
0
 40
0
 40
0
 40
0
 40
0
 40
1
 40
1
 40
1
 40
1
 10
198.275158
 20
770.419360
 30
0.0
 10
197.368487
 20
770.528175
 30
0.0
 10
196.342967
 20
770.526925
 30
0.0
 10
195.198600
 20
770.415610
 30
0.0
  0
SPLINE
  5
16f
100
AcDbEntity
  8
Layer_1
 62
7
100
AcDbSpline
 70
8
 71
3
 72
8
 73
4
 74
0
 40
0
 40
0
 40
0
 40
0
 40
1
 40
1
 40
1
 40
1
 10
195.198600
 20
770.415662
 30
0.0
 10
194.055711
 20
770.316682
 30
0.0
 10
192.862829
 20
770.111840
 30
0.0
 10
191.619952
 20
769.801135
 30
0.0
  0
LWPOLYLINE
  5
170
100
AcDbEntity
  8
Layer_1
 62
7
100
AcDbPolyline
 90
2
 70
0
 10
203.259303
 20
765.346855
 30
0.0
 10
203.323278
 20
765.879835
 30
0.0
  0
SPLINE
  5
171
100
AcDbEntity
  8
Layer_1
 62
7
100
AcDbSpline
 70
8
 71
3
 72
8
 73
4
 74
0
 40
0
 40
0
 40
0
 40
0
 40
1
 40
1
 40
1
 40
1
 10
191.857438
 20
773.333477
 30
0.0
 10
192.553367
 20
773.436392
 30
0.0
 10
193.551682
 20
773.521657
 30
0.0
 10
194.852383
 20
773.589272
 30
0.0
  0
SPLINE
  5
172
100
AcDbEntity
  8
Layer_1
 62
7
100
AcDbSpline
 70
8
 71
3
 72
8
 73
4
 74
0
 40
0
 40
0
 40
0
 40
0
 40
1
 40
1
 40
1
 40
1
 10
194.852383
 20
773.589272
 30
0.0
 10
196.153093
 20
773.656892
 30
0.0
 10
197.422187
 20
773.616445
 30
0.0
 10
198.659666
 20
773.467930
 30
0.0
  0
SPLINE
  5
173
100
AcDbEntity
  8
Layer_1
 62
7
100
AcDbSpline
 70
8
 71
3
 72
8
 73
4
 74
0
 40
0
 40
0
 40
0
 40
0
 40
1
 40
1
 40
1
 40
1
 10
198.659666
 20
773.467930
 30
0.0
 10
200.105428
 20
773.294420
 30
0.0
 10
201.346580
 20
773.021180
 30
0.0
 10
202.383120
 20
772.648210
 30
0.0
  0
SPLINE
  5
174
100
AcDbEntity
  8
Layer_1
 62
7
100
AcDbSpline
 70
8
 71
3
 72
8
 73
4
 74
0
 40
0
 40
0
 40
0
 40
0
 40
1
 40
1
 40
1
 40
1
 10
202.383120
 20
772.648210
 30
0.0
 10
203.433375
 20
772.286025
 30
0.0
 10
204.316024
 20
771.769950
 30
0.0
 10
205.031065
 20
771.099985
 30
0.0
  0
SPLINE
  5
175
100
AcDbEntity
  8
Layer_1
 62
7
100
AcDbSpline
 70
8
 71
3
 72
8
 73
4
 74
0
 40
0
 40
0
 40
0
 40
0
 40
1
 40
1
 40
1
 40
1
 10
205.031065
 20
771.099985
 30
0.0
 10
205.735312
 20
770.443745
 30
0.0
 10
206.235929
 20
769.644155
 30
0.0
 10
206.532918
 20
768.701215
 30
0.0
  0
SPLINE
  5
176
100
AcDbEntity
  8
Layer_1
 62
7
100
AcDbSpline
 70
8
 71
3
 72
8
 73
4
 74
0
 40
0
 40
0
 40
0
 40
0
 40
1
 40
1
 40
1
 40
1
 10
206.532918
 20
768.701215
 30
0.0
 10
206.829907
 20
767.758280
 30
0.0
 10
206.898996
 20
766.625187
 30
0.0
 10
206.740185
 20
765.301937
 30
0.0
  0
LWPOLYLINE
  5
177
100
AcDbEntity
  8
Layer_1
 62
7
100
AcDbPolyline
 90
3
 70
0
 10
191.619952
 20
769.801135
 30
0.0
 10
191.436166
 20
769.823185
 30
0.0
 10
191.857438
 20
773.333477
 30
0.0
  0
LWPOLYLINE
  5
178
100
AcDbEntity
  8
Layer_1
 62
7
100
AcDbPolyline
 90
2
 70
0
 10
206.740185
 20
765.301937
 30
0.0
 10
205.068317
 20
751.371130
 30
0.0
  0
SPLINE
  5
179
100
AcDbEntity
  8
Layer_1
 62
7
100
AcDbSpline
 70
8
 71
3
 72
8
 73
4
 74
0
 40
0
 40
0
 40
0
 40
0
 40
1
 40
1
 40
1
 40
1
 10
202.924038
 20
762.553330
 30
0.0
 10
201.862988
 20
762.618530
 30
0.0
 10
200.608352
 20
762.675880
 30
0.0
 10
199.160130
 20
762.725380
 30
0.0
  0
SPLINE
  5
17a
100
AcDbEntity
  8
Layer_1
 62
7
100
AcDbSpline
 70
8
 71
3
 72
8
 73
4
 74
0
 40
0
 40
0
 40
0
 40
0
 40
1
 40
1
 40
1
 40
1
 10
199.160130
 20
762.725380
 30
0.0
 10
197.724172
 20
762.773380
 30
0.0
 10
196.575646
 20
762.731005
 30
0.0
 10
195.714552
 20
762.598255
 30
0.0
  0
SPLINE
  5
17b
100
AcDbEntity
  8
Layer_1
 62
7
100
AcDbSpline
 70
8
 71
3
 72
8
 73
4
 74
0
 40
0
 40
0
 40
0
 40
0
 40
1
 40
1
 40
1
 40
1
 10
195.714552
 20
762.598255
 30
0.0
 10
194.688303
 20
762.435555
 30
0.0
 10
193.832842
 20
762.090780
 30
0.0
 10
193.148169
 20
761.563930
 30
0.0
  0
SPLINE
  5
17c
100
AcDbEntity
  8
Layer_1
 62
7
100
AcDbSpline
 70
8
 71
3
 72
8
 73
4
 74
0
 40
0
 40
0
 40
0
 40
0
 40
1
 40
1
 40
1
 40
1
 10
193.148169
 20
761.563930
 30
0.0
 10
192.464982
 20
761.049380
 30
0.0
 10
192.060892
 20
760.271380
 30
0.0
 10
191.935900
 20
759.229930
 30
0.0
  0
SPLINE
  5
17d
100
AcDbEntity
  8
Layer_1
 62
7
100
AcDbSpline
 70
8
 71
3
 72
8
 73
4
 74
0
 40
0
 40
0
 40
0
 40
0
 40
1
 40
1
 40
1
 40
1
 10
191.935900
 20
759.229930
 30
0.0
 10
191.794750
 20
758.053680
 30
0.0
 10
192.043462
 20
757.122730
 30
0.0
 10
192.682035
 20
756.437080
 30
0.0
  0
SPLINE
  5
17e
100
AcDbEntity
  8
Layer_1
 62
7
100
AcDbSpline
 70
8
 71
3
 72
8
 73
4
 74
0
 40
0
 40
0
 40
0
 40
0
 40
1
 40
1
 40
1
 40
1
 10
192.682035
 20
756.437080
 30
0.0
 10
193.322087
 20
755.763730
 30
0.0
 10
194.371125
 20
755.339555
 30
0.0
 10
195.829151
 20
755.164555
 30
0.0
  0
SPLINE
  5
17f
100
AcDbEntity
  8
Layer_1
 62
7
100
AcDbSpline
 70
8
 71
3
 72
8
 73
4
 74
0
 40
0
 40
0
 40
0
 40
0
 40
1
 40
1
 40
1
 40
1
 10
195.829151
 20
755.164555
 30
0.0
 10
197.042129
 20
755.019005
 30
0.0
 10
198.178895
 20
755.118730
 30
0.0
 10
199.239450
 20
755.463730
 30
0.0
  0
SPLINE
  5
180
100
AcDbEntity
  8
Layer_1
 62
7
100
AcDbSpline
 70
8
 71
3
 72
8
 73
4
 74
0
 40
0
 40
0
 40
0
 40
0
 40
1
 40
1
 40
1
 40
1
 10
199.239450
 20
755.463730
 30
0.0
 10
200.301474
 20
755.820980
 30
0.0
 10
201.301018
 20
756.278955
 30
0.0
 10
202.238084
 20
756.837655
 30
0.0
  0
LWPOLYLINE
  5
181
100
AcDbEntity
  8
Layer_1
 62
7
100
AcDbPolyline
 90
2
 70
0
 10
202.238084
 20
756.837655
 30
0.0
 10
202.924038
 20
762.553330
 30
0.0
  0
LWPOLYLINE
  5
182
100
AcDbEntity
  8
Layer_1
 62
7
100
AcDbPolyline
 90
12
 70
1
 10
218.558762
 20
762.266380
 30
0.0
 10
222.458252
 20
764.061580
 30
0.0
 10
223.169186
 20
766.917550
 30
0.0
 10
219.256271
 20
765.068455
 30
0.0
 10
222.185013
 20
776.833645
 30
0.0
 10
218.808149
 20
777.674267
 30
0.0
 10
215.266829
 20
763.448305
 30
0.0
 10
211.542350
 20
761.743030
 30
0.0
 10
210.831417
 20
758.887105
 30
0.0
 10
214.569320
 20
760.646155
 30
0.0
 10
211.850740
 20
749.725255
 30
0.0
 10
215.227604
 20
748.884580
 30
0.0
  0
SPLINE
  5
183
100
AcDbEntity
  8
Layer_1
 62
7
100
AcDbSpline
 70
8
 71
3
 72
8
 73
4
 74
0
 40
0
 40
0
 40
0
 40
0
 40
1
 40
1
 40
1
 40
1
 10
227.653943
 20
755.667205
 30
0.0
 10
227.196367
 20
754.481405
 30
0.0
 10
226.974983
 20
753.376405
 30
0.0
 10
226.989791
 20
752.352205
 30
0.0
  0
SPLINE
  5
184
100
AcDbEntity
  8
Layer_1
 62
7
100
AcDbSpline
 70
8
 71
3
 72
8
 73
4
 74
0
 40
0
 40
0
 40
0
 40
0
 40
1
 40
1
 40
1
 40
1
 10
226.989791
 20
752.352205
 30
0.0
 10
227.009041
 20
751.339505
 30
0.0
 10
227.220672
 20
750.431130
 30
0.0
 10
227.624684
 20
749.627080
 30
0.0
  0
SPLINE
  5
185
100
AcDbEntity
  8
Layer_1
 62
7
100
AcDbSpline
 70
8
 71
3
 72
8
 73
4
 74
0
 40
0
 40
0
 40
0
 40
0
 40
1
 40
1
 40
1
 40
1
 10
227.624684
 20
749.627080
 30
0.0
 10
228.010097
 20
748.843480
 30
0.0
 10
228.558189
 20
748.155805
 30
0.0
 10
229.268960
 20
747.564055
 30
0.0
  0
SPLINE
  5
186
100
AcDbEntity
  8
Layer_1
 62
7
100
AcDbSpline
 70
8
 71
3
 72
8
 73
4
 74
0
 40
0
 40
0
 40
0
 40
0
 40
1
 40
1
 40
1
 40
1
 10
229.268960
 20
747.564055
 30
0.0
 10
229.991261
 20
746.967905
 30
0.0
 10
230.847461
 20
746.478780
 30
0.0
 10
231.837560
 20
746.096680
 30
0.0
  0
SPLINE
  5
187
100
AcDbEntity
  8
Layer_1
 62
7
100
AcDbSpline
 70
8
 71
3
 72
8
 73
4
 74
0
 40
0
 40
0
 40
0
 40
0
 40
1
 40
1
 40
1
 40
1
 10
231.837560
 20
746.096680
 30
0.0
 10
233.150012
 20
745.590230
 30
0.0
 10
234.568173
 20
745.340605
 30
0.0
 10
236.092042
 20
745.347805
 30
0.0
  0
SPLINE
  5
188
100
AcDbEntity
  8
Layer_1
 62
7
100
AcDbSpline
 70
8
 71
3
 72
8
 73
4
 74
0
 40
0
 40
0
 40
0
 40
0
 40
1
 40
1
 40
1
 40
1
 10
236.092042
 20
745.347805
 30
0.0
 10
237.631882
 20
745.361805
 30
0.0
 10
238.781603
 20
745.513355
 30
0.0
 10
239.541207
 20
745.802455
 30
0.0
  0
LWPOLYLINE
  5
189
100
AcDbEntity
  8
Layer_1
 62
7
100
AcDbPolyline
 90
2
 70
0
 10
241.866441
 20
750.182830
 30
0.0
 10
227.653943
 20
755.667205
 30
0.0
  0
LWPOLYLINE
  5
18a
100
AcDbEntity
  8
Layer_1
 62
7
100
AcDbPolyline
 90
2
 70
0
 10
239.541207
 20
745.802455
 30
0.0
 10
239.713887
 20
745.735705
 30
0.0
  0
SPLINE
  5
18b
100
AcDbEntity
  8
Layer_1
 62
7
100
AcDbSpline
 70
8
 71
3
 72
8
 73
4
 74
0
 40
0
 40
0
 40
0
 40
0
 40
1
 40
1
 40
1
 40
1
 10
238.347769
 20
742.195630
 30
0.0
 10
237.076360
 20
742.157130
 30
0.0
 10
235.810801
 20
742.202405
 30
0.0
 10
234.551092
 20
742.331455
 30
0.0
  0
SPLINE
  5
18c
100
AcDbEntity
  8
Layer_1
 62
7
100
AcDbSpline
 70
8
 71
3
 72
8
 73
4
 74
0
 40
0
 40
0
 40
0
 40
0
 40
1
 40
1
 40
1
 40
1
 10
234.551092
 20
742.331455
 30
0.0
 10
233.291384
 20
742.460405
 30
0.0
 10
232.034084
 20
742.767005
 30
0.0
 10
230.779191
 20
743.251255
 30
0.0
  0
SPLINE
  5
18d
100
AcDbEntity
  8
Layer_1
 62
7
100
AcDbSpline
 70
8
 71
3
 72
8
 73
4
 74
0
 40
0
 40
0
 40
0
 40
0
 40
1
 40
1
 40
1
 40
1
 10
230.779191
 20
743.251255
 30
0.0
 10
227.578653
 20
744.486305
 30
0.0
 10
225.413588
 20
746.313805
 30
0.0
 10
224.283995
 20
748.733755
 30
0.0
  0
SPLINE
  5
18e
100
AcDbEntity
  8
Layer_1
 62
7
100
AcDbSpline
 70
8
 71
3
 72
8
 73
4
 74
0
 40
0
 40
0
 40
0
 40
0
 40
1
 40
1
 40
1
 40
1
 10
224.283995
 20
748.733755
 30
0.0
 10
223.158844
 20
751.165255
 30
0.0
 10
223.211562
 20
753.975505
 30
0.0
 10
224.442149
 20
757.164505
 30
0.0
  0
SPLINE
  5
18f
100
AcDbEntity
  8
Layer_1
 62
7
100
AcDbSpline
 70
8
 71
3
 72
8
 73
4
 74
0
 40
0
 40
0
 40
0
 40
0
 40
1
 40
1
 40
1
 40
1
 10
224.442149
 20
757.164505
 30
0.0
 10
225.659414
 20
760.319005
 30
0.0
 10
227.483381
 20
762.492055
 30
0.0
 10
229.914050
 20
763.683655
 30
0.0
  0
SPLINE
  5
190
100
AcDbEntity
  8
Layer_1
 62
7
100
AcDbSpline
 70
8
 71
3
 72
8
 73
4
 74
0
 40
0
 40
0
 40
0
 40
0
 40
1
 40
1
 40
1
 40
1
 10
229.914050
 20
763.683655
 30
0.0
 10
232.356231
 20
764.870820
 30
0.0
 10
234.981870
 20
764.922395
 30
0.0
 10
237.790966
 20
763.838380
 30
0.0
  0
SPLINE
  5
191
100
AcDbEntity
  8
Layer_1
 62
7
100
AcDbSpline
 70
8
 71
3
 72
8
 73
4
 74
0
 40
0
 40
0
 40
0
 40
0
 40
1
 40
1
 40
1
 40
1
 10
237.790966
 20
763.838380
 30
0.0
 10
240.392846
 20
762.834380
 30
0.0
 10
242.102846
 20
761.301530
 30
0.0
 10
242.920966
 20
759.239830
 30
0.0
  0
SPLINE
  5
192
100
AcDbEntity
  8
Layer_1
 62
7
100
AcDbSpline
 70
8
 71
3
 72
8
 73
4
 74
0
 40
0
 40
0
 40
0
 40
0
 40
1
 40
1
 40
1
 40
1
 10
242.920966
 20
759.239830
 30
0.0
 10
243.750615
 20
757.173730
 30
0.0
 10
243.625657
 20
754.741880
 30
0.0
 10
242.546092
 20
751.944280
 30
0.0
  0
LWPOLYLINE
  5
193
100
AcDbEntity
  8
Layer_1
 62
7
100
AcDbPolyline
 90
2
 70
0
 10
239.713887
 20
745.735855
 30
0.0
 10
238.347769
 20
742.195630
 30
0.0
  0
SPLINE
  5
194
100
AcDbEntity
  8
Layer_1
 62
7
100
AcDbSpline
 70
8
 71
3
 72
8
 73
4
 74
0
 40
0
 40
0
 40
0
 40
0
 40
1
 40
1
 40
1
 40
1
 10
239.665798
 20
753.889030
 30
0.0
 10
240.311784
 20
755.597380
 30
0.0
 10
240.388739
 20
757.082205
 30
0.0
 10
239.896661
 20
758.343505
 30
0.0
  0
SPLINE
  5
195
100
AcDbEntity
  8
Layer_1
 62
7
100
AcDbSpline
 70
8
 71
3
 72
8
 73
4
 74
0
 40
0
 40
0
 40
0
 40
0
 40
1
 40
1
 40
1
 40
1
 10
239.896661
 20
758.343505
 30
0.0
 10
239.416078
 20
759.600305
 30
0.0
 10
238.312328
 20
760.561905
 30
0.0
 10
236.585410
 20
761.228305
 30
0.0
  0
SPLINE
  5
196
100
AcDbEntity
  8
Layer_1
 62
7
100
AcDbSpline
 70
8
 71
3
 72
8
 73
4
 74
0
 40
0
 40
0
 40
0
 40
0
 40
1
 40
1
 40
1
 40
1
 10
236.585410
 20
761.228305
 30
0.0
 10
234.846980
 20
761.899155
 30
0.0
 10
233.261997
 20
761.922155
 30
0.0
 10
231.830463
 20
761.297305
 30
0.0
  0
SPLINE
  5
197
100
AcDbEntity
  8
Layer_1
 62
7
100
AcDbSpline
 70
8
 71
3
 72
8
 73
4
 74
0
 40
0
 40
0
 40
0
 40
0
 40
1
 40
1
 40
1
 40
1
 10
231.830463
 20
761.297380
 30
0.0
 10
230.410441
 20
760.668130
 30
0.0
 10
229.338135
 20
759.620330
 30
0.0
 10
228.613545
 20
758.153980
 30
0.0
  0
LWPOLYLINE
  5
198
100
AcDbEntity
  8
Layer_1
 62
7
100
AcDbPolyline
 90
2
 70
0
 10
242.546092
 20
751.944280
 30
0.0
 10
241.866441
 20
750.182830
 30
0.0
  0
LWPOLYLINE
  5
199
100
AcDbEntity
  8
Layer_1
 62
7
100
AcDbPolyline
 90
2
 70
0
 10
228.613545
 20
758.153980
 30
0.0
 10
239.665798
 20
753.889030
 30
0.0
  0
SPLINE
  5
19a
100
AcDbEntity
  8
Layer_1
 62
7
100
AcDbSpline
 70
8
 71
3
 72
8
 73
4
 74
0
 40
0
 40
0
 40
0
 40
0
 40
1
 40
1
 40
1
 40
1
 10
272.046260
 20
733.858030
 30
0.0
 10
272.541225
 20
734.595880
 30
0.0
 10
272.983130
 20
735.332180
 30
0.0
 10
273.371975
 20
736.066930
 30
0.0
  0
SPLINE
  5
19b
100
AcDbEntity
  8
Layer_1
 62
7
100
AcDbSpline
 70
8
 71
3
 72
8
 73
4
 74
0
 40
0
 40
0
 40
0
 40
0
 40
1
 40
1
 40
1
 40
1
 10
273.371975
 20
736.066930
 30
0.0
 10
273.771070
 20
736.794780
 30
0.0
 10
274.000508
 20
737.435855
 30
0.0
 10
274.060288
 20
737.990155
 30
0.0
  0
SPLINE
  5
19c
100
AcDbEntity
  8
Layer_1
 62
7
100
AcDbSpline
 70
8
 71
3
 72
8
 73
4
 74
0
 40
0
 40
0
 40
0
 40
0
 40
1
 40
1
 40
1
 40
1
 10
274.060288
 20
737.990155
 30
0.0
 10
274.120173
 20
738.588905
 30
0.0
 10
274.005413
 20
739.148805
 30
0.0
 10
273.716008
 20
739.669855
 30
0.0
  0
SPLINE
  5
19d
100
AcDbEntity
  8
Layer_1
 62
7
100
AcDbSpline
 70
8
 71
3
 72
8
 73
4
 74
0
 40
0
 40
0
 40
0
 40
0
 40
1
 40
1
 40
1
 40
1
 10
273.716008
 20
739.669855
 30
0.0
 10
273.426583
 20
740.190905
 30
0.0
 10
272.866825
 20
740.729855
 30
0.0
 10
272.036735
 20
741.286705
 30
0.0
  0
SPLINE
  5
19e
100
AcDbEntity
  8
Layer_1
 62
7
100
AcDbSpline
 70
8
 71
3
 72
8
 73
4
 74
0
 40
0
 40
0
 40
0
 40
0
 40
1
 40
1
 40
1
 40
1
 10
272.036735
 20
741.286705
 30
0.0
 10
271.227136
 20
741.829805
 30
0.0
 10
270.280051
 20
742.167930
 30
0.0
 10
269.195481
 20
742.301080
 30
0.0
  0
SPLINE
  5
19f
100
AcDbEntity
  8
Layer_1
 62
7
100
AcDbSpline
 70
8
 71
3
 72
8
 73
4
 74
0
 40
0
 40
0
 40
0
 40
0
 40
1
 40
1
 40
1
 40
1
 10
269.195481
 20
742.301080
 30
0.0
 10
268.117781
 20
742.444480
 30
0.0
 10
266.964466
 20
742.475155
 30
0.0
 10
265.735536
 20
742.393105
 30
0.0
  0
SPLINE
  5
1a0
100
AcDbEntity
  8
Layer_1
 62
7
100
AcDbSpline
 70
8
 71
3
 72
8
 73
4
 74
0
 40
0
 40
0
 40
0
 40
0
 40
1
 40
1
 40
1
 40
1
 10
265.735536
 20
742.393105
 30
0.0
 10
265.608171
 20
742.136805
 30
0.0
 10
265.448181
 20
741.842930
 30
0.0
 10
265.255566
 20
741.511480
 30
0.0
  0
SPLINE
  5
1a1
100
AcDbEntity
  8
Layer_1
 62
7
100
AcDbSpline
 70
8
 71
3
 72
8
 73
4
 74
0
 40
0
 40
0
 40
0
 40
0
 40
1
 40
1
 40
1
 40
1
 10
265.255566
 20
741.511480
 30
0.0
 10
265.069836
 20
741.190280
 30
0.0
 10
264.873851
 20
740.875980
 30
0.0
 10
264.667611
 20
740.568580
 30
0.0
  0
LWPOLYLINE
  5
1a2
100
AcDbEntity
  8
Layer_1
 62
7
100
AcDbPolyline
 90
3
 70
0
 10
268.377943
 20
722.142805
 30
0.0
 10
265.487991
 20
724.081405
 30
0.0
 10
272.046260
 20
733.858030
 30
0.0
  0
SPLINE
  5
1a3
100
AcDbEntity
  8
Layer_1
 62
7
100
AcDbSpline
 70
8
 71
3
 72
8
 73
4
 74
0
 40
0
 40
0
 40
0
 40
0
 40
1
 40
1
 40
1
 40
1
 10
260.963038
 20
741.292780
 30
0.0
 10
261.471753
 20
742.051130
 30
0.0
 10
261.917098
 20
742.792555
 30
0.0
 10
262.299073
 20
743.517055
 30
0.0
  0
SPLINE
  5
1a4
100
AcDbEntity
  8
Layer_1
 62
7
100
AcDbSpline
 70
8
 71
3
 72
8
 73
4
 74
0
 40
0
 40
0
 40
0
 40
0
 40
1
 40
1
 40
1
 40
1
 10
262.299073
 20
743.517055
 30
0.0
 10
262.698168
 20
744.244905
 30
0.0
 10
262.927606
 20
744.885980
 30
0.0
 10
262.987386
 20
745.440280
 30
0.0
  0
SPLINE
  5
1a5
100
AcDbEntity
  8
Layer_1
 62
7
100
AcDbSpline
 70
8
 71
3
 72
8
 73
4
 74
0
 40
0
 40
0
 40
0
 40
0
 40
1
 40
1
 40
1
 40
1
 10
262.987386
 20
745.440280
 30
0.0
 10
263.047271
 20
746.039030
 30
0.0
 10
262.929068
 20
746.593805
 30
0.0
 10
262.632778
 20
747.104605
 30
0.0
  0
SPLINE
  5
1a6
100
AcDbEntity
  8
Layer_1
 62
7
100
AcDbSpline
 70
8
 71
3
 72
8
 73
4
 74
0
 40
0
 40
0
 40
0
 40
0
 40
1
 40
1
 40
1
 40
1
 10
262.632778
 20
747.104605
 30
0.0
 10
262.343338
 20
747.625705
 30
0.0
 10
261.783581
 20
748.164655
 30
0.0
 10
260.953506
 20
748.721455
 30
0.0
  0
SPLINE
  5
1a7
100
AcDbEntity
  8
Layer_1
 62
7
100
AcDbSpline
 70
8
 71
3
 72
8
 73
4
 74
0
 40
0
 40
0
 40
0
 40
0
 40
1
 40
1
 40
1
 40
1
 10
260.953506
 20
748.721455
 30
0.0
 10
260.164406
 20
749.250805
 30
0.0
 10
259.239571
 20
749.588880
 30
0.0
 10
258.179001
 20
749.735680
 30
0.0
  0
SPLINE
  5
1a8
100
AcDbEntity
  8
Layer_1
 62
7
100
AcDbSpline
 70
8
 71
3
 72
8
 73
4
 74
0
 40
0
 40
0
 40
0
 40
0
 40
1
 40
1
 40
1
 40
1
 10
258.179001
 20
749.735680
 30
0.0
 10
257.128676
 20
749.875580
 30
0.0
 10
256.006161
 20
749.907880
 30
0.0
 10
254.811456
 20
749.832580
 30
0.0
  0
LWPOLYLINE
  5
1a9
100
AcDbEntity
  8
Layer_1
 62
7
100
AcDbPolyline
 90
4
 70
0
 10
264.667611
 20
740.568580
 30
0.0
 10
257.294721
 20
729.577555
 30
0.0
 10
254.404791
 20
731.516155
 30
0.0
 10
260.963038
 20
741.292780
 30
0.0
  0
SPLINE
  5
1aa
100
AcDbEntity
  8
Layer_1
 62
7
100
AcDbSpline
 70
8
 71
3
 72
8
 73
4
 74
0
 40
0
 40
0
 40
0
 40
0
 40
1
 40
1
 40
1
 40
1
 10
256.451023
 20
752.276680
 30
0.0
 10
257.854683
 20
752.419830
 30
0.0
 10
259.143231
 20
752.402580
 30
0.0
 10
260.316666
 20
752.224930
 30
0.0
  0
SPLINE
  5
1ab
100
AcDbEntity
  8
Layer_1
 62
7
100
AcDbSpline
 70
8
 71
3
 72
8
 73
4
 74
0
 40
0
 40
0
 40
0
 40
0
 40
1
 40
1
 40
1
 40
1
 10
260.316666
 20
752.224555
 30
0.0
 10
261.500351
 20
752.039755
 30
0.0
 10
262.599463
 20
751.607080
 30
0.0
 10
263.614003
 20
750.926530
 30
0.0
  0
SPLINE
  5
1ac
100
AcDbEntity
  8
Layer_1
 62
7
100
AcDbSpline
 70
8
 71
3
 72
8
 73
4
 74
0
 40
0
 40
0
 40
0
 40
0
 40
1
 40
1
 40
1
 40
1
 10
263.614003
 20
750.926530
 30
0.0
 10
264.782283
 20
750.142830
 30
0.0
 10
265.606228
 20
749.233480
 30
0.0
 10
266.085838
 20
748.198480
 30
0.0
  0
SPLINE
  5
1ad
100
AcDbEntity
  8
Layer_1
 62
7
100
AcDbSpline
 70
8
 71
3
 72
8
 73
4
 74
0
 40
0
 40
0
 40
0
 40
0
 40
1
 40
1
 40
1
 40
1
 10
266.085838
 20
748.198480
 30
0.0
 10
266.575713
 20
747.156630
 30
0.0
 10
266.728316
 20
746.066105
 30
0.0
 10
266.543646
 20
744.926905
 30
0.0
  0
SPLINE
  5
1ae
100
AcDbEntity
  8
Layer_1
 62
7
100
AcDbSpline
 70
8
 71
3
 72
8
 73
4
 74
0
 40
0
 40
0
 40
0
 40
0
 40
1
 40
1
 40
1
 40
1
 10
266.543646
 20
744.926905
 30
0.0
 10
268.371881
 20
745.127055
 30
0.0
 10
269.912018
 20
745.119305
 30
0.0
 10
271.164058
 20
744.903655
 30
0.0
  0
SPLINE
  5
1af
100
AcDbEntity
  8
Layer_1
 62
7
100
AcDbSpline
 70
8
 71
3
 72
8
 73
4
 74
0
 40
0
 40
0
 40
0
 40
0
 40
1
 40
1
 40
1
 40
1
 10
271.164058
 20
744.903430
 30
0.0
 10
272.422963
 20
744.697880
 30
0.0
 10
273.600688
 20
744.227330
 30
0.0
 10
274.697233
 20
743.491780
 30
0.0
  0
SPLINE
  5
1b0
100
AcDbEntity
  8
Layer_1
 62
7
100
AcDbSpline
 70
8
 71
3
 72
8
 73
4
 74
0
 40
0
 40
0
 40
0
 40
0
 40
1
 40
1
 40
1
 40
1
 10
274.697233
 20
743.491780
 30
0.0
 10
276.582858
 20
742.226880
 30
0.0
 10
277.586485
 20
740.721505
 30
0.0
 10
277.708115
 20
738.975655
 30
0.0
  0
SPLINE
  5
1b1
100
AcDbEntity
  8
Layer_1
 62
7
100
AcDbSpline
 70
8
 71
3
 72
8
 73
4
 74
0
 40
0
 40
0
 40
0
 40
0
 40
1
 40
1
 40
1
 40
1
 10
277.708115
 20
738.975655
 30
0.0
 10
277.846870
 20
737.233155
 30
0.0
 10
277.228800
 20
735.337105
 30
0.0
 10
275.853905
 20
733.287505
 30
0.0
  0
LWPOLYLINE
  5
1b2
100
AcDbEntity
  8
Layer_1
 62
7
100
AcDbPolyline
 90
6
 70
0
 10
254.811456
 20
749.832580
 30
0.0
 10
246.211491
 20
737.012305
 30
0.0
 10
243.321538
 20
738.950905
 30
0.0
 10
254.839746
 20
756.121480
 30
0.0
 10
257.729668
 20
754.182880
 30
0.0
 10
256.451023
 20
752.276680
 30
0.0
  0
SPLINE
  5
1b3
100
AcDbEntity
  8
Layer_1
 62
7
100
AcDbSpline
 70
8
 71
3
 72
8
 73
4
 74
0
 40
0
 40
0
 40
0
 40
0
 40
1
 40
1
 40
1
 40
1
 10
633.168085
 20
688.273483
 30
0.0
 10
633.168085
 20
738.909551
 30
0.0
 10
606.154064
 20
785.699207
 30
0.0
 10
562.301943
 20
811.017241
 30
0.0
  0
SPLINE
  5
1b4
100
AcDbEntity
  8
Layer_1
 62
7
100
AcDbSpline
 70
8
 71
3
 72
8
 73
4
 74
0
 40
0
 40
0
 40
0
 40
0
 40
1
 40
1
 40
1
 40
1
 10
562.301943
 20
811.017241
 30
0.0
 10
518.449822
 20
836.335275
 30
0.0
 10
464.421781
 20
836.335275
 30
0.0
 10
420.569660
 20
811.017241
 30
0.0
  0
SPLINE
  5
1b5
100
AcDbEntity
  8
Layer_1
 62
7
100
AcDbSpline
 70
8
 71
3
 72
8
 73
4
 74
0
 40
0
 40
0
 40
0
 40
0
 40
1
 40
1
 40
1
 40
1
 10
420.569660
 20
811.017241
 30
0.0
 10
376.717539
 20
785.699207
 30
0.0
 10
349.703518
 20
738.909551
 30
0.0
 10
349.703518
 20
688.273483
 30
0.0
  0
SPLINE
  5
1b6
100
AcDbEntity
  8
Layer_1
 62
7
100
AcDbSpline
 70
8
 71
3
 72
8
 73
4
 74
0
 40
0
 40
0
 40
0
 40
0
 40
1
 40
1
 40
1
 40
1
 10
349.703518
 20
688.273483
 30
0.0
 10
349.703518
 20
637.637415
 30
0.0
 10
376.717539
 20
590.847759
 30
0.0
 10
420.569660
 20
565.529725
 30
0.0
  0
SPLINE
  5
1b7
100
AcDbEntity
  8
Layer_1
 62
7
100
AcDbSpline
 70
8
 71
3
 72
8
 73
4
 74
0
 40
0
 40
0
 40
0
 40
0
 40
1
 40
1
 40
1
 40
1
 10
420.569660
 20
565.529725
 30
0.0
 10
464.421781
 20
540.211691
 30
0.0
 10
518.449822
 20
540.211691
 30
0.0
 10
562.301943
 20
565.529725
 30
0.0
  0
SPLINE
  5
1b8
100
AcDbEntity
  8
Layer_1
 62
7
100
AcDbSpline
 70
8
 71
3
 72
8
 73
4
 74
0
 40
0
 40
0
 40
0
 40
0
 40
1
 40
1
 40
1
 40
1
 10
562.301943
 20
565.529725
 30
0.0
 10
606.154064
 20
590.847759
 30
0.0
 10
633.168085
 20
637.637415
 30
0.0
 10
633.168085
 20
688.273483
 30
0.0
  0
LWPOLYLINE
  5
1b9
100
AcDbEntity
  8
Layer_1
 62
7
100
AcDbPolyline
 90
2
 70
0
 10
275.853905
 20
733.287505
 30
0.0
 10
268.377943
 20
722.142805
 30
0.0
  0
SPLINE
  5
1ba
100
AcDbEntity
  8
Layer_1
 62
7
100
AcDbSpline
 70
8
 71
3
 72
8
 73
4
 74
0
 40
0
 40
0
 40
0
 40
0
 40
1
 40
1
 40
1
 40
1
 10
611.908240
 20
688.273483
 30
0.0
 10
611.908240
 20
731.314140
 30
0.0
 10
588.946323
 20
771.085347
 30
0.0
 10
551.672021
 20
792.605675
 30
0.0
  0
SPLINE
  5
1bb
100
AcDbEntity
  8
Layer_1
 62
7
100
AcDbSpline
 70
8
 71
3
 72
8
 73
4
 74
0
 40
0
 40
0
 40
0
 40
0
 40
1
 40
1
 40
1
 40
1
 10
551.672021
 20
792.605675
 30
0.0
 10
514.397719
 20
814.126003
 30
0.0
 10
468.473885
 20
814.126003
 30
0.0
 10
431.199582
 20
792.605675
 30
0.0
  0
SPLINE
  5
1bc
100
AcDbEntity
  8
Layer_1
 62
7
100
AcDbSpline
 70
8
 71
3
 72
8
 73
4
 74
0
 40
0
 40
0
 40
0
 40
0
 40
1
 40
1
 40
1
 40
1
 10
431.199582
 20
792.605675
 30
0.0
 10
393.925280
 20
771.085347
 30
0.0
 10
370.963363
 20
731.314140
 30
0.0
 10
370.963363
 20
688.273483
 30
0.0
  0
SPLINE
  5
1bd
100
AcDbEntity
  8
Layer_1
 62
7
100
AcDbSpline
 70
8
 71
3
 72
8
 73
4
 74
0
 40
0
 40
0
 40
0
 40
0
 40
1
 40
1
 40
1
 40
1
 10
370.963363
 20
688.273483
 30
0.0
 10
370.963363
 20
645.232826
 30
0.0
 10
393.925280
 20
605.461619
 30
0.0
 10
431.199582
 20
583.941291
 30
0.0
  0
SPLINE
  5
1be
100
AcDbEntity
  8
Layer_1
 62
7
100
AcDbSpline
 70
8
 71
3
 72
8
 73
4
 74
0
 40
0
 40
0
 40
0
 40
0
 40
1
 40
1
 40
1
 40
1
 10
431.199582
 20
583.941291
 30
0.0
 10
468.473885
 20
562.420962
 30
0.0
 10
514.397719
 20
562.420962
 30
0.0
 10
551.672021
 20
583.941291
 30
0.0
  0
SPLINE
  5
1bf
100
AcDbEntity
  8
Layer_1
 62
7
100
AcDbSpline
 70
8
 71
3
 72
8
 73
4
 74
0
 40
0
 40
0
 40
0
 40
0
 40
1
 40
1
 40
1
 40
1
 10
551.672021
 20
583.941291
 30
0.0
 10
588.946323
 20
605.461619
 30
0.0
 10
611.908240
 20
645.232826
 30
0.0
 10
611.908240
 20
688.273483
 30
0.0
  0
LWPOLYLINE
  5
1c0
100
AcDbEntity
  8
Layer_1
 62
7
100
AcDbPolyline
 90
1
 70
1
 10
633.168085
 20
688.273483
 30
0.0
  0
SPLINE
  5
1c1
100
AcDbEntity
  8
Layer_1
 62
7
100
AcDbSpline
 70
8
 71
3
 72
8
 73
4
 74
0
 40
0
 40
0
 40
0
 40
0
 40
1
 40
1
 40
1
 40
1
 10
601.986978
 20
688.273483
 30
0.0
 10
601.986978
 20
727.769614
 30
0.0
 10
580.916043
 20
764.265544
 30
0.0
 10
546.711390
 20
784.013610
 30
0.0
  0
SPLINE
  5
1c2
100
AcDbEntity
  8
Layer_1
 62
7
100
AcDbSpline
 70
8
 71
3
 72
8
 73
4
 74
0
 40
0
 40
0
 40
0
 40
0
 40
1
 40
1
 40
1
 40
1
 10
546.711390
 20
784.013610
 30
0.0
 10
512.506737
 20
803.761675
 30
0.0
 10
470.364866
 20
803.761675
 30
0.0
 10
436.160214
 20
784.013610
 30
0.0
  0
SPLINE
  5
1c3
100
AcDbEntity
  8
Layer_1
 62
7
100
AcDbSpline
 70
8
 71
3
 72
8
 73
4
 74
0
 40
0
 40
0
 40
0
 40
0
 40
1
 40
1
 40
1
 40
1
 10
436.160214
 20
784.013610
 30
0.0
 10
401.955561
 20
764.265544
 30
0.0
 10
380.884625
 20
727.769614
 30
0.0
 10
380.884625
 20
688.273483
 30
0.0
  0
SPLINE
  5
1c4
100
AcDbEntity
  8
Layer_1
 62
7
100
AcDbSpline
 70
8
 71
3
 72
8
 73
4
 74
0
 40
0
 40
0
 40
0
 40
0
 40
1
 40
1
 40
1
 40
1
 10
380.884625
 20
688.273483
 30
0.0
 10
380.884625
 20
648.777352
 30
0.0
 10
401.955561
 20
612.281422
 30
0.0
 10
436.160214
 20
592.533356
 30
0.0
  0
SPLINE
  5
1c5
100
AcDbEntity
  8
Layer_1
 62
7
100
AcDbSpline
 70
8
 71
3
 72
8
 73
4
 74
0
 40
0
 40
0
 40
0
 40
0
 40
1
 40
1
 40
1
 40
1
 10
436.160214
 20
592.533356
 30
0.0
 10
470.364866
 20
572.785290
 30
0.0
 10
512.506737
 20
572.785290
 30
0.0
 10
546.711390
 20
592.533356
 30
0.0
  0
SPLINE
  5
1c6
100
AcDbEntity
  8
Layer_1
 62
7
100
AcDbSpline
 70
8
 71
3
 72
8
 73
4
 74
0
 40
0
 40
0
 40
0
 40
0
 40
1
 40
1
 40
1
 40
1
 10
546.711390
 20
592.533356
 30
0.0
 10
580.916043
 20
612.281422
 30
0.0
 10
601.986978
 20
648.777352
 30
0.0
 10
601.986978
 20
688.273483
 30
0.0
  0
LWPOLYLINE
  5
1c7
100
AcDbEntity
  8
Layer_1
 62
7
100
AcDbPolyline
 90
1
 70
1
 10
611.908240
 20
688.273483
 30
0.0
  0
SPLINE
  5
1c8
100
AcDbEntity
  8
Layer_1
 62
7
100
AcDbSpline
 70
8
 71
3
 72
8
 73
4
 74
0
 40
0
 40
0
 40
0
 40
0
 40
1
 40
1
 40
1
 40
1
 10
519.782258
 20
688.273483
 30
0.0
 10
519.782258
 20
698.400696
 30
0.0
 10
514.379454
 20
707.758628
 30
0.0
 10
505.609030
 20
712.822234
 30
0.0
  0
SPLINE
  5
1c9
100
AcDbEntity
  8
Layer_1
 62
7
100
AcDbSpline
 70
8
 71
3
 72
8
 73
4
 74
0
 40
0
 40
0
 40
0
 40
0
 40
1
 40
1
 40
1
 40
1
 10
505.609030
 20
712.822234
 30
0.0
 10
496.838606
 20
717.885841
 30
0.0
 10
486.032997
 20
717.885841
 30
0.0
 10
477.262573
 20
712.822234
 30
0.0
  0
SPLINE
  5
1ca
100
AcDbEntity
  8
Layer_1
 62
7
100
AcDbSpline
 70
8
 71
3
 72
8
 73
4
 74
0
 40
0
 40
0
 40
0
 40
0
 40
1
 40
1
 40
1
 40
1
 10
477.262573
 20
712.822234
 30
0.0
 10
468.492149
 20
707.758628
 30
0.0
 10
463.089345
 20
698.400696
 30
0.0
 10
463.089345
 20
688.273483
 30
0.0
  0
SPLINE
  5
1cb
100
AcDbEntity
  8
Layer_1
 62
7
100
AcDbSpline
 70
8
 71
3
 72
8
 73
4
 74
0
 40
0
 40
0
 40
0
 40
0
 40
1
 40
1
 40
1
 40
1
 10
463.089345
 20
688.273483
 30
0.0
 10
463.089345
 20
678.146269
 30
0.0
 10
468.492149
 20
668.788338
 30
0.0
 10
477.262573
 20
663.724731
 30
0.0
  0
SPLINE
  5
1cc
100
AcDbEntity
  8
Layer_1
 62
7
100
AcDbSpline
 70
8
 71
3
 72
8
 73
4
 74
0
 40
0
 40
0
 40
0
 40
0
 40
1
 40
1
 40
1
 40
1
 10
477.262573
 20
663.724731
 30
0.0
 10
486.032997
 20
658.661125
 30
0.0
 10
496.838606
 20
658.661125
 30
0.0
 10
505.609030
 20
663.724731
 30
0.0
  0
SPLINE
  5
1cd
100
AcDbEntity
  8
Layer_1
 62
7
100
AcDbSpline
 70
8
 71
3
 72
8
 73
4
 74
0
 40
0
 40
0
 40
0
 40
0
 40
1
 40
1
 40
1
 40
1
 10
505.609030
 20
663.724731
 30
0.0
 10
514.379454
 20
668.788338
 30
0.0
 10
519.782258
 20
678.146269
 30
0.0
 10
519.782258
 20
688.273483
 30
0.0
  0
LWPOLYLINE
  5
1ce
100
AcDbEntity
  8
Layer_1
 62
7
100
AcDbPolyline
 90
1
 70
1
 10
601.986978
 20
688.273483
 30
0.0
  0
LWPOLYLINE
  5
1cf
100
AcDbEntity
  8
Layer_1
 62
7
100
AcDbPolyline
 90
1
 70
1
 10
519.782258
 20
688.273483
 30
0.0
  0
ENDSEC
  0
SECTION
  2
OBJECTS
  0
DICTIONARY
  5
C
330
0
100
AcDbDictionary
  3
ACAD_GROUP
350
D
  3
ACAD_MLINESTYLE
350
17
  0
DICTIONARY
  5
D
330
C
100
AcDbDictionary
  0
DICTIONARY
  5
1A
330
C
100
AcDbDictionary
  0
DICTIONARY
  5
17
330
C
100
AcDbDictionary
  3
STANDARD
350
18
  0
DICTIONARY
  5
19
330
C
100
AcDbDictionary
  0
ENDSEC
  0
EOF
