<?xml version="1.0" encoding="UTF-8" standalone="no"?>
<!-- Created with Inkscape (http://www.inkscape.org/) -->

<svg
   xmlns:dc="http://purl.org/dc/elements/1.1/"
   xmlns:cc="http://creativecommons.org/ns#"
   xmlns:rdf="http://www.w3.org/1999/02/22-rdf-syntax-ns#"
   xmlns:svg="http://www.w3.org/2000/svg"
   xmlns="http://www.w3.org/2000/svg"
   xmlns:sodipodi="http://sodipodi.sourceforge.net/DTD/sodipodi-0.dtd"
   xmlns:inkscape="http://www.inkscape.org/namespaces/inkscape"
   width="210mm"
   height="297mm"
   viewBox="0 0 210 297"
   version="1.1"
   id="svg8"
   inkscape:version="0.92.4 (5da689c313, 2019-01-14)"
   sodipodi:docname="zdebialem_cut.svg">
  <defs
     id="defs2">
    <marker
       style="overflow:visible"
       refY="0.0"
       refX="0.0"
       orient="auto"
       id="DistanceX">
      <path
         id="path849"
         style="stroke:#000000; stroke-width:0.5"
         d="M 3,-3 L -3,3 M 0,-5 L  0,5" />
    </marker>
    <pattern
       y="0"
       x="0"
       width="8"
       patternUnits="userSpaceOnUse"
       id="Hatch"
       height="8">
      <path
         id="path852"
         stroke-width="0.25"
         stroke="#000000"
         linecap="square"
         d="M8 4 l-4,4" />
      <path
         id="path854"
         stroke-width="0.25"
         stroke="#000000"
         linecap="square"
         d="M6 2 l-4,4" />
      <path
         id="path856"
         stroke-width="0.25"
         stroke="#000000"
         linecap="square"
         d="M4 0 l-4,4" />
    </pattern>
    <symbol
       id="*MODEL_SPACE" />
    <symbol
       id="*PAPER_SPACE" />
    <marker
       style="overflow:visible"
       refY="0.0"
       refX="0.0"
       orient="auto"
       id="DistanceX-7">
      <path
         id="path894"
         style="stroke:#000000; stroke-width:0.5"
         d="M 3,-3 L -3,3 M 0,-5 L  0,5" />
    </marker>
    <pattern
       y="0"
       x="0"
       width="8"
       patternUnits="userSpaceOnUse"
       id="Hatch-1"
       height="8">
      <path
         id="path897"
         stroke-width="0.25"
         stroke="#000000"
         linecap="square"
         d="M8 4 l-4,4" />
      <path
         id="path899"
         stroke-width="0.25"
         stroke="#000000"
         linecap="square"
         d="M6 2 l-4,4" />
      <path
         id="path901"
         stroke-width="0.25"
         stroke="#000000"
         linecap="square"
         d="M4 0 l-4,4" />
    </pattern>
    <symbol
       id="*MODEL_SPACE-0" />
    <symbol
       id="*PAPER_SPACE-2" />
    <marker
       style="overflow:visible"
       refY="0.0"
       refX="0.0"
       orient="auto"
       id="DistanceX-0">
      <path
         id="path1485"
         style="stroke:#000000; stroke-width:0.5"
         d="M 3,-3 L -3,3 M 0,-5 L  0,5" />
    </marker>
    <pattern
       y="0"
       x="0"
       width="8"
       patternUnits="userSpaceOnUse"
       id="Hatch-6"
       height="8">
      <path
         id="path1488"
         stroke-width="0.25"
         stroke="#000000"
         linecap="square"
         d="M8 4 l-4,4" />
      <path
         id="path1490"
         stroke-width="0.25"
         stroke="#000000"
         linecap="square"
         d="M6 2 l-4,4" />
      <path
         id="path1492"
         stroke-width="0.25"
         stroke="#000000"
         linecap="square"
         d="M4 0 l-4,4" />
    </pattern>
    <symbol
       id="*MODEL_SPACE-7" />
    <symbol
       id="*PAPER_SPACE-3" />
  </defs>
  <sodipodi:namedview
     id="base"
     pagecolor="#ffffff"
     bordercolor="#666666"
     borderopacity="1.0"
     inkscape:pageopacity="0.0"
     inkscape:pageshadow="2"
     inkscape:zoom="1.979899"
     inkscape:cx="597.29455"
     inkscape:cy="993.96451"
     inkscape:document-units="mm"
     inkscape:current-layer="layer1"
     showgrid="false"
     inkscape:window-width="1920"
     inkscape:window-height="1001"
     inkscape:window-x="-9"
     inkscape:window-y="-9"
     inkscape:window-maximized="1" />
  <metadata
     id="metadata5">
    <rdf:RDF>
      <cc:Work
         rdf:about="">
        <dc:format>image/svg+xml</dc:format>
        <dc:type
           rdf:resource="http://purl.org/dc/dcmitype/StillImage" />
        <dc:title></dc:title>
      </cc:Work>
    </rdf:RDF>
  </metadata>
  <g
     inkscape:label="Layer 1"
     inkscape:groupmode="layer"
     id="layer1">
    <g
       id="g867"
       inkscape:label="0"
       transform="matrix(0.26458333,0,0,0.26458333,63.671784,-238.29297)">
      <path
         id="path863"
         style="fill:none;stroke:#000000"
         d="m 207.87402,1122.5197 a 207.87402,207.87402 0 1 0 -415.74804,0 207.87402,207.87402 0 1 0 415.74804,0 z"
         inkscape:connector-curvature="0" />
      <path
         id="path865"
         style="fill:none;stroke:#000000"
         d="m 56.692913,1122.5197 a 56.692913,56.692913 0 1 0 -113.385826,0 56.692913,56.692913 0 1 0 113.385826,0 z"
         inkscape:connector-curvature="0" />
    </g>
    <g
       id="g1272"
       inkscape:label="0"
       transform="matrix(0.26458333,0,0,0.26458333,61.238434,-237.48748)">
      <path
         id="path908"
         style="fill:none;stroke:#000000"
         d="m -105.28448,1057.2218 17.89459,-13.2426 -2.334355,-3.1544 -13.311825,9.8512 0.8771,-25.9487 -1.9673,-2.6584 -17.27958,12.7875 2.30498,3.1146 12.6373,-9.352 -0.86162,25.8452 z"
         inkscape:connector-curvature="0" />
      <path
         id="path910"
         style="fill:none;stroke:#000000"
         d="m -62.062677,1030.3651 -4.125204,2.124"
         inkscape:connector-curvature="0" />
      <path
         id="path912"
         style="fill:none;stroke:#000000"
         d="m -66.187881,1032.4891 -1.321863,-2.5673"
         inkscape:connector-curvature="0" />
      <path
         id="path914"
         style="fill:none;stroke:#000000"
         d="m -67.509744,1029.9218 q -0.986479,2.4511 -2.476803,4.3011"
         inkscape:connector-curvature="0" />
      <path
         id="path916"
         style="fill:none;stroke:#000000"
         d="m -69.986547,1034.2229 q -1.490324,1.85 -3.750398,3.0137"
         inkscape:connector-curvature="0" />
      <path
         id="path918"
         style="fill:none;stroke:#000000"
         d="m -73.736945,1037.2366 q -4.38851,2.2596 -8.717633,0.2136"
         inkscape:connector-curvature="0" />
      <path
         id="path920"
         style="fill:none;stroke:#000000"
         d="m -82.454578,1037.4502 q -4.307175,-2.0573 -7.391534,-8.0476"
         inkscape:connector-curvature="0" />
      <path
         id="path922"
         style="fill:none;stroke:#000000"
         d="m -89.846112,1029.4026 q -1.604317,-3.1158 -1.980694,-6.0034"
         inkscape:connector-curvature="0" />
      <path
         id="path924"
         style="fill:none;stroke:#000000"
         d="m -91.826806,1023.3992 q -0.354429,-2.8988 0.278355,-5.3899"
         inkscape:connector-curvature="0" />
      <path
         id="path926"
         style="fill:none;stroke:#000000"
         d="m -91.548451,1018.0093 q 0.633449,-2.4359 2.156345,-4.3304"
         inkscape:connector-curvature="0" />
      <path
         id="path928"
         style="fill:none;stroke:#000000"
         d="m -89.392106,1013.6789 q 1.544845,-1.9058 3.673282,-3.0017"
         inkscape:connector-curvature="0" />
      <path
         id="path930"
         style="fill:none;stroke:#000000"
         d="m -85.718824,1010.6772 q 1.930939,-0.9943 3.637703,-1.3456"
         inkscape:connector-curvature="0" />
      <path
         id="path932"
         style="fill:none;stroke:#000000"
         d="m -82.081121,1009.3316 q 1.695456,-0.3733 3.781774,-0.3649"
         inkscape:connector-curvature="0" />
      <path
         id="path934"
         style="fill:none;stroke:#000000"
         d="m -78.299347,1008.9667 -5.468247,-10.6202"
         inkscape:connector-curvature="0" />
      <path
         id="path936"
         style="fill:none;stroke:#000000"
         d="m -83.767594,998.3465 4.125204,-2.12403"
         inkscape:connector-curvature="0" />
      <path
         id="path938"
         style="fill:none;stroke:#000000"
         d="m -79.64239,996.22247 17.579713,34.14263"
         inkscape:connector-curvature="0" />
      <path
         id="path940"
         style="fill:none;stroke:#000000"
         d="m -69.294837,1026.4549 -7.242032,-14.0652"
         inkscape:connector-curvature="0" />
      <path
         id="path942"
         style="fill:none;stroke:#000000"
         d="m -76.536869,1012.3897 q -2.051764,0.1126 -3.515187,0.5052"
         inkscape:connector-curvature="0" />
      <path
         id="path944"
         style="fill:none;stroke:#000000"
         d="m -80.052056,1012.8949 q -1.463424,0.3927 -3.021351,1.1948"
         inkscape:connector-curvature="0" />
      <path
         id="path946"
         style="fill:none;stroke:#000000"
         d="m -83.073407,1014.0897 q -3.466919,1.7851 -4.155077,5.193"
         inkscape:connector-curvature="0" />
      <path
         id="path948"
         style="fill:none;stroke:#000000"
         d="m -87.228484,1019.2827 q -0.688157,3.4079 1.594035,7.8403"
         inkscape:connector-curvature="0" />
      <path
         id="path950"
         style="fill:none;stroke:#000000"
         d="m -85.634449,1027.123 q 2.248305,4.3666 4.915398,5.8803"
         inkscape:connector-curvature="0" />
      <path
         id="path952"
         style="fill:none;stroke:#000000"
         d="m -80.719051,1033.0033 q 2.655785,1.4919 5.947172,-0.2029"
         inkscape:connector-curvature="0" />
      <path
         id="path954"
         style="fill:none;stroke:#000000"
         d="m -74.771879,1032.8004 q 1.755407,-0.9038 3.159255,-2.5982"
         inkscape:connector-curvature="0" />
      <path
         id="path956"
         style="fill:none;stroke:#000000"
         d="m -71.612624,1030.2022 q 1.392558,-1.7164 2.317787,-3.7473"
         inkscape:connector-curvature="0" />
      <path
         id="path958"
         style="fill:none;stroke:#000000"
         d="m -35.481648,1007.3721 -19.390767,6.0475"
         inkscape:connector-curvature="0" />
      <path
         id="path960"
         style="fill:none;stroke:#000000"
         d="m -54.872415,1013.4196 q 0.75687,2.4268 2.053062,4.0132"
         inkscape:connector-curvature="0" />
      <path
         id="path962"
         style="fill:none;stroke:#000000"
         d="m -52.819353,1017.4328 q 1.288848,1.5629 2.92121,2.3206"
         inkscape:connector-curvature="0" />
      <path
         id="path964"
         style="fill:none;stroke:#000000"
         d="m -49.898143,1019.7534 q 1.577894,0.7488 3.427088,0.7925"
         inkscape:connector-curvature="0" />
      <path
         id="path966"
         style="fill:none;stroke:#000000"
         d="m -46.471055,1020.5459 q 1.872748,0.036 3.899012,-0.5955"
         inkscape:connector-curvature="0" />
      <path
         id="path968"
         style="fill:none;stroke:#000000"
         d="m -42.572043,1019.9504 q 2.685966,-0.8377 5.064814,-2.743"
         inkscape:connector-curvature="0" />
      <path
         id="path970"
         style="fill:none;stroke:#000000"
         d="m -37.507229,1017.2074 q 2.395075,-1.9362 3.226244,-3.333"
         inkscape:connector-curvature="0" />
      <path
         id="path972"
         style="fill:none;stroke:#000000"
         d="m -34.280985,1013.8744 0.235603,-0.073"
         inkscape:connector-curvature="0" />
      <path
         id="path974"
         style="fill:none;stroke:#000000"
         d="m -34.045382,1013.801 1.506379,4.83"
         inkscape:connector-curvature="0" />
      <path
         id="path976"
         style="fill:none;stroke:#000000"
         d="m -32.539003,1018.631 q -1.515722,1.2741 -3.169794,2.4363"
         inkscape:connector-curvature="0" />
      <path
         id="path978"
         style="fill:none;stroke:#000000"
         d="m -35.708797,1021.0673 q -1.637845,1.1313 -3.480156,1.9386"
         inkscape:connector-curvature="0" />
      <path
         id="path980"
         style="fill:none;stroke:#000000"
         d="m -39.188953,1023.0059 q 0.09985,0.4859 0.229079,1.066"
         inkscape:connector-curvature="0" />
      <path
         id="path982"
         style="fill:none;stroke:#000000"
         d="m -38.959874,1024.0719 q 0.152798,0.5729 0.285066,0.997"
         inkscape:connector-curvature="0" />
      <path
         id="path984"
         style="fill:none;stroke:#000000"
         d="m -38.674808,1025.0689 q 0.602552,1.932 1.855139,2.5496"
         inkscape:connector-curvature="0" />
      <path
         id="path986"
         style="fill:none;stroke:#000000"
         d="m -36.819669,1027.6185 q 1.27614,0.6102 3.396634,-0.051"
         inkscape:connector-curvature="0" />
      <path
         id="path988"
         style="fill:none;stroke:#000000"
         d="m -33.423035,1027.5674 q 0.848198,-0.2645 1.687771,-0.8883"
         inkscape:connector-curvature="0" />
      <path
         id="path990"
         style="fill:none;stroke:#000000"
         d="m -31.735264,1026.6791 q 0.87047,-0.6076 1.212226,-0.921"
         inkscape:connector-curvature="0" />
      <path
         id="path992"
         style="fill:none;stroke:#000000"
         d="m -30.523038,1025.7581 0.188479,-0.059"
         inkscape:connector-curvature="0" />
      <path
         id="path994"
         style="fill:none;stroke:#000000"
         d="m -30.334559,1025.6993 1.168364,3.7462"
         inkscape:connector-curvature="0" />
      <path
         id="path996"
         style="fill:none;stroke:#000000"
         d="m -29.166195,1029.4455 q -1.122299,0.712 -1.973537,1.1326"
         inkscape:connector-curvature="0" />
      <path
         id="path998"
         style="fill:none;stroke:#000000"
         d="m -31.139732,1030.5781 q -0.827668,0.4132 -1.817238,0.7218"
         inkscape:connector-curvature="0" />
      <path
         id="path1000"
         style="fill:none;stroke:#000000"
         d="m -32.95697,1031.2999 q -3.27499,1.0214 -5.858185,-0.2153"
         inkscape:connector-curvature="0" />
      <path
         id="path1002"
         style="fill:none;stroke:#000000"
         d="m -38.815155,1031.0846 q -2.559641,-1.2441 -3.610426,-4.6133"
         inkscape:connector-curvature="0" />
      <path
         id="path1004"
         style="fill:none;stroke:#000000"
         d="m -42.425581,1026.4713 q -0.176369,-0.5654 -0.289371,-1.1765"
         inkscape:connector-curvature="0" />
      <path
         id="path1006"
         style="fill:none;stroke:#000000"
         d="m -42.714952,1025.2948 q -0.113019,-0.6111 -0.151039,-1.0646"
         inkscape:connector-curvature="0" />
      <path
         id="path1008"
         style="fill:none;stroke:#000000"
         d="m -42.865991,1024.2302 q -5.975423,1.3983 -10.345282,-1.0909"
         inkscape:connector-curvature="0" />
      <path
         id="path1010"
         style="fill:none;stroke:#000000"
         d="m -53.211273,1023.1393 q -4.346305,-2.4966 -6.256851,-8.6225"
         inkscape:connector-curvature="0" />
      <path
         id="path1012"
         style="fill:none;stroke:#000000"
         d="m -59.468124,1014.5168 q -2.013403,-6.4557 0.314137,-11.3439"
         inkscape:connector-curvature="0" />
      <path
         id="path1014"
         style="fill:none;stroke:#000000"
         d="m -59.153987,1003.1729 q 2.35111,-4.89558 8.099999,-6.68854"
         inkscape:connector-curvature="0" />
      <path
         id="path1016"
         style="fill:none;stroke:#000000"
         d="m -51.053988,996.48436 q 5.324808,-1.66069 9.169214,0.55289"
         inkscape:connector-curvature="0" />
      <path
         id="path1018"
         style="fill:none;stroke:#000000"
         d="m -41.884774,997.03725 q 3.867977,2.20624 5.653583,7.93155"
         inkscape:connector-curvature="0" />
      <path
         id="path1020"
         style="fill:none;stroke:#000000"
         d="m -36.231191,1004.9688 0.749543,2.4033"
         inkscape:connector-curvature="0" />
      <path
         id="path1022"
         style="fill:none;stroke:#000000"
         d="m -40.851462,1005.324 q -1.111095,-3.4797 -3.449822,-4.8444"
         inkscape:connector-curvature="0" />
      <path
         id="path1024"
         style="fill:none;stroke:#000000"
         d="m -44.301284,1000.4796 q -2.315156,-1.37202 -5.84932,-0.2698"
         inkscape:connector-curvature="0" />
      <path
         id="path1026"
         style="fill:none;stroke:#000000"
         d="m -50.150604,1000.2098 q -3.557717,1.1096 -5.024232,3.8679"
         inkscape:connector-curvature="0" />
      <path
         id="path1028"
         style="fill:none;stroke:#000000"
         d="m -55.174836,1004.0777 q -1.442944,2.7509 -0.755709,5.9491"
         inkscape:connector-curvature="0" />
      <path
         id="path1030"
         style="fill:none;stroke:#000000"
         d="m -55.930545,1010.0268 15.079083,-4.7028"
         inkscape:connector-curvature="0" />
      <path
         id="path1032"
         style="fill:none;stroke:#000000"
         d="m -2.331799,1001.6558 q 0.44772,3.4261 -0.173056,6.2949"
         inkscape:connector-curvature="0" />
      <path
         id="path1034"
         style="fill:none;stroke:#000000"
         d="m -2.504855,1007.9507 q -0.596232,2.8656 -1.992838,4.9398"
         inkscape:connector-curvature="0" />
      <path
         id="path1036"
         style="fill:none;stroke:#000000"
         d="m -4.497693,1012.8905 q -1.484876,2.1603 -3.437115,3.4111"
         inkscape:connector-curvature="0" />
      <path
         id="path1038"
         style="fill:none;stroke:#000000"
         d="m -7.934808,1016.3016 q -1.955415,1.2262 -4.451587,1.5524"
         inkscape:connector-curvature="0" />
      <path
         id="path1040"
         style="fill:none;stroke:#000000"
         d="m -12.386395,1017.854 q -2.324875,0.3038 -4.135981,-0.032"
         inkscape:connector-curvature="0" />
      <path
         id="path1042"
         style="fill:none;stroke:#000000"
         d="m -16.522376,1017.822 q -1.807877,-0.3113 -3.617992,-1.0206"
         inkscape:connector-curvature="0" />
      <path
         id="path1044"
         style="fill:none;stroke:#000000"
         d="m -20.140368,1016.8014 -0.127384,1.3109"
         inkscape:connector-curvature="0" />
      <path
         id="path1046"
         style="fill:none;stroke:#000000"
         d="m -20.267752,1018.1123 -4.307123,0.5629"
         inkscape:connector-curvature="0" />
      <path
         id="path1048"
         style="fill:none;stroke:#000000"
         d="m -24.574875,1018.6752 -4.9761,-38.07891"
         inkscape:connector-curvature="0" />
      <path
         id="path1050"
         style="fill:none;stroke:#000000"
         d="m -29.550975,980.59629 4.600781,-0.60123"
         inkscape:connector-curvature="0" />
      <path
         id="path1052"
         style="fill:none;stroke:#000000"
         d="m -24.950194,979.99506 1.778107,13.6066"
         inkscape:connector-curvature="0" />
      <path
         id="path1054"
         style="fill:none;stroke:#000000"
         d="m -23.172087,993.60166 q 1.725432,-1.84334 3.772363,-3.13133"
         inkscape:connector-curvature="0" />
      <path
         id="path1056"
         style="fill:none;stroke:#000000"
         d="m -19.399724,990.47033 q 2.043703,-1.31246 4.760122,-1.66743"
         inkscape:connector-curvature="0" />
      <path
         id="path1058"
         style="fill:none;stroke:#000000"
         d="m -14.639602,988.8029 q 4.845523,-0.63321 8.121469,2.72201"
         inkscape:connector-curvature="0" />
      <path
         id="path1060"
         style="fill:none;stroke:#000000"
         d="m -6.518133,991.52491 q 3.300423,3.35202 4.186334,10.13089"
         inkscape:connector-curvature="0" />
      <path
         id="path1062"
         style="fill:none;stroke:#000000"
         d="m -7.063432,1002.3985 q -0.639599,-4.89443 -2.584151,-7.20401"
         inkscape:connector-curvature="0" />
      <path
         id="path1064"
         style="fill:none;stroke:#000000"
         d="m -9.647583,995.19449 q -1.947781,-2.33404 -5.545209,-1.86394"
         inkscape:connector-curvature="0" />
      <path
         id="path1066"
         style="fill:none;stroke:#000000"
         d="m -15.192792,993.33055 q -2.006724,0.26224 -3.94728,1.41187"
         inkscape:connector-curvature="0" />
      <path
         id="path1068"
         style="fill:none;stroke:#000000"
         d="m -19.140072,994.74242 q -1.94375,1.12516 -3.526666,2.72587"
         inkscape:connector-curvature="0" />
      <path
         id="path1070"
         style="fill:none;stroke:#000000"
         d="m -22.666738,997.46829 2.046726,15.66231"
         inkscape:connector-curvature="0" />
      <path
         id="path1072"
         style="fill:none;stroke:#000000"
         d="m -20.620012,1013.1306 q 2.07291,0.6251 3.512609,0.7854"
         inkscape:connector-curvature="0" />
      <path
         id="path1074"
         style="fill:none;stroke:#000000"
         d="m -17.107403,1013.916 q 1.464174,0.1572 3.250651,-0.076"
         inkscape:connector-curvature="0" />
      <path
         id="path1076"
         style="fill:none;stroke:#000000"
         d="m -13.856752,1013.8397 q 3.817676,-0.4989 5.645025,-3.2765"
         inkscape:connector-curvature="0" />
      <path
         id="path1078"
         style="fill:none;stroke:#000000"
         d="m -8.211727,1010.5632 q 1.848648,-2.8052 1.148295,-8.1647"
         inkscape:connector-curvature="0" />
      <path
         id="path1080"
         style="fill:none;stroke:#000000"
         d="m 6.395706,983.54094 5.232216,-0.0188 -0.01792,-4.81264 -5.232216,0.0188 z"
         inkscape:connector-curvature="0" />
      <path
         id="path1082"
         style="fill:none;stroke:#000000"
         d="m 6.807166,1015.7228 4.639861,-0.017 -0.09869,-27.5678 -4.639895,0.0166 z"
         inkscape:connector-curvature="0" />
      <path
         id="path1084"
         style="fill:none;stroke:#000000"
         d="m 41.972074,1018.282 -4.582353,-0.55"
         inkscape:connector-curvature="0" />
      <path
         id="path1086"
         style="fill:none;stroke:#000000"
         d="m 37.389721,1017.732 0.349972,-2.916"
         inkscape:connector-curvature="0" />
      <path
         id="path1088"
         style="fill:none;stroke:#000000"
         d="m 37.739693,1014.816 q -0.662606,0.3431 -1.807485,0.9762"
         inkscape:connector-curvature="0" />
      <path
         id="path1090"
         style="fill:none;stroke:#000000"
         d="m 35.932208,1015.7922 q -1.117415,0.6117 -2.150522,0.9351"
         inkscape:connector-curvature="0" />
      <path
         id="path1092"
         style="fill:none;stroke:#000000"
         d="m 33.781686,1016.7273 q -1.219365,0.4254 -2.758248,0.6136"
         inkscape:connector-curvature="0" />
      <path
         id="path1094"
         style="fill:none;stroke:#000000"
         d="m 31.023438,1017.3409 q -1.541838,0.2127 -3.551193,-0.029"
         inkscape:connector-curvature="0" />
      <path
         id="path1096"
         style="fill:none;stroke:#000000"
         d="m 27.472245,1017.3124 q -3.700182,-0.444 -5.979095,-3.2033"
         inkscape:connector-curvature="0" />
      <path
         id="path1098"
         style="fill:none;stroke:#000000"
         d="m 21.49315,1014.1091 q -2.278878,-2.7592 -1.823062,-6.5574"
         inkscape:connector-curvature="0" />
      <path
         id="path1100"
         style="fill:none;stroke:#000000"
         d="m 19.670088,1007.5517 q 0.373491,-3.1121 1.926107,-4.8647"
         inkscape:connector-curvature="0" />
      <path
         id="path1102"
         style="fill:none;stroke:#000000"
         d="m 21.596195,1002.687 q 1.580063,-1.7741 4.187375,-2.5797"
         inkscape:connector-curvature="0" />
      <path
         id="path1104"
         style="fill:none;stroke:#000000"
         d="m 25.78357,1000.1073 q 2.631804,-0.80279 6.182997,-0.77432"
         inkscape:connector-curvature="0" />
      <path
         id="path1106"
         style="fill:none;stroke:#000000"
         d="m 31.966567,999.33298 q 3.551209,0.0285 7.593489,0.31472"
         inkscape:connector-curvature="0" />
      <path
         id="path1108"
         style="fill:none;stroke:#000000"
         d="m 39.560056,999.6477 0.0853,-0.71064"
         inkscape:connector-curvature="0" />
      <path
         id="path1110"
         style="fill:none;stroke:#000000"
         d="m 39.645354,998.93706 q 0.188291,-1.56829 -0.251863,-2.66512"
         inkscape:connector-curvature="0" />
      <path
         id="path1112"
         style="fill:none;stroke:#000000"
         d="m 39.393491,996.27194 q -0.415559,-1.09389 -1.374197,-1.80551"
         inkscape:connector-curvature="0" />
      <path
         id="path1114"
         style="fill:none;stroke:#000000"
         d="m 38.019294,994.46643 q -0.912556,-0.68124 -2.261269,-1.04195"
         inkscape:connector-curvature="0" />
      <path
         id="path1116"
         style="fill:none;stroke:#000000"
         d="m 35.758025,993.42448 q -1.348713,-0.36073 -2.843496,-0.54012"
         inkscape:connector-curvature="0" />
      <path
         id="path1118"
         style="fill:none;stroke:#000000"
         d="m 32.914529,992.88436 q -1.813343,-0.21763 -4.102077,0.005"
         inkscape:connector-curvature="0" />
      <path
         id="path1120"
         style="fill:none;stroke:#000000"
         d="m 28.812452,992.88929 q -2.285778,0.19796 -4.771531,0.81937"
         inkscape:connector-curvature="0" />
      <path
         id="path1122"
         style="fill:none;stroke:#000000"
         d="m 24.040921,993.70866 -0.245048,-0.0294"
         inkscape:connector-curvature="0" />
      <path
         id="path1124"
         style="fill:none;stroke:#000000"
         d="m 23.795873,993.67924 0.561696,-4.68037"
         inkscape:connector-curvature="0" />
      <path
         id="path1126"
         style="fill:none;stroke:#000000"
         d="m 24.357569,988.99887 q 1.391857,-0.20583 3.99326,-0.34106"
         inkscape:connector-curvature="0" />
      <path
         id="path1128"
         style="fill:none;stroke:#000000"
         d="m 28.350829,988.65781 q 2.601419,-0.13524 5.076377,0.16179"
         inkscape:connector-curvature="0" />
      <path
         id="path1130"
         style="fill:none;stroke:#000000"
         d="m 33.427206,988.8196 q 2.891525,0.34702 4.964605,1.09296"
         inkscape:connector-curvature="0" />
      <path
         id="path1132"
         style="fill:none;stroke:#000000"
         d="m 38.391811,989.91256 q 2.100511,0.72437 3.530594,2.0643"
         inkscape:connector-curvature="0" />
      <path
         id="path1134"
         style="fill:none;stroke:#000000"
         d="m 41.922405,991.97686 q 1.408493,1.31248 2.002471,3.19836"
         inkscape:connector-curvature="0" />
      <path
         id="path1136"
         style="fill:none;stroke:#000000"
         d="m 43.924876,995.17522 q 0.593978,1.88587 0.276356,4.53237"
         inkscape:connector-curvature="0" />
      <path
         id="path1138"
         style="fill:none;stroke:#000000"
         d="M 44.201232,999.70759 41.972074,1018.282"
         inkscape:connector-curvature="0" />
      <path
         id="path1140"
         style="fill:none;stroke:#000000"
         d="m 38.19843,1010.9933 0.914605,-7.6209"
         inkscape:connector-curvature="0" />
      <path
         id="path1142"
         style="fill:none;stroke:#000000"
         d="m 39.113035,1003.3724 q -2.1221,-0.1304 -5.018544,-0.2294"
         inkscape:connector-curvature="0" />
      <path
         id="path1144"
         style="fill:none;stroke:#000000"
         d="m 34.094491,1003.143 q -2.871916,-0.096 -4.594103,0.1695"
         inkscape:connector-curvature="0" />
      <path
         id="path1146"
         style="fill:none;stroke:#000000"
         d="m 29.500388,1003.3125 q -2.052499,0.3254 -3.421845,1.3791"
         inkscape:connector-curvature="0" />
      <path
         id="path1148"
         style="fill:none;stroke:#000000"
         d="m 26.078543,1004.6916 q -1.366374,1.0291 -1.616358,3.112"
         inkscape:connector-curvature="0" />
      <path
         id="path1150"
         style="fill:none;stroke:#000000"
         d="m 24.462185,1007.8036 q -0.2823,2.3525 0.994847,3.7238"
         inkscape:connector-curvature="0" />
      <path
         id="path1152"
         style="fill:none;stroke:#000000"
         d="m 25.457032,1011.5274 q 1.280103,1.3467 4.196154,1.6967"
         inkscape:connector-curvature="0" />
      <path
         id="path1154"
         style="fill:none;stroke:#000000"
         d="m 29.653186,1013.2241 q 2.425956,0.2911 4.547065,-0.3989"
         inkscape:connector-curvature="0" />
      <path
         id="path1156"
         style="fill:none;stroke:#000000"
         d="m 34.200251,1012.8252 q 2.124048,-0.7145 3.998179,-1.8319"
         inkscape:connector-curvature="0" />
      <path
         id="path1158"
         style="fill:none;stroke:#000000"
         d="m 59.959335,1003.755 5.19932,-2.3936 0.947911,-3.80796 -5.21722,2.46546 3.90499,-15.68692 -4.502486,-1.12083 -4.72176,18.96795 -4.965972,2.2737 -0.947911,3.8079 4.983871,-2.3454 -3.624773,14.5612 4.502486,1.1209 z"
         inkscape:connector-curvature="0" />
      <path
         id="path1160"
         style="fill:none;stroke:#000000"
         d="m 91.03624,1019.8664 -18.949998,-7.3125"
         inkscape:connector-curvature="0" />
      <path
         id="path1162"
         style="fill:none;stroke:#000000"
         d="m 72.086242,1012.5539 q -0.915152,2.3716 -0.885535,4.42"
         inkscape:connector-curvature="0" />
      <path
         id="path1164"
         style="fill:none;stroke:#000000"
         d="m 71.200707,1016.9739 q 0.0385,2.0254 0.846524,3.6335"
         inkscape:connector-curvature="0" />
      <path
         id="path1166"
         style="fill:none;stroke:#000000"
         d="m 72.047231,1020.6074 q 0.770825,1.5672 2.192368,2.7507"
         inkscape:connector-curvature="0" />
      <path
         id="path1168"
         style="fill:none;stroke:#000000"
         d="m 74.239599,1023.3581 q 1.444601,1.1923 3.424799,1.9565"
         inkscape:connector-curvature="0" />
      <path
         id="path1170"
         style="fill:none;stroke:#000000"
         d="m 77.664398,1025.3146 q 2.624905,1.0129 5.672644,0.9985"
         inkscape:connector-curvature="0" />
      <path
         id="path1172"
         style="fill:none;stroke:#000000"
         d="m 83.337042,1026.3131 q 3.079679,-0.028 4.598886,-0.6062"
         inkscape:connector-curvature="0" />
      <path
         id="path1174"
         style="fill:none;stroke:#000000"
         d="m 87.935928,1025.7069 0.23024,0.089"
         inkscape:connector-curvature="0" />
      <path
         id="path1176"
         style="fill:none;stroke:#000000"
         d="m 88.166168,1025.7957 -1.821491,4.7203"
         inkscape:connector-curvature="0" />
      <path
         id="path1178"
         style="fill:none;stroke:#000000"
         d="m 86.344677,1030.516 q -2.542817,0.077 -5.062235,-0.1811"
         inkscape:connector-curvature="0" />
      <path
         id="path1180"
         style="fill:none;stroke:#000000"
         d="m 81.282442,1030.3349 q -2.519417,-0.2579 -5.029202,-1.2264"
         inkscape:connector-curvature="0" />
      <path
         id="path1182"
         style="fill:none;stroke:#000000"
         d="m 76.25324,1029.1085 q -6.401076,-2.4701 -8.660261,-7.31"
         inkscape:connector-curvature="0" />
      <path
         id="path1184"
         style="fill:none;stroke:#000000"
         d="m 67.592979,1021.7985 q -2.250303,-4.863 0.210871,-11.241"
         inkscape:connector-curvature="0" />
      <path
         id="path1186"
         style="fill:none;stroke:#000000"
         d="m 67.80385,1010.5575 q 2.43453,-6.309 7.295868,-8.6922"
         inkscape:connector-curvature="0" />
      <path
         id="path1188"
         style="fill:none;stroke:#000000"
         d="m 75.099718,1001.8653 q 4.884363,-2.37433 10.502555,-0.2063"
         inkscape:connector-curvature="0" />
      <path
         id="path1190"
         style="fill:none;stroke:#000000"
         d="m 85.602273,1001.659 q 5.203761,2.008 6.840001,6.1314"
         inkscape:connector-curvature="0" />
      <path
         id="path1192"
         style="fill:none;stroke:#000000"
         d="m 92.442274,1007.7904 q 1.659298,4.1322 -0.499832,9.7274"
         inkscape:connector-curvature="0" />
      <path
         id="path1194"
         style="fill:none;stroke:#000000"
         d="m 91.942442,1017.5178 -0.906202,2.3486"
         inkscape:connector-curvature="0" />
      <path
         id="path1196"
         style="fill:none;stroke:#000000"
         d="m 88.102049,1014.9248 q 1.291973,-3.4167 0.307818,-5.9393"
         inkscape:connector-curvature="0" />
      <path
         id="path1198"
         style="fill:none;stroke:#000000"
         d="m 88.409867,1008.9855 q -0.961166,-2.5136 -4.415002,-3.8464"
         inkscape:connector-curvature="0" />
      <path
         id="path1200"
         style="fill:none;stroke:#000000"
         d="m 83.994865,1005.1391 q -3.47686,-1.3417 -6.339929,-0.092"
         inkscape:connector-curvature="0" />
      <path
         id="path1202"
         style="fill:none;stroke:#000000"
         d="m 77.654936,1005.047 q -2.840045,1.2585 -4.289224,4.1912"
         inkscape:connector-curvature="0" />
      <path
         id="path1204"
         style="fill:none;stroke:#000000"
         d="m 73.365712,1009.2382 14.736337,5.6866"
         inkscape:connector-curvature="0" />
      <path
         id="path1206"
         style="fill:none;stroke:#000000"
         d="m 126.38491,1057.2531 -3.85327,-2.5848"
         inkscape:connector-curvature="0" />
      <path
         id="path1208"
         style="fill:none;stroke:#000000"
         d="m 122.53164,1054.6683 8.74436,-13.0355"
         inkscape:connector-curvature="0" />
      <path
         id="path1210"
         style="fill:none;stroke:#000000"
         d="m 131.276,1041.6328 q 0.98993,-1.4757 1.76762,-2.9452"
         inkscape:connector-curvature="0" />
      <path
         id="path1212"
         style="fill:none;stroke:#000000"
         d="m 133.04362,1038.6876 q 0.79819,-1.4557 0.91775,-2.5643"
         inkscape:connector-curvature="0" />
      <path
         id="path1214"
         style="fill:none;stroke:#000000"
         d="m 133.96137,1036.1233 q 0.11977,-1.1975 -0.45904,-2.2396"
         inkscape:connector-curvature="0" />
      <path
         id="path1216"
         style="fill:none;stroke:#000000"
         d="m 133.50233,1033.8837 q -0.57885,-1.0421 -2.23903,-2.1558"
         inkscape:connector-curvature="0" />
      <path
         id="path1218"
         style="fill:none;stroke:#000000"
         d="m 131.2633,1031.7279 q -1.6192,-1.0862 -3.78834,-1.3525"
         inkscape:connector-curvature="0" />
      <path
         id="path1220"
         style="fill:none;stroke:#000000"
         d="m 127.47496,1030.3754 q -2.1554,-0.2868 -4.61326,-0.1227"
         inkscape:connector-curvature="0" />
      <path
         id="path1222"
         style="fill:none;stroke:#000000"
         d="m 122.8617,1030.2527 q -0.25473,0.5126 -0.63996,1.1755"
         inkscape:connector-curvature="0" />
      <path
         id="path1224"
         style="fill:none;stroke:#000000"
         d="m 122.22174,1031.4282 q -0.37146,0.6424 -0.78394,1.2572"
         inkscape:connector-curvature="0" />
      <path
         id="path1226"
         style="fill:none;stroke:#000000"
         d="m 121.4378,1032.6854 -9.83052,14.6547"
         inkscape:connector-curvature="0" />
      <path
         id="path1228"
         style="fill:none;stroke:#000000"
         d="m 111.60728,1047.3401 -3.85324,-2.5848"
         inkscape:connector-curvature="0" />
      <path
         id="path1230"
         style="fill:none;stroke:#000000"
         d="m 107.75404,1044.7553 8.74433,-13.0355"
         inkscape:connector-curvature="0" />
      <path
         id="path1232"
         style="fill:none;stroke:#000000"
         d="m 116.49837,1031.7198 q 1.01743,-1.5167 1.78138,-2.9657"
         inkscape:connector-curvature="0" />
      <path
         id="path1234"
         style="fill:none;stroke:#000000"
         d="m 118.27975,1028.7541 q 0.79819,-1.4557 0.91775,-2.5643"
         inkscape:connector-curvature="0" />
      <path
         id="path1236"
         style="fill:none;stroke:#000000"
         d="m 119.1975,1026.1898 q 0.11977,-1.1975 -0.47281,-2.2191"
         inkscape:connector-curvature="0" />
      <path
         id="path1238"
         style="fill:none;stroke:#000000"
         d="m 118.72469,1023.9707 q -0.57888,-1.0422 -2.23903,-2.1558"
         inkscape:connector-curvature="0" />
      <path
         id="path1240"
         style="fill:none;stroke:#000000"
         d="m 116.48566,1021.8149 q -1.5782,-1.0587 -3.69934,-1.3523"
         inkscape:connector-curvature="0" />
      <path
         id="path1242"
         style="fill:none;stroke:#000000"
         d="m 112.78632,1020.4626 q -2.10065,-0.2798 -4.49006,-0.1292"
         inkscape:connector-curvature="0" />
      <path
         id="path1244"
         style="fill:none;stroke:#000000"
         d="m 108.29626,1020.3334 -11.46662,17.0937"
         inkscape:connector-curvature="0" />
      <path
         id="path1246"
         style="fill:none;stroke:#000000"
         d="m 96.82964,1037.4271 -3.853271,-2.5848"
         inkscape:connector-curvature="0" />
      <path
         id="path1248"
         style="fill:none;stroke:#000000"
         d="m 92.976369,1034.8423 15.357611,-22.8941"
         inkscape:connector-curvature="0" />
      <path
         id="path1250"
         style="fill:none;stroke:#000000"
         d="m 108.33398,1011.9482 3.85323,2.5848"
         inkscape:connector-curvature="0" />
      <path
         id="path1252"
         style="fill:none;stroke:#000000"
         d="m 112.18721,1014.533 -1.70486,2.5416"
         inkscape:connector-curvature="0" />
      <path
         id="path1254"
         style="fill:none;stroke:#000000"
         d="m 110.48235,1017.0746 q 2.80732,-0.2863 5.15419,0.069"
         inkscape:connector-curvature="0" />
      <path
         id="path1256"
         style="fill:none;stroke:#000000"
         d="m 115.63654,1017.1441 q 2.36737,0.3696 4.39645,1.7307"
         inkscape:connector-curvature="0" />
      <path
         id="path1258"
         style="fill:none;stroke:#000000"
         d="m 120.03299,1018.8748 q 2.33656,1.5674 3.29578,3.6374"
         inkscape:connector-curvature="0" />
      <path
         id="path1260"
         style="fill:none;stroke:#000000"
         d="m 123.32877,1022.5122 q 0.97975,2.0837 0.61041,4.3621"
         inkscape:connector-curvature="0" />
      <path
         id="path1262"
         style="fill:none;stroke:#000000"
         d="m 123.93918,1026.8743 q 3.65647,-0.4003 6.16055,0.031"
         inkscape:connector-curvature="0" />
      <path
         id="path1264"
         style="fill:none;stroke:#000000"
         d="m 130.09973,1026.9056 q 2.51781,0.4111 4.7109,1.8822"
         inkscape:connector-curvature="0" />
      <path
         id="path1266"
         style="fill:none;stroke:#000000"
         d="m 134.81063,1028.7878 q 3.77125,2.5298 4.01451,6.0215"
         inkscape:connector-curvature="0" />
      <path
         id="path1268"
         style="fill:none;stroke:#000000"
         d="m 138.82514,1034.8093 q 0.27751,3.485 -2.47228,7.5842"
         inkscape:connector-curvature="0" />
      <path
         id="path1270"
         style="fill:none;stroke:#000000"
         d="m 136.35286,1042.3935 -9.96795,14.8596"
         inkscape:connector-curvature="0" />
    </g>
    <g
       id="g1507"
       inkscape:label="0"
       transform="matrix(0.26458333,0,0,0.26458333,173.36763,-242.80759)">
      <path
         id="path1499"
         style="fill:none;stroke:#000000"
         d="m 188.97638,1122.5197 a 188.97638,188.97638 0 1 0 -377.95276,0 188.97638,188.97638 0 1 0 377.95276,0 z"
         inkscape:connector-curvature="0" />
      <path
         id="path1501"
         style="fill:none;stroke:#000000"
         d="m 160.62992,1122.5197 a 160.62992,160.62992 0 1 0 -321.25984,0 160.62992,160.62992 0 1 0 321.25984,0 z"
         inkscape:connector-curvature="0" />
      <path
         id="path1503"
         style="fill:none;stroke:#000000"
         d="m 147.40157,1122.5197 a 147.40157,147.40157 0 1 0 -294.80314,0 147.40157,147.40157 0 1 0 294.80314,0 z"
         inkscape:connector-curvature="0" />
      <path
         id="path1505"
         style="fill:none;stroke:#000000"
         d="m 37.795276,1122.5197 a 37.795276,37.795276 0 1 0 -75.590552,0 37.795276,37.795276 0 1 0 75.590552,0 z"
         inkscape:connector-curvature="0" />
    </g>
  </g>
</svg>
