<?xml version="1.0" encoding="UTF-8" standalone="no"?>
<!-- Created with Inkscape (http://www.inkscape.org/) -->

<svg
   xmlns:dc="http://purl.org/dc/elements/1.1/"
   xmlns:cc="http://creativecommons.org/ns#"
   xmlns:rdf="http://www.w3.org/1999/02/22-rdf-syntax-ns#"
   xmlns:svg="http://www.w3.org/2000/svg"
   xmlns="http://www.w3.org/2000/svg"
   xmlns:sodipodi="http://sodipodi.sourceforge.net/DTD/sodipodi-0.dtd"
   xmlns:inkscape="http://www.inkscape.org/namespaces/inkscape"
   width="210mm"
   height="297mm"
   viewBox="0 0 210 297"
   version="1.1"
   id="svg8"
   inkscape:version="0.92.4 (5da689c313, 2019-01-14)"
   sodipodi:docname="zdebialem_text.svg">
  <defs
     id="defs2" />
  <sodipodi:namedview
     id="base"
     pagecolor="#ffffff"
     bordercolor="#666666"
     borderopacity="1.0"
     inkscape:pageopacity="0.0"
     inkscape:pageshadow="2"
     inkscape:zoom="1.4"
     inkscape:cx="331.91873"
     inkscape:cy="973.41665"
     inkscape:document-units="mm"
     inkscape:current-layer="layer1"
     showgrid="false"
     inkscape:window-width="1920"
     inkscape:window-height="1001"
     inkscape:window-x="-9"
     inkscape:window-y="-9"
     inkscape:window-maximized="1" />
  <metadata
     id="metadata5">
    <rdf:RDF>
      <cc:Work
         rdf:about="">
        <dc:format>image/svg+xml</dc:format>
        <dc:type
           rdf:resource="http://purl.org/dc/dcmitype/StillImage" />
        <dc:title></dc:title>
      </cc:Work>
    </rdf:RDF>
  </metadata>
  <g
     inkscape:label="Layer 1"
     inkscape:groupmode="layer"
     id="layer1">
    <g
       aria-label="zdębiałem"
       style="font-style:normal;font-weight:normal;font-size:22.57777786px;line-height:1.25;font-family:sans-serif;letter-spacing:0px;word-spacing:0px;fill:#000000;fill-opacity:1;stroke:none;stroke-width:0.26458332"
       id="text819"
       transform="translate(-28.348214,-11.339286)">
      <path
         d="m 73.725193,60.669131 -7.993207,5.915256 -0.911553,-1.231769 0.38487,-11.544629 -5.644871,4.177404 -1.029595,-1.391279 7.718496,-5.71196 0.878763,1.187461 -0.391781,11.590887 5.946166,-4.400373 z"
         style="stroke-width:0.26458332"
         id="path828"
         inkscape:connector-curvature="0" />
      <path
         d="m 85.038428,54.587933 -1.842656,0.948768 -0.590457,-1.14676 q -0.440646,1.094874 -1.106347,1.921231 -0.665702,0.826357 -1.675242,1.346161 -1.960273,1.009328 -3.894017,0.09542 -1.923942,-0.918953 -3.301674,-3.594726 -0.716622,-1.391794 -0.884744,-2.681611 -0.158321,-1.294864 0.124335,-2.407588 0.282949,-1.088075 0.963206,-1.934327 0.690059,-0.851299 1.640791,-1.340823 0.862521,-0.444104 1.6249,-0.601049 0.757332,-0.166747 1.689253,-0.162992 l -2.442572,-4.74386 1.842656,-0.948768 z m -3.230482,-1.746607 -3.234894,-6.282675 q -0.91649,0.0503 -1.570178,0.225678 -0.653688,0.175381 -1.349585,0.533692 -1.548616,0.797368 -1.856006,2.319623 -0.30739,1.522254 0.712031,3.50213 1.004281,1.950472 2.195624,2.626642 1.186296,0.66637 2.656501,-0.09063 0.784109,-0.403731 1.411189,-1.160603 0.622033,-0.766674 1.035318,-1.673861 z"
         style="stroke-width:0.26458332"
         id="path830"
         inkscape:connector-curvature="0" />
      <path
         d="m 96.911729,44.317343 -8.661531,2.701347 q 0.338079,1.084007 0.917072,1.792629 0.57571,0.698098 1.304858,1.036545 0.704817,0.334488 1.530821,0.354028 0.836528,0.01626 1.741621,-0.266022 1.199775,-0.374184 2.262369,-1.225246 1.069837,-0.864868 1.441108,-1.488773 l 0.105243,-0.03282 0.672875,2.157489 q -0.677049,0.569146 -1.41589,1.088276 -0.731598,0.505322 -1.554529,0.865909 0.0446,0.217051 0.102325,0.4762 0.06825,0.255867 0.127333,0.445305 0.26915,0.862995 0.828658,1.13887 0.570033,0.272592 1.517223,-0.02282 0.378876,-0.118163 0.753898,-0.396797 0.388827,-0.271391 0.541483,-0.411385 l 0.08419,-0.02626 0.521889,1.67337 q -0.501314,0.318021 -0.881544,0.505895 -0.369707,0.184592 -0.811729,0.322449 -1.462883,0.456242 -2.616755,-0.09618 -1.143348,-0.555708 -1.612719,-2.060689 -0.07878,-0.252584 -0.129261,-0.525539 -0.05048,-0.272956 -0.06747,-0.475523 -2.669118,0.624576 -4.621066,-0.487308 -1.941424,-1.115167 -2.794827,-3.851495 -0.899354,-2.883669 0.140319,-5.067153 1.050198,-2.186766 3.618136,-2.987651 2.378501,-0.741804 4.095736,0.246966 1.72776,0.985488 2.525363,3.542902 z m -2.398608,-0.914841 q -0.496307,-1.55432 -1.540976,-2.1639 -1.034144,-0.612862 -2.612795,-0.120514 -1.589175,0.49563 -2.244239,1.727704 -0.64454,1.228793 -0.337566,2.657393 z"
         style="stroke-width:0.26458332"
         id="path832"
         inkscape:connector-curvature="0" />
      <path
         d="m 111.71921,41.763975 q 0.19999,1.530391 -0.0773,2.811843 -0.26633,1.280024 -0.89017,2.206517 -0.66327,0.965001 -1.5353,1.523678 -0.87345,0.547746 -1.98845,0.693452 -1.03848,0.135708 -1.84747,-0.01429 -0.80755,-0.139067 -1.6161,-0.455893 l -0.0569,0.585573 -1.92392,0.251416 -2.222742,-17.009202 2.055092,-0.268557 0.79425,6.077838 q 0.77072,-0.82339 1.68505,-1.398712 0.91289,-0.586254 2.12627,-0.744817 2.16441,-0.282843 3.62772,1.215876 1.47424,1.49729 1.86993,4.525278 z m -2.11354,0.331785 q -0.2857,-2.186273 -1.1543,-3.217922 -0.87004,-1.042581 -2.47695,-0.832592 -0.89637,0.117137 -1.76318,0.630659 -0.86824,0.502592 -1.5753,1.2176 l 0.91424,6.996073 q 0.92593,0.279249 1.56902,0.350864 0.65402,0.07019 1.45201,-0.03409 1.70529,-0.222846 2.52154,-1.463553 0.82576,-1.253066 0.51292,-3.647035 z"
         style="stroke-width:0.26458332"
         id="path834"
         inkscape:connector-curvature="0" />
      <path
         d="m 117.95478,33.663989 -2.33714,0.0084 -0.008,-2.149726 2.33714,-0.0084 z m -0.0808,14.376076 -2.07255,0.0074 -0.0441,-12.314071 2.07256,-0.0074 z"
         style="stroke-width:0.26458332"
         id="path836"
         inkscape:connector-curvature="0" />
      <path
         d="m 131.509,49.190624 -2.04686,-0.245646 0.15632,-1.302545 q -0.29598,0.153237 -0.80737,0.43607 -0.49913,0.273201 -0.9606,0.417681 -0.54467,0.190012 -1.23206,0.274068 -0.68871,0.095 -1.58626,-0.01271 -1.65281,-0.198356 -2.67076,-1.430862 -1.01794,-1.232506 -0.81433,-2.929099 0.16683,-1.390112 0.86036,-2.172946 0.70579,-0.792467 1.87043,-1.152351 1.17558,-0.358571 2.76184,-0.345856 1.58626,0.01271 3.39188,0.140581 l 0.0381,-0.317427 q 0.0841,-0.700529 -0.11251,-1.190464 -0.18563,-0.488622 -0.61383,-0.806492 -0.40762,-0.304297 -1.01007,-0.465425 -0.60245,-0.161129 -1.27014,-0.241259 -0.80999,-0.09721 -1.83233,0.0022 -1.02102,0.08843 -2.13136,0.366003 l -0.10946,-0.01314 0.2509,-2.090641 q 0.62172,-0.09194 1.78372,-0.152346 1.16201,-0.06041 2.26753,0.07227 1.2916,0.155006 2.21761,0.488206 0.93827,0.323567 1.57706,0.92209 0.62915,0.586262 0.89447,1.428652 0.26532,0.84239 0.12345,2.024533 z m -1.68562,-3.255731 0.40854,-3.404132 q -0.94791,-0.05824 -2.2417,-0.102477 -1.28284,-0.04292 -2.05211,0.07572 -0.91682,0.14535 -1.52848,0.616011 -0.61034,0.459716 -0.722,1.390106 -0.1261,1.050793 0.44438,1.663325 0.5718,0.601587 1.87435,0.757907 1.08363,0.130048 2.0311,-0.178175 0.94878,-0.319168 1.78592,-0.818287 z"
         style="stroke-width:0.26458332"
         id="path838"
         inkscape:connector-curvature="0" />
      <path
         d="m 141.86606,41.632492 -2.32245,1.069175 -1.98397,7.969882 -2.01119,-0.500652 1.61913,-6.504279 -2.22621,1.047688 0.42342,-1.700955 2.21822,-1.015594 2.10913,-8.47268 2.01119,0.500651 -1.74429,7.007078 2.33044,-1.101268 z"
         style="stroke-width:0.26458332"
         id="path840"
         inkscape:connector-curvature="0" />
      <path
         d="m 153.42514,49.898381 -8.46464,-3.266392 q -0.40879,1.059365 -0.39556,1.974353 0.0172,0.904703 0.37813,1.622993 0.34432,0.700067 0.9793,1.2287 0.64528,0.532602 1.5298,0.873926 1.1725,0.452453 2.53388,0.446045 1.37564,-0.01272 2.05425,-0.270793 l 0.10285,0.03969 -0.81363,2.108446 q -1.13584,0.03436 -2.26122,-0.08086 -1.12538,-0.115221 -2.24646,-0.54783 -2.85926,-1.10335 -3.8684,-3.265261 -1.00517,-2.172196 0.0942,-5.021168 1.08747,-2.818118 3.25894,-3.882655 2.18176,-1.060568 4.69132,-0.09216 2.32443,0.896968 3.05532,2.738805 0.74118,1.845806 -0.22326,4.345085 z m -1.31065,-2.20736 q 0.57711,-1.526164 0.13749,-2.652954 -0.42933,-1.122822 -1.9721,-1.718154 -1.55305,-0.599302 -2.83194,-0.04113 -1.2686,0.562143 -1.91592,1.87215 z"
         style="stroke-width:0.26458332"
         id="path842"
         inkscape:connector-curvature="0" />
      <path
         d="m 169.2148,66.598368 -1.72119,-1.15459 3.90596,-5.822721 q 0.44218,-0.659176 0.78957,-1.315566 0.35654,-0.650248 0.40994,-1.145427 0.0535,-0.534928 -0.20505,-1.000425 -0.25856,-0.465496 -1.00013,-0.962952 -0.72327,-0.485174 -1.69219,-0.604138 -0.96278,-0.12812 -2.06067,-0.05483 -0.11378,0.228995 -0.28586,0.52509 -0.16593,0.286939 -0.35017,0.561596 l -4.39113,6.545984 -1.72118,-1.15459 3.90595,-5.822721 q 0.45447,-0.677487 0.79572,-1.324722 0.35654,-0.650248 0.40994,-1.145427 0.0535,-0.534928 -0.21119,-0.991269 -0.25857,-0.465497 -1.00014,-0.962953 -0.70495,-0.47289 -1.65243,-0.604024 -0.93833,-0.124992 -2.00563,-0.05772 l -5.12195,7.635455 -1.72119,-1.15459 6.85999,-10.226383 1.72118,1.15459 -0.76154,1.135248 q 1.25399,-0.127885 2.30229,0.03106 1.05746,0.165082 1.96382,0.773084 1.0437,0.700124 1.47217,1.624748 0.43763,0.930765 0.27266,1.948475 1.63328,-0.178777 2.75181,0.014 1.12467,0.18362 2.10428,0.840754 1.68456,1.130024 1.79322,2.689714 0.12396,1.556676 -1.10432,3.38772 z"
         style="stroke-width:0.26458332"
         id="path844"
         inkscape:connector-curvature="0" />
    </g>
  </g>
</svg>
